2600 0 1 0           
17 Abaqus 2022 - 310 12 ACIS 31.0 NT 24 Thu May 18 12:02:14 2023 
1 9.9999999999999995e-07 1e-10 
T @77 PFY3SYC_PCXTERBU8FFZAWQ8H9JM3QQWGCUVJZ7AFAT4QC6BBAQ4GE65BD3VQ47X2BU3PEPEF8NCR 
-0 body $1 -1 -1 $-1 $2 $-1 $3 T 0 0 0 4.7999999999999998 4.7999999999999998 4.7999999999999998 #
-1 string_attrib-name_attrib-gen-attrib $-1 -1 $4 $-1 $0 2 1 1 1 1 1 1 1 1 1 1 1 1 1 0 1 1 1 @13 HKS_PART_NAME @6 Part-1 #
-2 lump $5 -1 -1 $-1 $-1 $6 $0 T 0 0 0 4.7999999999999998 4.7999999999999998 4.7999999999999998 #
-3 transform $-1 -1 1 0 0 0 1 0 0 0 1 0 0 0 1 no_rotate no_reflect no_shear #
-4 string_attrib-name_attrib-gen-attrib $-1 -1 $-1 $1 $0 2 1 1 1 1 1 1 1 1 1 1 1 1 1 0 1 1 1 @18 HKS_ATTRIB_BODY_ID @1 1 #
-5 cell_ptr-ct-attrib $-1 -1 $-1 $-1 $2 1 1 1 1 1 1 1 1 1 1 1 1 0 1 0 1 1 1 $7 $-1 auto #
-6 shell $-1 -1 -1 $-1 $-1 $-1 $8 $-1 $2 T 0 0 0 4.7999999999999998 4.7999999999999998 4.7999999999999998 #
-7 cell3d-cell $-1 -1 $-1 $2 $-1 1 $9 #
-8 face $10 -1 -1 $-1 $11 $12 $6 $-1 $13 forward single T 0 0 0 0 4.7999999999999998 4.7999999999999998 F #
-9 cshell $-1 -1 $-1 $14 $7 #
-10 cface_ptr-ct-attrib $-1 -1 $-1 $-1 $8 1 1 1 1 1 1 1 1 1 1 1 1 0 1 0 1 1 1 $-1 $15 #
-11 face $16 -1 -1 $-1 $17 $18 $6 $-1 $19 forward single T 0 4.7999999999999998 0 4.7999999999999998 4.7999999999999998 4.7999999999999998 F #
-12 loop $-1 -1 -1 $-1 $-1 $20 $8 T 0 0 0 0 4.7999999999999998 4.7999999999999998 periphery $13 F #
-13 plane-surface $-1 -1 -1 $-1 0 2.3999999999999999 0 -1 0 0 -0 -1 -0 forward_v I I I I #
-14 cface $-1 -1 $21 $9 $17 0 #
-15 cface $-1 -1 $-1 $9 $8 0 #
-16 cface_ptr-ct-attrib $-1 -1 $-1 $-1 $11 1 1 1 1 1 1 1 1 1 1 1 1 0 1 0 1 1 1 $-1 $22 #
-17 face $23 -1 -1 $-1 $24 $25 $6 $-1 $26 forward single T 4.7999999999999998 0 0 4.7999999999999998 4.7999999999999998 4.7999999999999998 F #
-18 loop $-1 -1 -1 $-1 $-1 $27 $11 T 0 4.7999999999999998 0 4.7999999999999998 4.7999999999999998 4.7999999999999998 periphery $19 F #
-19 plane-surface $-1 -1 -1 $-1 2.3999999999999999 4.7999999999999998 0 0 1 0 -1 -0 -0 forward_v I I I I #
-20 coedge $-1 -1 -1 $-1 $28 $29 $30 $31 forward $12 $-1 #
-21 cface $-1 -1 $32 $9 $33 0 #
-22 cface $-1 -1 $34 $9 $11 0 #
-23 cface_ptr-ct-attrib $-1 -1 $-1 $-1 $17 1 1 1 1 1 1 1 1 1 1 1 1 0 1 0 1 1 1 $-1 $14 #
-24 face $35 -1 -1 $-1 $36 $37 $6 $-1 $38 forward single T 0 0 0 4.7999999999999998 0 4.7999999999999998 F #
-25 loop $-1 -1 -1 $-1 $-1 $39 $17 T 4.7999999999999998 0 0 4.7999999999999998 4.7999999999999998 4.7999999999999998 periphery $26 F #
-26 plane-surface $-1 -1 -1 $-1 4.7999999999999998 2.3999999999999999 0 1 0 -0 -0 1 -0 forward_v I I I I #
-27 coedge $-1 -1 -1 $-1 $40 $41 $42 $43 forward $18 $-1 #
-28 coedge $-1 -1 -1 $-1 $44 $20 $41 $45 reversed $12 $-1 #
-29 coedge $-1 -1 -1 $-1 $20 $44 $46 $47 forward $12 $-1 #
-30 coedge $-1 -1 -1 $-1 $48 $42 $20 $31 reversed $49 $-1 #
-31 edge $-1 -1 -1 $-1 $50 0 $51 4.7999999999999998 $20 $52 forward @7 unknown T 0 0 4.7999999999999998 0 4.7999999999999998 4.7999999999999998 #
-32 cface $-1 -1 $53 $9 $54 0 #
-33 face $55 -1 -1 $-1 $54 $56 $6 $-1 $57 forward single T 0.96000000000000008 3.8399999999999999 0 1.9200000000000002 3.8399999999999999 4.7999999999999998 F #
-34 cface $-1 -1 $15 $9 $58 0 #
-35 cface_ptr-ct-attrib $-1 -1 $-1 $-1 $24 1 1 1 1 1 1 1 1 1 1 1 1 0 1 0 1 1 1 $-1 $59 #
-36 face $60 -1 -1 $-1 $33 $61 $6 $-1 $62 forward single T 1.9200000000000002 2.8799999999999999 0 1.9200000000000002 3.8399999999999999 4.7999999999999998 F #
-37 loop $-1 -1 -1 $-1 $-1 $63 $24 T 0 0 0 4.7999999999999998 0 4.7999999999999998 periphery $38 F #
-38 plane-surface $-1 -1 -1 $-1 2.3999999999999999 0 0 0 -1 0 1 -0 -0 forward_v I I I I #
-39 coedge $-1 -1 -1 $-1 $64 $65 $66 $67 forward $25 $-1 #
-40 coedge $-1 -1 -1 $-1 $68 $27 $65 $69 reversed $18 $-1 #
-41 coedge $-1 -1 -1 $-1 $27 $68 $28 $45 forward $18 $-1 #
-42 coedge $-1 -1 -1 $-1 $30 $66 $27 $43 reversed $49 $-1 #
-43 edge $-1 -1 -1 $-1 $51 0 $70 4.7999999999999998 $27 $71 forward @7 unknown T 0 4.7999999999999998 4.7999999999999998 4.7999999999999998 4.7999999999999998 4.7999999999999998 #
-44 coedge $-1 -1 -1 $-1 $29 $28 $72 $73 reversed $12 $-1 #
-45 edge $-1 -1 -1 $-1 $74 0 $51 4.7999999999999998 $41 $75 forward @7 unknown T 0 4.7999999999999998 0 0 4.7999999999999998 4.7999999999999998 #
-46 coedge $-1 -1 -1 $-1 $76 $63 $29 $47 reversed $37 $-1 #
-47 edge $-1 -1 -1 $-1 $77 0 $50 4.7999999999999998 $29 $78 forward @7 unknown T 0 0 0 0 0 4.7999999999999998 #
-48 coedge $-1 -1 -1 $-1 $66 $30 $63 $79 reversed $49 $-1 #
-49 loop $-1 -1 -1 $-1 $-1 $30 $58 T 0 0 4.7999999999999998 4.7999999999999998 4.7999999999999998 4.7999999999999998 periphery $80 F #
-50 vertex $-1 -1 -1 $-1 $47 $81 #
-51 vertex $-1 -1 -1 $-1 $45 $82 #
-52 straight-curve $-1 -1 -1 $-1 0 0 4.7999999999999998 0 1 0 I I #
-53 cface $-1 -1 $83 $9 $84 0 #
-54 face $85 -1 -1 $-1 $84 $86 $6 $-1 $87 forward single T 0.96000000000000008 2.8799999999999999 0 0.96000000000000008 3.8399999999999999 4.7999999999999998 F #
-55 cface_ptr-ct-attrib $-1 -1 $-1 $-1 $33 1 1 1 1 1 1 1 1 1 1 1 1 0 1 0 1 1 1 $-1 $21 #
-56 loop $-1 -1 -1 $-1 $-1 $88 $33 T 0.96000000000000008 3.8399999999999999 0 1.9200000000000002 3.8399999999999999 4.7999999999999998 periphery $57 F #
-57 plane-surface $-1 -1 -1 $-1 1.4400000000000002 3.8399999999999999 0 0 -1 0 1 0 0 forward_v I I I I #
-58 face $89 -1 -1 $-1 $90 $91 $6 $-1 $80 forward single T 0 0 4.7999999999999998 4.7999999999999998 4.7999999999999998 4.7999999999999998 F #
-59 cface $-1 -1 $92 $9 $24 0 #
-60 cface_ptr-ct-attrib $-1 -1 $-1 $-1 $36 1 1 1 1 1 1 1 1 1 1 1 1 0 1 0 1 1 1 $-1 $83 #
-61 loop $-1 -1 -1 $-1 $-1 $93 $36 T 1.9200000000000002 2.8799999999999999 0 1.9200000000000002 3.8399999999999999 4.7999999999999998 periphery $62 F #
-62 plane-surface $-1 -1 -1 $-1 1.9200000000000002 3.3599999999999999 0 -1 0 0 0 -1 0 forward_v I I I I #
-63 coedge $-1 -1 -1 $-1 $46 $94 $48 $79 forward $37 $-1 #
-64 coedge $-1 -1 -1 $-1 $95 $39 $94 $96 reversed $25 $-1 #
-65 coedge $-1 -1 -1 $-1 $39 $95 $40 $69 forward $25 $-1 #
-66 coedge $-1 -1 -1 $-1 $42 $48 $39 $67 reversed $49 $-1 #
-67 edge $-1 -1 -1 $-1 $70 0 $97 4.7999999999999998 $39 $98 forward @7 unknown T 4.7999999999999998 0 4.7999999999999998 4.7999999999999998 4.7999999999999998 4.7999999999999998 #
-68 coedge $-1 -1 -1 $-1 $41 $40 $99 $100 reversed $18 $-1 #
-69 edge $-1 -1 -1 $-1 $101 0 $70 4.7999999999999998 $65 $102 forward @7 unknown T 4.7999999999999998 4.7999999999999998 0 4.7999999999999998 4.7999999999999998 4.7999999999999998 #
-70 vertex $-1 -1 -1 $-1 $69 $103 #
-71 straight-curve $-1 -1 -1 $-1 0 4.7999999999999998 4.7999999999999998 1 0 0 I I #
-72 coedge $-1 -1 -1 $-1 $99 $104 $44 $73 forward $105 $-1 #
-73 edge $-1 -1 -1 $-1 $77 0 $74 4.7999999999999998 $44 $106 forward @7 unknown T 0 0 0 0 4.7999999999999998 0 #
-74 vertex $-1 -1 -1 $-1 $100 $107 #
-75 straight-curve $-1 -1 -1 $-1 0 4.7999999999999998 0 0 0 1 I I #
-76 coedge $-1 -1 -1 $-1 $94 $46 $104 $108 reversed $37 $-1 #
-77 vertex $-1 -1 -1 $-1 $108 $109 #
-78 straight-curve $-1 -1 -1 $-1 0 0 0 0 0 1 I I #
-79 edge $-1 -1 -1 $-1 $97 0 $50 4.7999999999999998 $63 $110 forward @7 unknown T 0 0 4.7999999999999998 4.7999999999999998 0 4.7999999999999998 #
-80 plane-surface $-1 -1 -1 $-1 2.3999999999999999 2.3999999999999999 4.7999999999999998 0 0 1 1 0 0 forward_v I I I I #
-81 point $-1 -1 -1 $-1 0 0 4.7999999999999998 #
-82 point $-1 -1 -1 $-1 0 4.7999999999999998 4.7999999999999998 #
-83 cface $-1 -1 $111 $9 $36 0 #
-84 face $112 -1 -1 $-1 $113 $114 $6 $-1 $115 forward single T 0.96000000000000008 2.8799999999999999 0 1.9200000000000002 2.8799999999999999 4.7999999999999998 F #
-85 cface_ptr-ct-attrib $-1 -1 $-1 $-1 $54 1 1 1 1 1 1 1 1 1 1 1 1 0 1 0 1 1 1 $-1 $32 #
-86 loop $-1 -1 -1 $-1 $-1 $116 $54 T 0.96000000000000008 2.8799999999999999 0 0.96000000000000008 3.8399999999999999 4.7999999999999998 periphery $87 F #
-87 plane-surface $-1 -1 -1 $-1 0.96000000000000008 3.3599999999999999 0 1 0 0 0 1 0 forward_v I I I I #
-88 coedge $-1 -1 -1 $-1 $117 $118 $119 $120 forward $56 $-1 #
-89 cface_ptr-ct-attrib $-1 -1 $-1 $-1 $58 1 1 1 1 1 1 1 1 1 1 1 1 0 1 0 1 1 1 $-1 $34 #
-90 face $121 -1 -1 $-1 $-1 $122 $6 $-1 $123 reversed single T 0 0 0 4.7999999999999998 4.7999999999999998 0 F #
-91 loop $-1 -1 -1 $-1 $124 $125 $58 T 2.8799999999999999 2.8799999999999999 4.7999999999999998 3.8399999999999999 3.8399999999999999 4.7999999999999998 hole $80 F #
-92 cface $-1 -1 $22 $9 $90 0 #
-93 coedge $-1 -1 -1 $-1 $126 $127 $128 $129 forward $61 $-1 #
-94 coedge $-1 -1 -1 $-1 $63 $76 $64 $96 forward $37 $-1 #
-95 coedge $-1 -1 -1 $-1 $65 $64 $130 $131 reversed $25 $-1 #
-96 edge $-1 -1 -1 $-1 $132 0 $97 4.7999999999999998 $94 $133 forward @7 unknown T 4.7999999999999998 0 0 4.7999999999999998 0 4.7999999999999998 #
-97 vertex $-1 -1 -1 $-1 $96 $134 #
-98 straight-curve $-1 -1 -1 $-1 4.7999999999999998 4.7999999999999998 4.7999999999999998 0 -1 0 I I #
-99 coedge $-1 -1 -1 $-1 $130 $72 $68 $100 forward $105 $-1 #
-100 edge $-1 -1 -1 $-1 $74 0 $101 4.7999999999999998 $68 $135 forward @7 unknown T 0 4.7999999999999998 0 4.7999999999999998 4.7999999999999998 0 #
-101 vertex $-1 -1 -1 $-1 $131 $136 #
-102 straight-curve $-1 -1 -1 $-1 4.7999999999999998 4.7999999999999998 0 0 0 1 I I #
-103 point $-1 -1 -1 $-1 4.7999999999999998 4.7999999999999998 4.7999999999999998 #
-104 coedge $-1 -1 -1 $-1 $72 $130 $76 $108 forward $105 $-1 #
-105 loop $-1 -1 -1 $-1 $-1 $104 $90 T 0 0 0 4.7999999999999998 4.7999999999999998 0 periphery $123 T #
-106 straight-curve $-1 -1 -1 $-1 0 0 0 0 1 0 I I #
-107 point $-1 -1 -1 $-1 0 4.7999999999999998 0 #
-108 edge $-1 -1 -1 $-1 $132 0 $77 4.7999999999999998 $76 $137 forward @7 unknown T 0 0 0 4.7999999999999998 0 0 #
-109 point $-1 -1 -1 $-1 0 0 0 #
-110 straight-curve $-1 -1 -1 $-1 4.7999999999999998 0 4.7999999999999998 -1 0 0 I I #
-111 cface $-1 -1 $138 $9 $139 0 #
-112 cface_ptr-ct-attrib $-1 -1 $-1 $-1 $84 1 1 1 1 1 1 1 1 1 1 1 1 0 1 0 1 1 1 $-1 $53 #
-113 face $140 -1 -1 $-1 $139 $141 $6 $-1 $142 forward single T 3.8399999999999999 0.95999999999999996 0 3.8399999999999999 1.9199999999999999 4.7999999999999998 F #
-114 loop $-1 -1 -1 $-1 $-1 $143 $84 T 0.96000000000000008 2.8799999999999999 0 1.9200000000000002 2.8799999999999999 4.7999999999999998 periphery $115 F #
-115 plane-surface $-1 -1 -1 $-1 1.4400000000000002 2.8799999999999999 0 0 1 -0 -1 0 0 forward_v I I I I #
-116 coedge $-1 -1 -1 $-1 $144 $145 $146 $147 forward $86 $-1 #
-117 coedge $-1 -1 -1 $-1 $148 $88 $145 $149 reversed $56 $-1 #
-118 coedge $-1 -1 -1 $-1 $88 $148 $126 $150 forward $56 $-1 #
-119 coedge $-1 -1 -1 $-1 $128 $146 $88 $120 reversed $151 $-1 #
-120 edge $-1 -1 -1 $-1 $152 -0.96000000000000008 $153 -0 $88 $154 forward @7 unknown T 0.96000000000000008 3.8399999999999999 4.7999999999999998 1.9200000000000002 3.8399999999999999 4.7999999999999998 #
-121 cface_ptr-ct-attrib $-1 -1 $-1 $-1 $90 1 1 1 1 1 1 1 1 1 1 1 1 0 1 0 1 1 1 $-1 $92 #
-122 loop $-1 -1 -1 $-1 $155 $156 $90 T 2.8799999999999999 2.8799999999999999 0 3.8399999999999999 3.8399999999999999 0 hole $123 T #
-123 plane-surface $-1 -1 -1 $-1 2.3999999999999999 2.3999999999999999 0 0 0 1 1 0 0 forward_v I I I I #
-124 loop $-1 -1 -1 $-1 $157 $158 $58 T 0.95999999999999996 0.95999999999999996 4.7999999999999998 1.9199999999999999 1.9199999999999999 4.7999999999999998 hole $80 F #
-125 coedge $-1 -1 -1 $-1 $159 $160 $161 $162 reversed $91 $-1 #
-126 coedge $-1 -1 -1 $-1 $163 $93 $118 $150 reversed $61 $-1 #
-127 coedge $-1 -1 -1 $-1 $93 $163 $164 $165 forward $61 $-1 #
-128 coedge $-1 -1 -1 $-1 $166 $119 $93 $129 reversed $151 $-1 #
-129 edge $-1 -1 -1 $-1 $167 -0.95999999999999996 $152 0 $93 $168 forward @7 unknown T 1.9200000000000002 2.8799999999999999 4.7999999999999998 1.9200000000000002 3.8399999999999999 4.7999999999999998 #
-130 coedge $-1 -1 -1 $-1 $104 $99 $95 $131 forward $105 $-1 #
-131 edge $-1 -1 -1 $-1 $101 0 $132 4.7999999999999998 $95 $169 forward @7 unknown T 4.7999999999999998 0 0 4.7999999999999998 4.7999999999999998 0 #
-132 vertex $-1 -1 -1 $-1 $108 $170 #
-133 straight-curve $-1 -1 -1 $-1 4.7999999999999998 0 0 0 0 1 I I #
-134 point $-1 -1 -1 $-1 4.7999999999999998 0 4.7999999999999998 #
-135 straight-curve $-1 -1 -1 $-1 0 4.7999999999999998 0 1 0 0 I I #
-136 point $-1 -1 -1 $-1 4.7999999999999998 4.7999999999999998 0 #
-137 straight-curve $-1 -1 -1 $-1 4.7999999999999998 0 0 -1 0 0 I I #
-138 cface $-1 -1 $171 $9 $172 0 #
-139 face $173 -1 -1 $-1 $172 $174 $6 $-1 $175 forward single T 2.8799999999999999 1.9199999999999999 0 3.8399999999999999 1.9199999999999999 4.7999999999999998 F #
-140 cface_ptr-ct-attrib $-1 -1 $-1 $-1 $113 1 1 1 1 1 1 1 1 1 1 1 1 0 1 0 1 1 1 $-1 $176 #
-141 loop $-1 -1 -1 $-1 $-1 $177 $113 T 3.8399999999999999 0.95999999999999996 0 3.8399999999999999 1.9199999999999999 4.7999999999999998 periphery $142 F #
-142 plane-surface $-1 -1 -1 $-1 3.8399999999999999 1.4399999999999999 0 -1 0 0 0 -1 0 forward_v I I I I #
-143 coedge $-1 -1 -1 $-1 $164 $178 $166 $179 forward $114 $-1 #
-144 coedge $-1 -1 -1 $-1 $180 $116 $178 $181 reversed $86 $-1 #
-145 coedge $-1 -1 -1 $-1 $116 $180 $117 $149 forward $86 $-1 #
-146 coedge $-1 -1 -1 $-1 $119 $166 $116 $147 reversed $151 $-1 #
-147 edge $-1 -1 -1 $-1 $153 -0.95999999999999996 $182 -0 $116 $183 forward @7 unknown T 0.96000000000000008 2.8799999999999999 4.7999999999999998 0.96000000000000008 3.8399999999999999 4.7999999999999998 #
-148 coedge $-1 -1 -1 $-1 $118 $117 $184 $185 forward $56 $-1 #
-149 edge $-1 -1 -1 $-1 $186 0 $153 4.7999999999999998 $145 $187 forward @7 unknown T 0.96000000000000008 3.8399999999999999 0 0.96000000000000008 3.8399999999999999 4.7999999999999998 #
-150 edge $-1 -1 -1 $-1 $188 0 $152 4.7999999999999998 $118 $189 forward @7 unknown T 1.9200000000000002 3.8399999999999999 0 1.9200000000000002 3.8399999999999999 4.7999999999999998 #
-151 loop $-1 -1 -1 $-1 $49 $128 $58 T 0.96000000000000008 2.8799999999999999 4.7999999999999998 1.9200000000000002 3.8399999999999999 4.7999999999999998 hole $80 F #
-152 vertex $-1 -1 -1 $-1 $150 $190 #
-153 vertex $-1 -1 -1 $-1 $149 $191 #
-154 straight-curve $-1 -1 -1 $-1 0.96000000000000008 3.8399999999999999 4.7999999999999998 -1 -0 -0 I I #
-155 loop $-1 -1 -1 $-1 $192 $193 $90 T 0.95999999999999996 0.95999999999999996 0 1.9199999999999999 1.9199999999999999 0 hole $123 T #
-156 coedge $-1 -1 -1 $-1 $194 $195 $196 $197 reversed $122 $-1 #
-157 loop $-1 -1 -1 $-1 $151 $198 $58 T 2.8799999999999999 0.95999999999999996 4.7999999999999998 3.8399999999999999 1.9199999999999999 4.7999999999999998 hole $80 F #
-158 coedge $-1 -1 -1 $-1 $199 $200 $201 $202 reversed $124 $-1 #
-159 coedge $-1 -1 -1 $-1 $203 $125 $204 $205 reversed $91 $-1 #
-160 coedge $-1 -1 -1 $-1 $125 $203 $206 $207 reversed $91 $-1 #
-161 coedge $-1 -1 -1 $-1 $208 $209 $125 $162 forward $210 $-1 #
-162 edge $-1 -1 -1 $-1 $211 -0.95999999999999996 $212 0 $161 $213 forward @7 unknown T 3.8399999999999999 2.8799999999999999 4.7999999999999998 3.8399999999999999 3.8399999999999999 4.7999999999999998 #
-163 coedge $-1 -1 -1 $-1 $127 $126 $214 $215 forward $61 $-1 #
-164 coedge $-1 -1 -1 $-1 $216 $143 $127 $165 reversed $114 $-1 #
-165 edge $-1 -1 -1 $-1 $217 0 $167 4.7999999999999998 $127 $218 forward @7 unknown T 1.9200000000000002 2.8799999999999999 0 1.9200000000000002 2.8799999999999999 4.7999999999999998 #
-166 coedge $-1 -1 -1 $-1 $146 $128 $143 $179 reversed $151 $-1 #
-167 vertex $-1 -1 -1 $-1 $165 $219 #
-168 straight-curve $-1 -1 -1 $-1 1.9200000000000002 3.8399999999999999 4.7999999999999998 0 1 0 I I #
-169 straight-curve $-1 -1 -1 $-1 4.7999999999999998 4.7999999999999998 0 0 -1 0 I I #
-170 point $-1 -1 -1 $-1 4.7999999999999998 0 0 #
-171 cface $-1 -1 $176 $9 $220 0 #
-172 face $221 -1 -1 $-1 $220 $222 $6 $-1 $223 forward single T 2.8799999999999999 0.95999999999999996 0 2.8799999999999999 1.9199999999999999 4.7999999999999998 F #
-173 cface_ptr-ct-attrib $-1 -1 $-1 $-1 $139 1 1 1 1 1 1 1 1 1 1 1 1 0 1 0 1 1 1 $-1 $111 #
-174 loop $-1 -1 -1 $-1 $-1 $224 $139 T 2.8799999999999999 1.9199999999999999 0 3.8399999999999999 1.9199999999999999 4.7999999999999998 periphery $175 F #
-175 plane-surface $-1 -1 -1 $-1 3.3599999999999999 1.9199999999999999 0 0 -1 0 1 0 0 forward_v I I I I #
-176 cface $-1 -1 $225 $9 $113 0 #
-177 coedge $-1 -1 -1 $-1 $226 $227 $198 $228 forward $141 $-1 #
-178 coedge $-1 -1 -1 $-1 $143 $216 $144 $181 forward $114 $-1 #
-179 edge $-1 -1 -1 $-1 $182 -0.96000000000000008 $167 0 $143 $229 forward @7 unknown T 0.96000000000000008 2.8799999999999999 4.7999999999999998 1.9200000000000002 2.8799999999999999 4.7999999999999998 #
-180 coedge $-1 -1 -1 $-1 $145 $144 $230 $231 forward $86 $-1 #
-181 edge $-1 -1 -1 $-1 $232 0 $182 4.7999999999999998 $178 $233 forward @7 unknown T 0.96000000000000008 2.8799999999999999 0 0.96000000000000008 2.8799999999999999 4.7999999999999998 #
-182 vertex $-1 -1 -1 $-1 $181 $234 #
-183 straight-curve $-1 -1 -1 $-1 0.96000000000000008 2.8799999999999999 4.7999999999999998 -0 -1 -0 I I #
-184 coedge $-1 -1 -1 $-1 $230 $214 $148 $185 reversed $235 $-1 #
-185 edge $-1 -1 -1 $-1 $186 0 $188 0.96000000000000008 $148 $236 forward @7 unknown T 0.96000000000000008 3.8399999999999999 0 1.9200000000000002 3.8399999999999999 0 #
-186 vertex $-1 -1 -1 $-1 $185 $237 #
-187 straight-curve $-1 -1 -1 $-1 0.96000000000000008 3.8399999999999999 0 0 0 1 I I #
-188 vertex $-1 -1 -1 $-1 $215 $238 #
-189 straight-curve $-1 -1 -1 $-1 1.9200000000000002 3.8399999999999999 0 0 0 1 I I #
-190 point $-1 -1 -1 $-1 1.9200000000000002 3.8399999999999999 4.7999999999999998 #
-191 point $-1 -1 -1 $-1 0.96000000000000008 3.8399999999999999 4.7999999999999998 #
-192 loop $-1 -1 -1 $-1 $235 $239 $90 T 2.8799999999999999 0.95999999999999996 0 3.8399999999999999 1.9199999999999999 0 hole $123 T #
-193 coedge $-1 -1 -1 $-1 $240 $241 $242 $243 reversed $155 $-1 #
-194 coedge $-1 -1 -1 $-1 $244 $156 $245 $246 reversed $122 $-1 #
-195 coedge $-1 -1 -1 $-1 $156 $244 $247 $248 reversed $122 $-1 #
-196 coedge $-1 -1 -1 $-1 $249 $250 $156 $197 forward $251 $-1 #
-197 edge $-1 -1 -1 $-1 $252 0 $253 0.95999999999999996 $196 $254 forward @7 unknown T 2.8799999999999999 2.8799999999999999 0 3.8399999999999999 2.8799999999999999 0 #
-198 coedge $-1 -1 -1 $-1 $255 $256 $177 $228 reversed $157 $-1 #
-199 coedge $-1 -1 -1 $-1 $257 $158 $258 $259 reversed $124 $-1 #
-200 coedge $-1 -1 -1 $-1 $158 $257 $260 $261 reversed $124 $-1 #
-201 coedge $-1 -1 -1 $-1 $262 $263 $158 $202 forward $264 $-1 #
-202 edge $-1 -1 -1 $-1 $265 -0.95999999999999996 $266 0 $201 $267 forward @7 unknown T 1.9199999999999999 0.95999999999999996 4.7999999999999998 1.9199999999999999 1.9199999999999999 4.7999999999999998 #
-203 coedge $-1 -1 -1 $-1 $160 $159 $268 $269 reversed $91 $-1 #
-204 coedge $-1 -1 -1 $-1 $250 $249 $159 $205 forward $251 $-1 #
-205 edge $-1 -1 -1 $-1 $270 -0.95999999999999996 $211 0 $204 $271 forward @7 unknown T 2.8799999999999999 2.8799999999999999 4.7999999999999998 3.8399999999999999 2.8799999999999999 4.7999999999999998 #
-206 coedge $-1 -1 -1 $-1 $272 $273 $160 $207 forward $274 $-1 #
-207 edge $-1 -1 -1 $-1 $212 -0.95999999999999996 $275 -0 $206 $276 forward @7 unknown T 2.8799999999999999 3.8399999999999999 4.7999999999999998 3.8399999999999999 3.8399999999999999 4.7999999999999998 #
-208 coedge $-1 -1 -1 $-1 $245 $161 $273 $277 reversed $210 $-1 #
-209 coedge $-1 -1 -1 $-1 $161 $245 $250 $278 forward $210 $-1 #
-210 loop $-1 -1 -1 $-1 $-1 $161 $279 T 3.8399999999999999 2.8799999999999999 0 3.8399999999999999 3.8399999999999999 4.7999999999999998 periphery $280 F #
-211 vertex $-1 -1 -1 $-1 $278 $281 #
-212 vertex $-1 -1 -1 $-1 $277 $282 #
-213 straight-curve $-1 -1 -1 $-1 3.8399999999999999 3.8399999999999999 4.7999999999999998 0 1 0 I I #
-214 coedge $-1 -1 -1 $-1 $184 $283 $163 $215 reversed $235 $-1 #
-215 edge $-1 -1 -1 $-1 $188 0 $217 0.95999999999999996 $163 $284 forward @7 unknown T 1.9200000000000002 2.8799999999999999 0 1.9200000000000002 3.8399999999999999 0 #
-216 coedge $-1 -1 -1 $-1 $178 $164 $283 $285 forward $114 $-1 #
-217 vertex $-1 -1 -1 $-1 $285 $286 #
-218 straight-curve $-1 -1 -1 $-1 1.9200000000000002 2.8799999999999999 0 0 0 1 I I #
-219 point $-1 -1 -1 $-1 1.9200000000000002 2.8799999999999999 4.7999999999999998 #
-220 face $287 -1 -1 $-1 $288 $289 $6 $-1 $290 forward single T 2.8799999999999999 0.95999999999999996 0 3.8399999999999999 0.95999999999999996 4.7999999999999998 F #
-221 cface_ptr-ct-attrib $-1 -1 $-1 $-1 $172 1 1 1 1 1 1 1 1 1 1 1 1 0 1 0 1 1 1 $-1 $138 #
-222 loop $-1 -1 -1 $-1 $-1 $291 $172 T 2.8799999999999999 0.95999999999999996 0 2.8799999999999999 1.9199999999999999 4.7999999999999998 periphery $223 F #
-223 plane-surface $-1 -1 -1 $-1 2.8799999999999999 1.4399999999999999 0 1 0 0 0 1 0 forward_v I I I I #
-224 coedge $-1 -1 -1 $-1 $292 $293 $256 $294 forward $174 $-1 #
-225 cface $-1 -1 $295 $9 $296 0 #
-226 coedge $-1 -1 -1 $-1 $297 $177 $293 $298 reversed $141 $-1 #
-227 coedge $-1 -1 -1 $-1 $177 $297 $299 $300 forward $141 $-1 #
-228 edge $-1 -1 -1 $-1 $301 -0.95999999999999996 $302 0 $177 $303 forward @7 unknown T 3.8399999999999999 0.95999999999999996 4.7999999999999998 3.8399999999999999 1.9199999999999999 4.7999999999999998 #
-229 straight-curve $-1 -1 -1 $-1 1.9200000000000002 2.8799999999999999 4.7999999999999998 1 0 0 I I #
-230 coedge $-1 -1 -1 $-1 $283 $184 $180 $231 reversed $235 $-1 #
-231 edge $-1 -1 -1 $-1 $232 0 $186 0.95999999999999996 $180 $304 forward @7 unknown T 0.96000000000000008 2.8799999999999999 0 0.96000000000000008 3.8399999999999999 0 #
-232 vertex $-1 -1 -1 $-1 $285 $305 #
-233 straight-curve $-1 -1 -1 $-1 0.96000000000000008 2.8799999999999999 0 0 0 1 I I #
-234 point $-1 -1 -1 $-1 0.96000000000000008 2.8799999999999999 4.7999999999999998 #
-235 loop $-1 -1 -1 $-1 $105 $283 $90 T 0.96000000000000008 2.8799999999999999 0 1.9200000000000002 3.8399999999999999 0 hole $123 T #
-236 straight-curve $-1 -1 -1 $-1 0.96000000000000008 3.8399999999999999 0 1 0 0 I I #
-237 point $-1 -1 -1 $-1 0.96000000000000008 3.8399999999999999 0 #
-238 point $-1 -1 -1 $-1 1.9200000000000002 3.8399999999999999 0 #
-239 coedge $-1 -1 -1 $-1 $306 $307 $308 $309 reversed $192 $-1 #
-240 coedge $-1 -1 -1 $-1 $310 $193 $311 $312 reversed $155 $-1 #
-241 coedge $-1 -1 -1 $-1 $193 $310 $313 $314 reversed $155 $-1 #
-242 coedge $-1 -1 -1 $-1 $315 $316 $193 $243 forward $317 $-1 #
-243 edge $-1 -1 -1 $-1 $318 0 $319 0.95999999999999996 $242 $320 forward @7 unknown T 0.95999999999999996 0.95999999999999996 0 1.9199999999999999 0.95999999999999996 0 #
-244 coedge $-1 -1 -1 $-1 $195 $194 $321 $322 reversed $122 $-1 #
-245 coedge $-1 -1 -1 $-1 $209 $208 $194 $246 forward $210 $-1 #
-246 edge $-1 -1 -1 $-1 $323 0 $252 0.95999999999999996 $245 $324 forward @7 unknown T 3.8399999999999999 2.8799999999999999 0 3.8399999999999999 3.8399999999999999 0 #
-247 coedge $-1 -1 -1 $-1 $325 $326 $195 $248 forward $327 $-1 #
-248 edge $-1 -1 -1 $-1 $253 0 $328 0.95999999999999996 $247 $329 forward @7 unknown T 2.8799999999999999 2.8799999999999999 0 2.8799999999999999 3.8399999999999999 0 #
-249 coedge $-1 -1 -1 $-1 $204 $196 $326 $330 forward $251 $-1 #
-250 coedge $-1 -1 -1 $-1 $196 $204 $209 $278 reversed $251 $-1 #
-251 loop $-1 -1 -1 $-1 $-1 $204 $331 T 2.8799999999999999 2.8799999999999999 0 3.8399999999999999 2.8799999999999999 4.7999999999999998 periphery $332 F #
-252 vertex $-1 -1 -1 $-1 $197 $333 #
-253 vertex $-1 -1 -1 $-1 $197 $334 #
-254 straight-curve $-1 -1 -1 $-1 3.8399999999999999 2.8799999999999999 0 -1 0 0 I I #
-255 coedge $-1 -1 -1 $-1 $335 $198 $336 $337 reversed $157 $-1 #
-256 coedge $-1 -1 -1 $-1 $198 $335 $224 $294 reversed $157 $-1 #
-257 coedge $-1 -1 -1 $-1 $200 $199 $338 $339 reversed $124 $-1 #
-258 coedge $-1 -1 -1 $-1 $316 $315 $199 $259 forward $317 $-1 #
-259 edge $-1 -1 -1 $-1 $340 -0.95999999999999996 $265 0 $258 $341 forward @7 unknown T 0.95999999999999996 0.95999999999999996 4.7999999999999998 1.9199999999999999 0.95999999999999996 4.7999999999999998 #
-260 coedge $-1 -1 -1 $-1 $342 $343 $200 $261 forward $344 $-1 #
-261 edge $-1 -1 -1 $-1 $266 -0.95999999999999996 $345 -0 $260 $346 forward @7 unknown T 0.95999999999999996 1.9199999999999999 4.7999999999999998 1.9199999999999999 1.9199999999999999 4.7999999999999998 #
-262 coedge $-1 -1 -1 $-1 $311 $201 $343 $347 reversed $264 $-1 #
-263 coedge $-1 -1 -1 $-1 $201 $311 $316 $348 forward $264 $-1 #
-264 loop $-1 -1 -1 $-1 $-1 $201 $288 T 1.9199999999999999 0.95999999999999996 0 1.9199999999999999 1.9199999999999999 4.7999999999999998 periphery $349 F #
-265 vertex $-1 -1 -1 $-1 $348 $350 #
-266 vertex $-1 -1 -1 $-1 $347 $351 #
-267 straight-curve $-1 -1 -1 $-1 1.9199999999999999 1.9199999999999999 4.7999999999999998 0 1 0 I I #
-268 coedge $-1 -1 -1 $-1 $326 $325 $203 $269 forward $327 $-1 #
-269 edge $-1 -1 -1 $-1 $275 -0.95999999999999996 $270 -0 $268 $352 forward @7 unknown T 2.8799999999999999 2.8799999999999999 4.7999999999999998 2.8799999999999999 3.8399999999999999 4.7999999999999998 #
-270 vertex $-1 -1 -1 $-1 $330 $353 #
-271 straight-curve $-1 -1 -1 $-1 3.8399999999999999 2.8799999999999999 4.7999999999999998 1 0 0 I I #
-272 coedge $-1 -1 -1 $-1 $321 $206 $325 $354 reversed $274 $-1 #
-273 coedge $-1 -1 -1 $-1 $206 $321 $208 $277 forward $274 $-1 #
-274 loop $-1 -1 -1 $-1 $-1 $206 $355 T 2.8799999999999999 3.8399999999999999 0 3.8399999999999999 3.8399999999999999 4.7999999999999998 periphery $356 F #
-275 vertex $-1 -1 -1 $-1 $354 $357 #
-276 straight-curve $-1 -1 -1 $-1 2.8799999999999999 3.8399999999999999 4.7999999999999998 -1 -0 -0 I I #
-277 edge $-1 -1 -1 $-1 $323 0 $212 4.7999999999999998 $273 $358 forward @7 unknown T 3.8399999999999999 3.8399999999999999 0 3.8399999999999999 3.8399999999999999 4.7999999999999998 #
-278 edge $-1 -1 -1 $-1 $252 0 $211 4.7999999999999998 $209 $359 forward @7 unknown T 3.8399999999999999 2.8799999999999999 0 3.8399999999999999 2.8799999999999999 4.7999999999999998 #
-279 face $360 -1 -1 $-1 $355 $210 $6 $-1 $280 forward single T 3.8399999999999999 2.8799999999999999 0 3.8399999999999999 3.8399999999999999 4.7999999999999998 F #
-280 plane-surface $-1 -1 -1 $-1 3.8399999999999999 3.3599999999999999 0 -1 0 0 0 -1 0 forward_v I I I I #
-281 point $-1 -1 -1 $-1 3.8399999999999999 2.8799999999999999 4.7999999999999998 #
-282 point $-1 -1 -1 $-1 3.8399999999999999 3.8399999999999999 4.7999999999999998 #
-283 coedge $-1 -1 -1 $-1 $214 $230 $216 $285 reversed $235 $-1 #
-284 straight-curve $-1 -1 -1 $-1 1.9200000000000002 3.8399999999999999 0 0 -1 0 I I #
-285 edge $-1 -1 -1 $-1 $217 0 $232 0.96000000000000008 $216 $361 forward @7 unknown T 0.96000000000000008 2.8799999999999999 0 1.9200000000000002 2.8799999999999999 0 #
-286 point $-1 -1 -1 $-1 1.9200000000000002 2.8799999999999999 0 #
-287 cface_ptr-ct-attrib $-1 -1 $-1 $-1 $220 1 1 1 1 1 1 1 1 1 1 1 1 0 1 0 1 1 1 $-1 $171 #
-288 face $362 -1 -1 $-1 $296 $264 $6 $-1 $349 forward single T 1.9199999999999999 0.95999999999999996 0 1.9199999999999999 1.9199999999999999 4.7999999999999998 F #
-289 loop $-1 -1 -1 $-1 $-1 $336 $220 T 2.8799999999999999 0.95999999999999996 0 3.8399999999999999 0.95999999999999996 4.7999999999999998 periphery $290 F #
-290 plane-surface $-1 -1 -1 $-1 3.3599999999999999 0.95999999999999996 0 0 1 -0 -1 0 0 forward_v I I I I #
-291 coedge $-1 -1 -1 $-1 $363 $364 $335 $365 forward $222 $-1 #
-292 coedge $-1 -1 -1 $-1 $366 $224 $364 $367 reversed $174 $-1 #
-293 coedge $-1 -1 -1 $-1 $224 $366 $226 $298 forward $174 $-1 #
-294 edge $-1 -1 -1 $-1 $302 -0.95999999999999996 $368 -0 $224 $369 forward @7 unknown T 2.8799999999999999 1.9199999999999999 4.7999999999999998 3.8399999999999999 1.9199999999999999 4.7999999999999998 #
-295 cface $-1 -1 $370 $9 $371 0 #
-296 face $372 -1 -1 $-1 $371 $344 $6 $-1 $373 forward single T 0.95999999999999996 1.9199999999999999 0 1.9199999999999999 1.9199999999999999 4.7999999999999998 F #
-297 coedge $-1 -1 -1 $-1 $227 $226 $306 $374 forward $141 $-1 #
-298 edge $-1 -1 -1 $-1 $375 0 $302 4.7999999999999998 $293 $376 forward @7 unknown T 3.8399999999999999 1.9199999999999999 0 3.8399999999999999 1.9199999999999999 4.7999999999999998 #
-299 coedge $-1 -1 -1 $-1 $308 $336 $227 $300 reversed $289 $-1 #
-300 edge $-1 -1 -1 $-1 $377 0 $301 4.7999999999999998 $227 $378 forward @7 unknown T 3.8399999999999999 0.95999999999999996 0 3.8399999999999999 0.95999999999999996 4.7999999999999998 #
-301 vertex $-1 -1 -1 $-1 $300 $379 #
-302 vertex $-1 -1 -1 $-1 $298 $380 #
-303 straight-curve $-1 -1 -1 $-1 3.8399999999999999 1.9199999999999999 4.7999999999999998 0 1 0 I I #
-304 straight-curve $-1 -1 -1 $-1 0.96000000000000008 2.8799999999999999 0 0 1 0 I I #
-305 point $-1 -1 -1 $-1 0.96000000000000008 2.8799999999999999 0 #
-306 coedge $-1 -1 -1 $-1 $381 $239 $297 $374 reversed $192 $-1 #
-307 coedge $-1 -1 -1 $-1 $239 $381 $382 $383 reversed $192 $-1 #
-308 coedge $-1 -1 -1 $-1 $384 $299 $239 $309 forward $289 $-1 #
-309 edge $-1 -1 -1 $-1 $377 0 $385 0.95999999999999996 $308 $386 forward @7 unknown T 2.8799999999999999 0.95999999999999996 0 3.8399999999999999 0.95999999999999996 0 #
-310 coedge $-1 -1 -1 $-1 $241 $240 $387 $388 reversed $155 $-1 #
-311 coedge $-1 -1 -1 $-1 $263 $262 $240 $312 forward $264 $-1 #
-312 edge $-1 -1 -1 $-1 $389 0 $318 0.95999999999999996 $311 $390 forward @7 unknown T 1.9199999999999999 0.95999999999999996 0 1.9199999999999999 1.9199999999999999 0 #
-313 coedge $-1 -1 -1 $-1 $391 $392 $241 $314 forward $393 $-1 #
-314 edge $-1 -1 -1 $-1 $319 0 $394 0.95999999999999996 $313 $395 forward @7 unknown T 0.95999999999999996 0.95999999999999996 0 0.95999999999999996 1.9199999999999999 0 #
-315 coedge $-1 -1 -1 $-1 $258 $242 $392 $396 forward $317 $-1 #
-316 coedge $-1 -1 -1 $-1 $242 $258 $263 $348 reversed $317 $-1 #
-317 loop $-1 -1 -1 $-1 $-1 $258 $397 T 0.95999999999999996 0.95999999999999996 0 1.9199999999999999 0.95999999999999996 4.7999999999999998 periphery $398 F #
-318 vertex $-1 -1 -1 $-1 $243 $399 #
-319 vertex $-1 -1 -1 $-1 $243 $400 #
-320 straight-curve $-1 -1 -1 $-1 1.9199999999999999 0.95999999999999996 0 -1 0 0 I I #
-321 coedge $-1 -1 -1 $-1 $273 $272 $244 $322 forward $274 $-1 #
-322 edge $-1 -1 -1 $-1 $328 0 $323 0.95999999999999996 $321 $401 forward @7 unknown T 2.8799999999999999 3.8399999999999999 0 3.8399999999999999 3.8399999999999999 0 #
-323 vertex $-1 -1 -1 $-1 $246 $402 #
-324 straight-curve $-1 -1 -1 $-1 3.8399999999999999 3.8399999999999999 0 0 -1 0 I I #
-325 coedge $-1 -1 -1 $-1 $268 $247 $272 $354 forward $327 $-1 #
-326 coedge $-1 -1 -1 $-1 $247 $268 $249 $330 reversed $327 $-1 #
-327 loop $-1 -1 -1 $-1 $-1 $268 $403 T 2.8799999999999999 2.8799999999999999 0 2.8799999999999999 3.8399999999999999 4.7999999999999998 periphery $404 F #
-328 vertex $-1 -1 -1 $-1 $322 $405 #
-329 straight-curve $-1 -1 -1 $-1 2.8799999999999999 2.8799999999999999 0 0 1 0 I I #
-330 edge $-1 -1 -1 $-1 $253 0 $270 4.7999999999999998 $249 $406 forward @7 unknown T 2.8799999999999999 2.8799999999999999 0 2.8799999999999999 2.8799999999999999 4.7999999999999998 #
-331 face $407 -1 -1 $-1 $58 $251 $6 $-1 $332 forward single T 2.8799999999999999 2.8799999999999999 0 3.8399999999999999 2.8799999999999999 4.7999999999999998 F #
-332 plane-surface $-1 -1 -1 $-1 3.3599999999999999 2.8799999999999999 0 0 1 -0 -1 0 0 forward_v I I I I #
-333 point $-1 -1 -1 $-1 3.8399999999999999 2.8799999999999999 0 #
-334 point $-1 -1 -1 $-1 2.8799999999999999 2.8799999999999999 0 #
-335 coedge $-1 -1 -1 $-1 $256 $255 $291 $365 reversed $157 $-1 #
-336 coedge $-1 -1 -1 $-1 $299 $384 $255 $337 forward $289 $-1 #
-337 edge $-1 -1 -1 $-1 $408 -0.95999999999999996 $301 0 $336 $409 forward @7 unknown T 2.8799999999999999 0.95999999999999996 4.7999999999999998 3.8399999999999999 0.95999999999999996 4.7999999999999998 #
-338 coedge $-1 -1 -1 $-1 $392 $391 $257 $339 forward $393 $-1 #
-339 edge $-1 -1 -1 $-1 $345 -0.95999999999999996 $340 -0 $338 $410 forward @7 unknown T 0.95999999999999996 0.95999999999999996 4.7999999999999998 0.95999999999999996 1.9199999999999999 4.7999999999999998 #
-340 vertex $-1 -1 -1 $-1 $396 $411 #
-341 straight-curve $-1 -1 -1 $-1 1.9199999999999999 0.95999999999999996 4.7999999999999998 1 0 0 I I #
-342 coedge $-1 -1 -1 $-1 $387 $260 $391 $412 reversed $344 $-1 #
-343 coedge $-1 -1 -1 $-1 $260 $387 $262 $347 forward $344 $-1 #
-344 loop $-1 -1 -1 $-1 $-1 $260 $296 T 0.95999999999999996 1.9199999999999999 0 1.9199999999999999 1.9199999999999999 4.7999999999999998 periphery $373 F #
-345 vertex $-1 -1 -1 $-1 $412 $413 #
-346 straight-curve $-1 -1 -1 $-1 0.95999999999999996 1.9199999999999999 4.7999999999999998 -1 -0 -0 I I #
-347 edge $-1 -1 -1 $-1 $389 0 $266 4.7999999999999998 $343 $414 forward @7 unknown T 1.9199999999999999 1.9199999999999999 0 1.9199999999999999 1.9199999999999999 4.7999999999999998 #
-348 edge $-1 -1 -1 $-1 $318 0 $265 4.7999999999999998 $263 $415 forward @7 unknown T 1.9199999999999999 0.95999999999999996 0 1.9199999999999999 0.95999999999999996 4.7999999999999998 #
-349 plane-surface $-1 -1 -1 $-1 1.9199999999999999 1.4399999999999999 0 -1 0 0 0 -1 0 forward_v I I I I #
-350 point $-1 -1 -1 $-1 1.9199999999999999 0.95999999999999996 4.7999999999999998 #
-351 point $-1 -1 -1 $-1 1.9199999999999999 1.9199999999999999 4.7999999999999998 #
-352 straight-curve $-1 -1 -1 $-1 2.8799999999999999 2.8799999999999999 4.7999999999999998 -0 -1 -0 I I #
-353 point $-1 -1 -1 $-1 2.8799999999999999 2.8799999999999999 4.7999999999999998 #
-354 edge $-1 -1 -1 $-1 $328 0 $275 4.7999999999999998 $325 $416 forward @7 unknown T 2.8799999999999999 3.8399999999999999 0 2.8799999999999999 3.8399999999999999 4.7999999999999998 #
-355 face $417 -1 -1 $-1 $403 $274 $6 $-1 $356 forward single T 2.8799999999999999 3.8399999999999999 0 3.8399999999999999 3.8399999999999999 4.7999999999999998 F #
-356 plane-surface $-1 -1 -1 $-1 3.3599999999999999 3.8399999999999999 0 0 -1 0 1 0 0 forward_v I I I I #
-357 point $-1 -1 -1 $-1 2.8799999999999999 3.8399999999999999 4.7999999999999998 #
-358 straight-curve $-1 -1 -1 $-1 3.8399999999999999 3.8399999999999999 0 0 0 1 I I #
-359 straight-curve $-1 -1 -1 $-1 3.8399999999999999 2.8799999999999999 0 0 0 1 I I #
-360 cface_ptr-ct-attrib $-1 -1 $-1 $-1 $279 1 1 1 1 1 1 1 1 1 1 1 1 0 1 0 1 1 1 $-1 $418 #
-361 straight-curve $-1 -1 -1 $-1 1.9200000000000002 2.8799999999999999 0 -1 0 0 I I #
-362 cface_ptr-ct-attrib $-1 -1 $-1 $-1 $288 1 1 1 1 1 1 1 1 1 1 1 1 0 1 0 1 1 1 $-1 $419 #
-363 coedge $-1 -1 -1 $-1 $382 $291 $384 $420 reversed $222 $-1 #
-364 coedge $-1 -1 -1 $-1 $291 $382 $292 $367 forward $222 $-1 #
-365 edge $-1 -1 -1 $-1 $368 -0.95999999999999996 $408 -0 $291 $421 forward @7 unknown T 2.8799999999999999 0.95999999999999996 4.7999999999999998 2.8799999999999999 1.9199999999999999 4.7999999999999998 #
-366 coedge $-1 -1 -1 $-1 $293 $292 $381 $422 forward $174 $-1 #
-367 edge $-1 -1 -1 $-1 $423 0 $368 4.7999999999999998 $364 $424 forward @7 unknown T 2.8799999999999999 1.9199999999999999 0 2.8799999999999999 1.9199999999999999 4.7999999999999998 #
-368 vertex $-1 -1 -1 $-1 $367 $425 #
-369 straight-curve $-1 -1 -1 $-1 2.8799999999999999 1.9199999999999999 4.7999999999999998 -1 -0 -0 I I #
-370 cface $-1 -1 $419 $9 $397 0 #
-371 face $426 -1 -1 $-1 $397 $393 $6 $-1 $427 forward single T 0.95999999999999996 0.95999999999999996 0 0.95999999999999996 1.9199999999999999 4.7999999999999998 F #
-372 cface_ptr-ct-attrib $-1 -1 $-1 $-1 $296 1 1 1 1 1 1 1 1 1 1 1 1 0 1 0 1 1 1 $-1 $225 #
-373 plane-surface $-1 -1 -1 $-1 1.4399999999999999 1.9199999999999999 0 0 -1 0 1 0 0 forward_v I I I I #
-374 edge $-1 -1 -1 $-1 $375 0 $377 0.95999999999999996 $297 $428 forward @7 unknown T 3.8399999999999999 0.95999999999999996 0 3.8399999999999999 1.9199999999999999 0 #
-375 vertex $-1 -1 -1 $-1 $374 $429 #
-376 straight-curve $-1 -1 -1 $-1 3.8399999999999999 1.9199999999999999 0 0 0 1 I I #
-377 vertex $-1 -1 -1 $-1 $309 $430 #
-378 straight-curve $-1 -1 -1 $-1 3.8399999999999999 0.95999999999999996 0 0 0 1 I I #
-379 point $-1 -1 -1 $-1 3.8399999999999999 0.95999999999999996 4.7999999999999998 #
-380 point $-1 -1 -1 $-1 3.8399999999999999 1.9199999999999999 4.7999999999999998 #
-381 coedge $-1 -1 -1 $-1 $307 $306 $366 $422 reversed $192 $-1 #
-382 coedge $-1 -1 -1 $-1 $364 $363 $307 $383 forward $222 $-1 #
-383 edge $-1 -1 -1 $-1 $385 0 $423 0.95999999999999996 $382 $431 forward @7 unknown T 2.8799999999999999 0.95999999999999996 0 2.8799999999999999 1.9199999999999999 0 #
-384 coedge $-1 -1 -1 $-1 $336 $308 $363 $420 forward $289 $-1 #
-385 vertex $-1 -1 -1 $-1 $309 $432 #
-386 straight-curve $-1 -1 -1 $-1 3.8399999999999999 0.95999999999999996 0 -1 0 0 I I #
-387 coedge $-1 -1 -1 $-1 $343 $342 $310 $388 forward $344 $-1 #
-388 edge $-1 -1 -1 $-1 $394 0 $389 0.95999999999999996 $387 $433 forward @7 unknown T 0.95999999999999996 1.9199999999999999 0 1.9199999999999999 1.9199999999999999 0 #
-389 vertex $-1 -1 -1 $-1 $312 $434 #
-390 straight-curve $-1 -1 -1 $-1 1.9199999999999999 1.9199999999999999 0 0 -1 0 I I #
-391 coedge $-1 -1 -1 $-1 $338 $313 $342 $412 forward $393 $-1 #
-392 coedge $-1 -1 -1 $-1 $313 $338 $315 $396 reversed $393 $-1 #
-393 loop $-1 -1 -1 $-1 $-1 $338 $371 T 0.95999999999999996 0.95999999999999996 0 0.95999999999999996 1.9199999999999999 4.7999999999999998 periphery $427 F #
-394 vertex $-1 -1 -1 $-1 $388 $435 #
-395 straight-curve $-1 -1 -1 $-1 0.95999999999999996 0.95999999999999996 0 0 1 0 I I #
-396 edge $-1 -1 -1 $-1 $319 0 $340 4.7999999999999998 $315 $436 forward @7 unknown T 0.95999999999999996 0.95999999999999996 0 0.95999999999999996 0.95999999999999996 4.7999999999999998 #
-397 face $437 -1 -1 $-1 $279 $317 $6 $-1 $398 forward single T 0.95999999999999996 0.95999999999999996 0 1.9199999999999999 0.95999999999999996 4.7999999999999998 F #
-398 plane-surface $-1 -1 -1 $-1 1.4399999999999999 0.95999999999999996 0 0 1 -0 -1 0 0 forward_v I I I I #
-399 point $-1 -1 -1 $-1 1.9199999999999999 0.95999999999999996 0 #
-400 point $-1 -1 -1 $-1 0.95999999999999996 0.95999999999999996 0 #
-401 straight-curve $-1 -1 -1 $-1 2.8799999999999999 3.8399999999999999 0 1 0 0 I I #
-402 point $-1 -1 -1 $-1 3.8399999999999999 3.8399999999999999 0 #
-403 face $438 -1 -1 $-1 $331 $327 $6 $-1 $404 forward single T 2.8799999999999999 2.8799999999999999 0 2.8799999999999999 3.8399999999999999 4.7999999999999998 F #
-404 plane-surface $-1 -1 -1 $-1 2.8799999999999999 3.3599999999999999 0 1 0 0 0 1 0 forward_v I I I I #
-405 point $-1 -1 -1 $-1 2.8799999999999999 3.8399999999999999 0 #
-406 straight-curve $-1 -1 -1 $-1 2.8799999999999999 2.8799999999999999 0 0 0 1 I I #
-407 cface_ptr-ct-attrib $-1 -1 $-1 $-1 $331 1 1 1 1 1 1 1 1 1 1 1 1 0 1 0 1 1 1 $-1 $439 #
-408 vertex $-1 -1 -1 $-1 $420 $440 #
-409 straight-curve $-1 -1 -1 $-1 3.8399999999999999 0.95999999999999996 4.7999999999999998 1 0 0 I I #
-410 straight-curve $-1 -1 -1 $-1 0.95999999999999996 0.95999999999999996 4.7999999999999998 -0 -1 -0 I I #
-411 point $-1 -1 -1 $-1 0.95999999999999996 0.95999999999999996 4.7999999999999998 #
-412 edge $-1 -1 -1 $-1 $394 0 $345 4.7999999999999998 $391 $441 forward @7 unknown T 0.95999999999999996 1.9199999999999999 0 0.95999999999999996 1.9199999999999999 4.7999999999999998 #
-413 point $-1 -1 -1 $-1 0.95999999999999996 1.9199999999999999 4.7999999999999998 #
-414 straight-curve $-1 -1 -1 $-1 1.9199999999999999 1.9199999999999999 0 0 0 1 I I #
-415 straight-curve $-1 -1 -1 $-1 1.9199999999999999 0.95999999999999996 0 0 0 1 I I #
-416 straight-curve $-1 -1 -1 $-1 2.8799999999999999 3.8399999999999999 0 0 0 1 I I #
-417 cface_ptr-ct-attrib $-1 -1 $-1 $-1 $355 1 1 1 1 1 1 1 1 1 1 1 1 0 1 0 1 1 1 $-1 $442 #
-418 cface $-1 -1 $59 $9 $279 0 #
-419 cface $-1 -1 $442 $9 $288 0 #
-420 edge $-1 -1 -1 $-1 $385 0 $408 4.7999999999999998 $384 $443 forward @7 unknown T 2.8799999999999999 0.95999999999999996 0 2.8799999999999999 0.95999999999999996 4.7999999999999998 #
-421 straight-curve $-1 -1 -1 $-1 2.8799999999999999 0.95999999999999996 4.7999999999999998 -0 -1 -0 I I #
-422 edge $-1 -1 -1 $-1 $423 0 $375 0.95999999999999996 $366 $444 forward @7 unknown T 2.8799999999999999 1.9199999999999999 0 3.8399999999999999 1.9199999999999999 0 #
-423 vertex $-1 -1 -1 $-1 $422 $445 #
-424 straight-curve $-1 -1 -1 $-1 2.8799999999999999 1.9199999999999999 0 0 0 1 I I #
-425 point $-1 -1 -1 $-1 2.8799999999999999 1.9199999999999999 4.7999999999999998 #
-426 cface_ptr-ct-attrib $-1 -1 $-1 $-1 $371 1 1 1 1 1 1 1 1 1 1 1 1 0 1 0 1 1 1 $-1 $295 #
-427 plane-surface $-1 -1 -1 $-1 0.95999999999999996 1.4399999999999999 0 1 0 0 0 1 0 forward_v I I I I #
-428 straight-curve $-1 -1 -1 $-1 3.8399999999999999 1.9199999999999999 0 0 -1 0 I I #
-429 point $-1 -1 -1 $-1 3.8399999999999999 1.9199999999999999 0 #
-430 point $-1 -1 -1 $-1 3.8399999999999999 0.95999999999999996 0 #
-431 straight-curve $-1 -1 -1 $-1 2.8799999999999999 0.95999999999999996 0 0 1 0 I I #
-432 point $-1 -1 -1 $-1 2.8799999999999999 0.95999999999999996 0 #
-433 straight-curve $-1 -1 -1 $-1 0.95999999999999996 1.9199999999999999 0 1 0 0 I I #
-434 point $-1 -1 -1 $-1 1.9199999999999999 1.9199999999999999 0 #
-435 point $-1 -1 -1 $-1 0.95999999999999996 1.9199999999999999 0 #
-436 straight-curve $-1 -1 -1 $-1 0.95999999999999996 0.95999999999999996 0 0 0 1 I I #
-437 cface_ptr-ct-attrib $-1 -1 $-1 $-1 $397 1 1 1 1 1 1 1 1 1 1 1 1 0 1 0 1 1 1 $-1 $370 #
-438 cface_ptr-ct-attrib $-1 -1 $-1 $-1 $403 1 1 1 1 1 1 1 1 1 1 1 1 0 1 0 1 1 1 $-1 $446 #
-439 cface $-1 -1 $418 $9 $331 0 #
-440 point $-1 -1 -1 $-1 2.8799999999999999 0.95999999999999996 4.7999999999999998 #
-441 straight-curve $-1 -1 -1 $-1 0.95999999999999996 1.9199999999999999 0 0 0 1 I I #
-442 cface $-1 -1 $446 $9 $355 0 #
-443 straight-curve $-1 -1 -1 $-1 2.8799999999999999 0.95999999999999996 0 0 0 1 I I #
-444 straight-curve $-1 -1 -1 $-1 2.8799999999999999 1.9199999999999999 0 1 0 0 I I #
-445 point $-1 -1 -1 $-1 2.8799999999999999 1.9199999999999999 0 #
-446 cface $-1 -1 $439 $9 $403 0 #
End-of-ACIS-data 
