ISO-10303-21;
HEADER;
FILE_DESCRIPTION(('STEP AP214'),'1');
FILE_NAME('Cylinder_h10_d10.stp','2024-04-02T09:59:52',(' '),(' '),'Spatial InterOp 3D',' ',' ');
FILE_SCHEMA(('AUTOMOTIVE_DESIGN { 1 0 10303 214 1 1 1 1 }'));
ENDSEC;
DATA;
#1=PRODUCT_DEFINITION_CONTEXT('',#13,'design');
#2=APPLICATION_PROTOCOL_DEFINITION('INTERNATIONAL STANDARD','automotive_design',1994,#13);
#3=PRODUCT_CATEGORY_RELATIONSHIP('NONE','NONE',#14,#15);
#4=SHAPE_DEFINITION_REPRESENTATION(#16,#17);
#5=SHAPE_DEFINITION_REPRESENTATION(#16,#18);
#6=SHAPE_DEFINITION_REPRESENTATION(#16,#19);
#7=SHAPE_DEFINITION_REPRESENTATION(#16,#20);
#8=SHAPE_DEFINITION_REPRESENTATION(#16,#21);
#9= (GEOMETRIC_REPRESENTATION_CONTEXT(3)GLOBAL_UNCERTAINTY_ASSIGNED_CONTEXT((#24))GLOBAL_UNIT_ASSIGNED_CONTEXT((#26,#27,#28))REPRESENTATION_CONTEXT('NONE','WORKSPACE'));
#13=APPLICATION_CONTEXT(' ');
#14=PRODUCT_CATEGORY('part','NONE');
#15=PRODUCT_RELATED_PRODUCT_CATEGORY('detail',' ',(#30));
#16=PRODUCT_DEFINITION_SHAPE('NONE','NONE',#31);
#17=ADVANCED_BREP_SHAPE_REPRESENTATION('1',(#32,#33),#9);
#18=MANIFOLD_SURFACE_SHAPE_REPRESENTATION('2',(#34,#35),#9);
#19=MANIFOLD_SURFACE_SHAPE_REPRESENTATION('3',(#36,#37),#9);
#20=MANIFOLD_SURFACE_SHAPE_REPRESENTATION('4',(#38,#39),#9);
#21=MANIFOLD_SURFACE_SHAPE_REPRESENTATION('5',(#40,#41),#9);
#24=UNCERTAINTY_MEASURE_WITH_UNIT(LENGTH_MEASURE(1.0E-06),#26,'','');
#26= (CONVERSION_BASED_UNIT('MILLIMETRE',#44)LENGTH_UNIT()NAMED_UNIT(#47));
#27= (NAMED_UNIT(#49)PLANE_ANGLE_UNIT()SI_UNIT($,.RADIAN.));
#28= (NAMED_UNIT(#49)SOLID_ANGLE_UNIT()SI_UNIT($,.STERADIAN.));
#30=PRODUCT('1','','PART--DESC',(#55));
#31=PRODUCT_DEFINITION('','NONE',#56,#1);
#32=MANIFOLD_SOLID_BREP('1',#57);
#33=AXIS2_PLACEMENT_3D('',#58,#59,#60);
#34=SHELL_BASED_SURFACE_MODEL('2',(#61));
#35=AXIS2_PLACEMENT_3D('',#62,#63,#64);
#36=SHELL_BASED_SURFACE_MODEL('3',(#65));
#37=AXIS2_PLACEMENT_3D('',#66,#67,#68);
#38=SHELL_BASED_SURFACE_MODEL('4',(#69));
#39=AXIS2_PLACEMENT_3D('',#70,#71,#72);
#40=SHELL_BASED_SURFACE_MODEL('5',(#73));
#41=AXIS2_PLACEMENT_3D('',#74,#75,#76);
#44=LENGTH_MEASURE_WITH_UNIT(LENGTH_MEASURE(1.0),#77);
#47=DIMENSIONAL_EXPONENTS(1.0,0.0,0.0,0.0,0.0,0.0,0.0);
#49=DIMENSIONAL_EXPONENTS(0.0,0.0,0.0,0.0,0.0,0.0,0.0);
#55=PRODUCT_CONTEXT('',#13,'mechanical');
#56=PRODUCT_DEFINITION_FORMATION_WITH_SPECIFIED_SOURCE(' ','NONE',#30,.NOT_KNOWN.);
#57=CLOSED_SHELL('',(#78,#79,#80,#81,#82,#83,#84,#85,#86,#87,#88,#89));
#58=CARTESIAN_POINT('',(0.0,0.0,0.0));
#59=DIRECTION('',(0.0,0.0,1.0));
#60=DIRECTION('',(1.0,0.0,0.0));
#61=CLOSED_SHELL('',(#90));
#62=CARTESIAN_POINT('',(0.0,0.0,0.0));
#63=DIRECTION('',(0.0,0.0,1.0));
#64=DIRECTION('',(1.0,0.0,0.0));
#65=CLOSED_SHELL('',(#91));
#66=CARTESIAN_POINT('',(0.0,0.0,0.0));
#67=DIRECTION('',(0.0,0.0,1.0));
#68=DIRECTION('',(1.0,0.0,0.0));
#69=CLOSED_SHELL('',(#92));
#70=CARTESIAN_POINT('',(0.0,0.0,0.0));
#71=DIRECTION('',(0.0,0.0,1.0));
#72=DIRECTION('',(1.0,0.0,0.0));
#73=CLOSED_SHELL('',(#93));
#74=CARTESIAN_POINT('',(0.0,0.0,0.0));
#75=DIRECTION('',(0.0,0.0,1.0));
#76=DIRECTION('',(1.0,0.0,0.0));
#77= (NAMED_UNIT(#47)LENGTH_UNIT()SI_UNIT(.MILLI.,.METRE.));
#78=ADVANCED_FACE('',(#95),#96,.F.);
#79=ADVANCED_FACE('',(#97),#98,.T.);
#80=ADVANCED_FACE('',(#99),#100,.T.);
#81=ADVANCED_FACE('',(#101),#102,.F.);
#82=ADVANCED_FACE('',(#103),#104,.F.);
#83=ADVANCED_FACE('',(#105),#106,.T.);
#84=ADVANCED_FACE('',(#107),#108,.T.);
#85=ADVANCED_FACE('',(#109),#110,.T.);
#86=ADVANCED_FACE('',(#111),#112,.T.);
#87=ADVANCED_FACE('',(#113),#114,.F.);
#88=ADVANCED_FACE('',(#115),#116,.T.);
#89=ADVANCED_FACE('',(#117),#118,.T.);
#90=FACE_SURFACE('',(#119),#120,.T.);
#91=FACE_SURFACE('',(#121),#122,.T.);
#92=FACE_SURFACE('',(#123),#124,.T.);
#93=FACE_SURFACE('',(#125),#126,.T.);
#95=FACE_OUTER_BOUND('',#127,.T.);
#96=PLANE('',#128);
#97=FACE_OUTER_BOUND('',#129,.T.);
#98=PLANE('',#130);
#99=FACE_OUTER_BOUND('',#131,.T.);
#100=PLANE('',#132);
#101=FACE_OUTER_BOUND('',#133,.T.);
#102=PLANE('',#134);
#103=FACE_OUTER_BOUND('',#135,.T.);
#104=PLANE('',#136);
#105=FACE_OUTER_BOUND('',#137,.T.);
#106=CYLINDRICAL_SURFACE('',#138,5.0);
#107=FACE_OUTER_BOUND('',#139,.T.);
#108=PLANE('',#140);
#109=FACE_OUTER_BOUND('',#141,.T.);
#110=PLANE('',#142);
#111=FACE_OUTER_BOUND('',#143,.T.);
#112=CYLINDRICAL_SURFACE('',#144,5.0);
#113=FACE_OUTER_BOUND('',#145,.T.);
#114=PLANE('',#146);
#115=FACE_OUTER_BOUND('',#147,.T.);
#116=CYLINDRICAL_SURFACE('',#148,5.0);
#117=FACE_OUTER_BOUND('',#149,.T.);
#118=CYLINDRICAL_SURFACE('',#150,5.0);
#119=FACE_BOUND('',#151,.T.);
#120=PLANE('',#152);
#121=FACE_BOUND('',#153,.T.);
#122=PLANE('',#154);
#123=FACE_BOUND('',#155,.T.);
#124=PLANE('',#156);
#125=FACE_BOUND('',#157,.T.);
#126=PLANE('',#158);
#127=EDGE_LOOP('',(#159,#160,#161));
#128=AXIS2_PLACEMENT_3D('',#162,#163,#164);
#129=EDGE_LOOP('',(#165,#166,#167));
#130=AXIS2_PLACEMENT_3D('',#168,#169,#170);
#131=EDGE_LOOP('',(#171,#172,#173));
#132=AXIS2_PLACEMENT_3D('',#174,#175,#176);
#133=EDGE_LOOP('',(#177,#178,#179));
#134=AXIS2_PLACEMENT_3D('',#180,#181,#182);
#135=EDGE_LOOP('',(#183,#184,#185));
#136=AXIS2_PLACEMENT_3D('',#186,#187,#188);
#137=EDGE_LOOP('',(#189,#190,#191,#192));
#138=AXIS2_PLACEMENT_3D('',#193,#194,#195);
#139=EDGE_LOOP('',(#196,#197,#198));
#140=AXIS2_PLACEMENT_3D('',#199,#200,#201);
#141=EDGE_LOOP('',(#202,#203,#204));
#142=AXIS2_PLACEMENT_3D('',#205,#206,#207);
#143=EDGE_LOOP('',(#208,#209,#210,#211));
#144=AXIS2_PLACEMENT_3D('',#212,#213,#214);
#145=EDGE_LOOP('',(#215,#216,#217));
#146=AXIS2_PLACEMENT_3D('',#218,#219,#220);
#147=EDGE_LOOP('',(#221,#222,#223,#224));
#148=AXIS2_PLACEMENT_3D('',#225,#226,#227);
#149=EDGE_LOOP('',(#228,#229,#230,#231));
#150=AXIS2_PLACEMENT_3D('',#232,#233,#234);
#151=EDGE_LOOP('',(#235,#236,#237,#238));
#152=AXIS2_PLACEMENT_3D('',#239,#240,#241);
#153=EDGE_LOOP('',(#242,#243,#244,#245));
#154=AXIS2_PLACEMENT_3D('',#246,#247,#248);
#155=EDGE_LOOP('',(#249,#250,#251,#252));
#156=AXIS2_PLACEMENT_3D('',#253,#254,#255);
#157=EDGE_LOOP('',(#256,#257,#258,#259));
#158=AXIS2_PLACEMENT_3D('',#260,#261,#262);
#159=ORIENTED_EDGE('',*,*,#263,.F.);
#160=ORIENTED_EDGE('',*,*,#264,.F.);
#161=ORIENTED_EDGE('',*,*,#265,.F.);
#162=CARTESIAN_POINT('',(0.0,0.0,0.0));
#163=DIRECTION('',(0.0,0.0,1.0));
#164=DIRECTION('',(1.0,0.0,0.0));
#165=ORIENTED_EDGE('',*,*,#266,.F.);
#166=ORIENTED_EDGE('',*,*,#267,.F.);
#167=ORIENTED_EDGE('',*,*,#268,.F.);
#168=CARTESIAN_POINT('',(0.0,0.0,10.0));
#169=DIRECTION('',(0.0,0.0,1.0));
#170=DIRECTION('',(1.0,0.0,0.0));
#171=ORIENTED_EDGE('',*,*,#266,.T.);
#172=ORIENTED_EDGE('',*,*,#269,.F.);
#173=ORIENTED_EDGE('',*,*,#270,.F.);
#174=CARTESIAN_POINT('',(0.0,0.0,10.0));
#175=DIRECTION('',(0.0,0.0,1.0));
#176=DIRECTION('',(1.0,0.0,0.0));
#177=ORIENTED_EDGE('',*,*,#263,.T.);
#178=ORIENTED_EDGE('',*,*,#271,.F.);
#179=ORIENTED_EDGE('',*,*,#272,.F.);
#180=CARTESIAN_POINT('',(0.0,0.0,0.0));
#181=DIRECTION('',(0.0,0.0,1.0));
#182=DIRECTION('',(1.0,0.0,0.0));
#183=ORIENTED_EDGE('',*,*,#273,.F.);
#184=ORIENTED_EDGE('',*,*,#274,.F.);
#185=ORIENTED_EDGE('',*,*,#264,.T.);
#186=CARTESIAN_POINT('',(0.0,0.0,0.0));
#187=DIRECTION('',(0.0,0.0,1.0));
#188=DIRECTION('',(1.0,0.0,0.0));
#189=ORIENTED_EDGE('',*,*,#275,.F.);
#190=ORIENTED_EDGE('',*,*,#265,.T.);
#191=ORIENTED_EDGE('',*,*,#276,.F.);
#192=ORIENTED_EDGE('',*,*,#267,.T.);
#193=CARTESIAN_POINT('',(0.0,0.0,0.0));
#194=DIRECTION('',(0.0,0.0,1.0));
#195=DIRECTION('',(1.0,0.0,0.0));
#196=ORIENTED_EDGE('',*,*,#277,.F.);
#197=ORIENTED_EDGE('',*,*,#268,.T.);
#198=ORIENTED_EDGE('',*,*,#278,.F.);
#199=CARTESIAN_POINT('',(0.0,0.0,10.0));
#200=DIRECTION('',(0.0,0.0,1.0));
#201=DIRECTION('',(1.0,0.0,0.0));
#202=ORIENTED_EDGE('',*,*,#277,.T.);
#203=ORIENTED_EDGE('',*,*,#279,.F.);
#204=ORIENTED_EDGE('',*,*,#269,.T.);
#205=CARTESIAN_POINT('',(0.0,0.0,10.0));
#206=DIRECTION('',(0.0,0.0,1.0));
#207=DIRECTION('',(1.0,0.0,0.0));
#208=ORIENTED_EDGE('',*,*,#275,.T.);
#209=ORIENTED_EDGE('',*,*,#270,.T.);
#210=ORIENTED_EDGE('',*,*,#280,.F.);
#211=ORIENTED_EDGE('',*,*,#271,.T.);
#212=CARTESIAN_POINT('',(0.0,0.0,0.0));
#213=DIRECTION('',(0.0,0.0,1.0));
#214=DIRECTION('',(1.0,0.0,0.0));
#215=ORIENTED_EDGE('',*,*,#273,.T.);
#216=ORIENTED_EDGE('',*,*,#272,.T.);
#217=ORIENTED_EDGE('',*,*,#281,.F.);
#218=CARTESIAN_POINT('',(0.0,0.0,0.0));
#219=DIRECTION('',(0.0,0.0,1.0));
#220=DIRECTION('',(1.0,0.0,0.0));
#221=ORIENTED_EDGE('',*,*,#282,.F.);
#222=ORIENTED_EDGE('',*,*,#278,.T.);
#223=ORIENTED_EDGE('',*,*,#276,.T.);
#224=ORIENTED_EDGE('',*,*,#274,.T.);
#225=CARTESIAN_POINT('',(0.0,0.0,0.0));
#226=DIRECTION('',(0.0,0.0,1.0));
#227=DIRECTION('',(1.0,0.0,0.0));
#228=ORIENTED_EDGE('',*,*,#282,.T.);
#229=ORIENTED_EDGE('',*,*,#281,.T.);
#230=ORIENTED_EDGE('',*,*,#280,.T.);
#231=ORIENTED_EDGE('',*,*,#279,.T.);
#232=CARTESIAN_POINT('',(0.0,0.0,0.0));
#233=DIRECTION('',(0.0,0.0,1.0));
#234=DIRECTION('',(1.0,0.0,0.0));
#235=ORIENTED_EDGE('',*,*,#283,.T.);
#236=ORIENTED_EDGE('',*,*,#284,.T.);
#237=ORIENTED_EDGE('',*,*,#285,.T.);
#238=ORIENTED_EDGE('',*,*,#286,.T.);
#239=CARTESIAN_POINT('',(0.0,0.0,0.0));
#240=DIRECTION('',(1.0,0.0,0.0));
#241=DIRECTION('',(0.0,0.0,-1.0));
#242=ORIENTED_EDGE('',*,*,#287,.T.);
#243=ORIENTED_EDGE('',*,*,#288,.T.);
#244=ORIENTED_EDGE('',*,*,#289,.T.);
#245=ORIENTED_EDGE('',*,*,#290,.T.);
#246=CARTESIAN_POINT('',(0.0,0.0,0.0));
#247=DIRECTION('',(1.0,0.0,0.0));
#248=DIRECTION('',(0.0,0.0,-1.0));
#249=ORIENTED_EDGE('',*,*,#291,.T.);
#250=ORIENTED_EDGE('',*,*,#292,.T.);
#251=ORIENTED_EDGE('',*,*,#293,.T.);
#252=ORIENTED_EDGE('',*,*,#294,.T.);
#253=CARTESIAN_POINT('',(0.0,0.0,0.0));
#254=DIRECTION('',(0.0,1.0,0.0));
#255=DIRECTION('',(0.0,0.0,1.0));
#256=ORIENTED_EDGE('',*,*,#295,.T.);
#257=ORIENTED_EDGE('',*,*,#296,.T.);
#258=ORIENTED_EDGE('',*,*,#297,.T.);
#259=ORIENTED_EDGE('',*,*,#298,.T.);
#260=CARTESIAN_POINT('',(0.0,0.0,0.0));
#261=DIRECTION('',(0.0,1.0,0.0));
#262=DIRECTION('',(0.0,0.0,1.0));
#263=EDGE_CURVE('',#299,#300,#301,.T.);
#264=EDGE_CURVE('',#302,#299,#303,.T.);
#265=EDGE_CURVE('',#300,#302,#304,.T.);
#266=EDGE_CURVE('',#305,#306,#307,.T.);
#267=EDGE_CURVE('',#308,#305,#309,.T.);
#268=EDGE_CURVE('',#306,#308,#310,.T.);
#269=EDGE_CURVE('',#311,#306,#312,.T.);
#270=EDGE_CURVE('',#305,#311,#313,.T.);
#271=EDGE_CURVE('',#314,#300,#315,.T.);
#272=EDGE_CURVE('',#299,#314,#316,.T.);
#273=EDGE_CURVE('',#317,#299,#318,.T.);
#274=EDGE_CURVE('',#302,#317,#319,.T.);
#275=EDGE_CURVE('',#300,#305,#320,.T.);
#276=EDGE_CURVE('',#308,#302,#321,.T.);
#277=EDGE_CURVE('',#306,#322,#323,.T.);
#278=EDGE_CURVE('',#322,#308,#324,.T.);
#279=EDGE_CURVE('',#311,#322,#325,.T.);
#280=EDGE_CURVE('',#314,#311,#326,.T.);
#281=EDGE_CURVE('',#317,#314,#327,.T.);
#282=EDGE_CURVE('',#322,#317,#328,.T.);
#283=EDGE_CURVE('',#329,#330,#331,.T.);
#284=EDGE_CURVE('',#330,#332,#333,.T.);
#285=EDGE_CURVE('',#332,#334,#335,.T.);
#286=EDGE_CURVE('',#334,#329,#336,.T.);
#287=EDGE_CURVE('',#337,#338,#339,.F.);
#288=EDGE_CURVE('',#338,#340,#341,.T.);
#289=EDGE_CURVE('',#340,#342,#343,.T.);
#290=EDGE_CURVE('',#342,#337,#344,.T.);
#291=EDGE_CURVE('',#345,#346,#347,.T.);
#292=EDGE_CURVE('',#346,#348,#349,.T.);
#293=EDGE_CURVE('',#348,#350,#351,.T.);
#294=EDGE_CURVE('',#350,#345,#352,.F.);
#295=EDGE_CURVE('',#353,#354,#355,.T.);
#296=EDGE_CURVE('',#354,#356,#357,.T.);
#297=EDGE_CURVE('',#356,#358,#359,.T.);
#298=EDGE_CURVE('',#358,#353,#360,.T.);
#299=VERTEX_POINT('',#361);
#300=VERTEX_POINT('',#362);
#301=LINE('',#363,#364);
#302=VERTEX_POINT('',#365);
#303=LINE('',#366,#367);
#304=CIRCLE('',#368,5.0);
#305=VERTEX_POINT('',#369);
#306=VERTEX_POINT('',#370);
#307=LINE('',#371,#372);
#308=VERTEX_POINT('',#373);
#309=CIRCLE('',#374,5.0);
#310=LINE('',#375,#376);
#311=VERTEX_POINT('',#377);
#312=LINE('',#378,#379);
#313=CIRCLE('',#380,5.0);
#314=VERTEX_POINT('',#381);
#315=CIRCLE('',#382,5.0);
#316=LINE('',#383,#384);
#317=VERTEX_POINT('',#385);
#318=LINE('',#386,#387);
#319=CIRCLE('',#388,5.0);
#320=LINE('',#389,#390);
#321=LINE('',#391,#392);
#322=VERTEX_POINT('',#393);
#323=LINE('',#394,#395);
#324=CIRCLE('',#396,5.0);
#325=CIRCLE('',#397,5.0);
#326=LINE('',#398,#399);
#327=CIRCLE('',#400,5.0);
#328=LINE('',#401,#402);
#329=VERTEX_POINT('',#403);
#330=VERTEX_POINT('',#404);
#331=LINE('',#405,#406);
#332=VERTEX_POINT('',#407);
#333=LINE('',#408,#409);
#334=VERTEX_POINT('',#410);
#335=LINE('',#411,#412);
#336=LINE('',#413,#414);
#337=VERTEX_POINT('',#415);
#338=VERTEX_POINT('',#416);
#339=LINE('',#417,#418);
#340=VERTEX_POINT('',#419);
#341=LINE('',#420,#421);
#342=VERTEX_POINT('',#422);
#343=LINE('',#423,#424);
#344=LINE('',#425,#426);
#345=VERTEX_POINT('',#427);
#346=VERTEX_POINT('',#428);
#347=LINE('',#429,#430);
#348=VERTEX_POINT('',#431);
#349=LINE('',#432,#433);
#350=VERTEX_POINT('',#434);
#351=LINE('',#435,#436);
#352=LINE('',#437,#438);
#353=VERTEX_POINT('',#439);
#354=VERTEX_POINT('',#440);
#355=LINE('',#441,#442);
#356=VERTEX_POINT('',#443);
#357=LINE('',#444,#445);
#358=VERTEX_POINT('',#446);
#359=LINE('',#447,#448);
#360=LINE('',#449,#450);
#361=CARTESIAN_POINT('',(0.0,0.0,0.0));
#362=CARTESIAN_POINT('',(-5.0,0.0,0.0));
#363=CARTESIAN_POINT('',(0.0,0.0,0.0));
#364=VECTOR('',#451,1.0);
#365=CARTESIAN_POINT('',(0.0,-5.0,0.0));
#366=CARTESIAN_POINT('',(0.0,0.0,0.0));
#367=VECTOR('',#452,1.0);
#368=AXIS2_PLACEMENT_3D('',#453,#454,#455);
#369=CARTESIAN_POINT('',(-5.0,0.0,10.0));
#370=CARTESIAN_POINT('',(0.0,0.0,10.0));
#371=CARTESIAN_POINT('',(0.0,0.0,10.0));
#372=VECTOR('',#456,1.0);
#373=CARTESIAN_POINT('',(0.0,-5.0,10.0));
#374=AXIS2_PLACEMENT_3D('',#457,#458,#459);
#375=CARTESIAN_POINT('',(0.0,0.0,10.0));
#376=VECTOR('',#460,1.0);
#377=CARTESIAN_POINT('',(0.0,5.0,10.0));
#378=CARTESIAN_POINT('',(0.0,0.0,10.0));
#379=VECTOR('',#461,1.0);
#380=AXIS2_PLACEMENT_3D('',#462,#463,#464);
#381=CARTESIAN_POINT('',(0.0,5.0,0.0));
#382=AXIS2_PLACEMENT_3D('',#465,#466,#467);
#383=CARTESIAN_POINT('',(0.0,0.0,0.0));
#384=VECTOR('',#468,1.0);
#385=CARTESIAN_POINT('',(5.0,0.0,0.0));
#386=CARTESIAN_POINT('',(0.0,0.0,0.0));
#387=VECTOR('',#469,1.0);
#388=AXIS2_PLACEMENT_3D('',#470,#471,#472);
#389=CARTESIAN_POINT('',(-5.0,0.0,0.0));
#390=VECTOR('',#473,1.0);
#391=CARTESIAN_POINT('',(0.0,-5.0,0.0));
#392=VECTOR('',#474,1.0);
#393=CARTESIAN_POINT('',(5.0,0.0,10.0));
#394=CARTESIAN_POINT('',(0.0,0.0,10.0));
#395=VECTOR('',#475,1.0);
#396=AXIS2_PLACEMENT_3D('',#476,#477,#478);
#397=AXIS2_PLACEMENT_3D('',#479,#480,#481);
#398=CARTESIAN_POINT('',(0.0,5.0,0.0));
#399=VECTOR('',#482,1.0);
#400=AXIS2_PLACEMENT_3D('',#483,#484,#485);
#401=CARTESIAN_POINT('',(5.0,0.0,0.0));
#402=VECTOR('',#486,1.0);
#403=CARTESIAN_POINT('',(0.0,0.0,10.0));
#404=CARTESIAN_POINT('',(0.0,0.0,0.0));
#405=CARTESIAN_POINT('',(0.0,0.0,0.0));
#406=VECTOR('',#487,1.0);
#407=CARTESIAN_POINT('',(0.0,5.0,0.0));
#408=CARTESIAN_POINT('',(0.0,0.0,0.0));
#409=VECTOR('',#488,1.0);
#410=CARTESIAN_POINT('',(0.0,5.0,10.0));
#411=CARTESIAN_POINT('',(0.0,5.0,0.0));
#412=VECTOR('',#489,1.0);
#413=CARTESIAN_POINT('',(0.0,0.0,10.0));
#414=VECTOR('',#490,1.0);
#415=CARTESIAN_POINT('',(0.0,0.0,0.0));
#416=CARTESIAN_POINT('',(0.0,0.0,10.0));
#417=CARTESIAN_POINT('',(0.0,0.0,0.0));
#418=VECTOR('',#491,1.0);
#419=CARTESIAN_POINT('',(0.0,-5.0,10.0));
#420=CARTESIAN_POINT('',(0.0,0.0,10.0));
#421=VECTOR('',#492,1.0);
#422=CARTESIAN_POINT('',(0.0,-5.0,0.0));
#423=CARTESIAN_POINT('',(0.0,-5.0,0.0));
#424=VECTOR('',#493,1.0);
#425=CARTESIAN_POINT('',(0.0,0.0,0.0));
#426=VECTOR('',#494,1.0);
#427=CARTESIAN_POINT('',(0.0,0.0,10.0));
#428=CARTESIAN_POINT('',(5.0,0.0,10.0));
#429=CARTESIAN_POINT('',(0.0,0.0,10.0));
#430=VECTOR('',#495,1.0);
#431=CARTESIAN_POINT('',(5.0,0.0,0.0));
#432=CARTESIAN_POINT('',(5.0,0.0,0.0));
#433=VECTOR('',#496,1.0);
#434=CARTESIAN_POINT('',(0.0,0.0,0.0));
#435=CARTESIAN_POINT('',(0.0,0.0,0.0));
#436=VECTOR('',#497,1.0);
#437=CARTESIAN_POINT('',(0.0,0.0,0.0));
#438=VECTOR('',#498,1.0);
#439=CARTESIAN_POINT('',(0.0,0.0,10.0));
#440=CARTESIAN_POINT('',(0.0,0.0,0.0));
#441=CARTESIAN_POINT('',(0.0,0.0,0.0));
#442=VECTOR('',#499,1.0);
#443=CARTESIAN_POINT('',(-5.0,0.0,0.0));
#444=CARTESIAN_POINT('',(0.0,0.0,0.0));
#445=VECTOR('',#500,1.0);
#446=CARTESIAN_POINT('',(-5.0,0.0,10.0));
#447=CARTESIAN_POINT('',(-5.0,0.0,0.0));
#448=VECTOR('',#501,1.0);
#449=CARTESIAN_POINT('',(0.0,0.0,10.0));
#450=VECTOR('',#502,1.0);
#451=DIRECTION('',(-1.0,0.0,0.0));
#452=DIRECTION('',(0.0,1.0,0.0));
#453=CARTESIAN_POINT('',(0.0,0.0,0.0));
#454=DIRECTION('',(0.0,0.0,1.0));
#455=DIRECTION('',(1.0,0.0,0.0));
#456=DIRECTION('',(1.0,0.0,0.0));
#457=CARTESIAN_POINT('',(0.0,0.0,10.0));
#458=DIRECTION('',(0.0,0.0,-1.0));
#459=DIRECTION('',(1.0,0.0,0.0));
#460=DIRECTION('',(0.0,-1.0,0.0));
#461=DIRECTION('',(0.0,-1.0,0.0));
#462=CARTESIAN_POINT('',(0.0,0.0,10.0));
#463=DIRECTION('',(0.0,0.0,-1.0));
#464=DIRECTION('',(1.0,0.0,0.0));
#465=CARTESIAN_POINT('',(0.0,0.0,0.0));
#466=DIRECTION('',(0.0,0.0,1.0));
#467=DIRECTION('',(1.0,0.0,0.0));
#468=DIRECTION('',(0.0,1.0,0.0));
#469=DIRECTION('',(-1.0,0.0,0.0));
#470=CARTESIAN_POINT('',(0.0,0.0,0.0));
#471=DIRECTION('',(0.0,0.0,1.0));
#472=DIRECTION('',(1.0,0.0,0.0));
#473=DIRECTION('',(0.0,0.0,1.0));
#474=DIRECTION('',(-0.0,-0.0,-1.0));
#475=DIRECTION('',(1.0,0.0,0.0));
#476=CARTESIAN_POINT('',(0.0,0.0,10.0));
#477=DIRECTION('',(0.0,0.0,-1.0));
#478=DIRECTION('',(1.0,0.0,0.0));
#479=CARTESIAN_POINT('',(0.0,0.0,10.0));
#480=DIRECTION('',(0.0,0.0,-1.0));
#481=DIRECTION('',(1.0,0.0,0.0));
#482=DIRECTION('',(0.0,0.0,1.0));
#483=CARTESIAN_POINT('',(0.0,0.0,0.0));
#484=DIRECTION('',(0.0,0.0,1.0));
#485=DIRECTION('',(1.0,0.0,0.0));
#486=DIRECTION('',(-0.0,-0.0,-1.0));
#487=DIRECTION('',(0.0,0.0,-1.0));
#488=DIRECTION('',(0.0,1.0,0.0));
#489=DIRECTION('',(0.0,0.0,1.0));
#490=DIRECTION('',(0.0,-1.0,0.0));
#491=DIRECTION('',(0.0,0.0,-1.0));
#492=DIRECTION('',(0.0,-1.0,0.0));
#493=DIRECTION('',(-0.0,-0.0,-1.0));
#494=DIRECTION('',(0.0,1.0,0.0));
#495=DIRECTION('',(1.0,0.0,0.0));
#496=DIRECTION('',(-0.0,-0.0,-1.0));
#497=DIRECTION('',(-1.0,0.0,0.0));
#498=DIRECTION('',(0.0,0.0,-1.0));
#499=DIRECTION('',(0.0,0.0,-1.0));
#500=DIRECTION('',(-1.0,0.0,0.0));
#501=DIRECTION('',(0.0,0.0,1.0));
#502=DIRECTION('',(1.0,0.0,0.0));
ENDSEC;
END-ISO-10303-21;
