2600 0 1 0           
17 Abaqus 2022 - 310 12 ACIS 31.0 NT 24 Wed Apr 10 10:29:16 2024 
1 9.9999999999999995e-07 1e-10 
T @77 4DVEJUKM4GH3Q43SEUYN4TEMG7P33HQ6DBQVMV6VXAAVE47VE8NCKCQEUBP3QCP8YAS3FA6DQACCQ 
-0 body $1 -1 -1 $-1 $2 $-1 $-1 F #
-1 string_attrib-name_attrib-gen-attrib $-1 -1 $3 $-1 $0 2 1 1 1 1 1 1 1 1 1 1 1 1 1 0 1 1 1 @18 HKS_ATTRIB_BODY_ID @1 1 #
-2 lump $4 -1 -1 $-1 $-1 $5 $0 F #
-3 string_attrib-name_attrib-gen-attrib $-1 -1 $6 $1 $0 2 1 1 1 1 1 1 1 1 1 1 1 1 1 0 1 1 1 @15 ATTRIB_XACIS_ID @2 55 #
-4 cell_ptr-ct-attrib $-1 -1 $7 $-1 $2 1 1 1 1 1 1 1 1 1 1 1 1 0 1 0 1 1 1 $8 $-1 auto #
-5 shell $-1 -1 -1 $-1 $-1 $-1 $9 $-1 $2 F #
-6 rgb_color-st-attrib $-1 -1 $-1 $3 $0 2 1 2 1 1 1 1 1 1 1 1 1 1 1 0 1 1 1 0.7921568751335144 0.81960785388946533 0.93333333730697632 #
-7 string_attrib-name_attrib-gen-attrib $-1 -1 $10 $4 $2 2 1 1 1 1 1 1 1 1 1 1 1 1 1 0 1 1 1 @15 ATTRIB_XACIS_ID @2 55 #
-8 cell3d-cell $-1 -1 $11 $2 $-1 1 $12 #
-9 face $13 -1 -1 $-1 $14 $15 $5 $-1 $16 forward double in F F #
-10 string_attrib-name_attrib-gen-attrib $-1 -1 $17 $7 $2 2 1 1 1 1 1 1 1 1 1 1 1 1 1 0 1 1 1 @23 ATTRIB_XSTEP_PRODUCT_ID @8 rev_cone #
-11 cell3d-cell $-1 -1 $18 $2 $-1 1 $19 #
-12 cshell $-1 -1 $-1 $20 $8 #
-13 cface_ptr-ct-attrib $-1 -1 $-1 $-1 $9 1 1 1 1 1 1 1 1 1 1 1 1 0 1 0 1 1 1 $21 $22 #
-14 face $23 -1 -1 $-1 $24 $25 $5 $-1 $16 forward double in F F #
-15 loop $-1 -1 -1 $-1 $-1 $26 $9 F unknown #
-16 plane-surface $-1 -1 -1 $-1 5 5 5 0 -1 6.123233995736766e-17 1 0 0 forward_v I I I I #
-17 string_attrib-name_attrib-gen-attrib $-1 -1 $27 $10 $2 2 1 1 1 1 1 1 1 1 1 1 1 1 1 0 1 1 1 @17 ATTRIB_XACIS_NAME @8 Revolve1 #
-18 cell3d-cell $-1 -1 $28 $2 $-1 1 $29 #
-19 cshell $-1 -1 $-1 $30 $11 #
-20 cface $-1 -1 $31 $12 $32 0 #
-21 cface $-1 -1 $33 $34 $9 1 #
-22 cface $-1 -1 $35 $29 $9 0 #
-23 cface_ptr-ct-attrib $-1 -1 $-1 $-1 $14 1 1 1 1 1 1 1 1 1 1 1 1 0 1 0 1 1 1 $36 $37 #
-24 face $38 -1 -1 $-1 $39 $40 $5 $-1 $41 forward single F F #
-25 loop $-1 -1 -1 $-1 $-1 $42 $14 F unknown #
-26 coedge $-1 -1 -1 $-1 $43 $44 $45 $46 forward $15 $-1 #
-27 string_attrib-name_attrib-gen-attrib $-1 -1 $47 $17 $2 2 1 1 1 1 1 1 1 1 1 1 1 1 1 0 1 1 1 @23 ATTRIB_XACIS_LAYER_NAME @4 NONE #
-28 cell3d-cell $-1 -1 $-1 $2 $-1 1 $34 #
-29 cshell $-1 -1 $-1 $48 $18 #
-30 cface $-1 -1 $49 $19 $50 0 #
-31 cface $-1 -1 $51 $12 $52 0 #
-32 face $53 -1 -1 $-1 $54 $55 $5 $-1 $56 forward single F F #
-33 cface $-1 -1 $-1 $34 $57 0 #
-34 cshell $-1 -1 $-1 $58 $28 #
-35 cface $-1 -1 $-1 $29 $54 0 #
-36 cface $-1 -1 $59 $19 $14 1 #
-37 cface $-1 -1 $60 $12 $14 0 #
-38 cface_ptr-ct-attrib $-1 -1 $-1 $-1 $24 1 1 1 1 1 1 1 1 1 1 1 1 0 1 0 1 1 1 $-1 $49 #
-39 face $61 -1 -1 $-1 $62 $63 $5 $-1 $64 forward single F F #
-40 loop $65 -1 -1 $-1 $-1 $66 $24 F unknown #
-41 cone-surface $-1 -1 -1 $-1 5 5 -1.7763568394002505e-15 0 -6.123233995736766e-17 -1 0 -2.5000000000000004 1.5308084989341918e-16 1 I I -0.24253562503633305 0.97014250014533188 2.5000000000000004 reversed I I I I #
-42 coedge $-1 -1 -1 $-1 $67 $68 $69 $70 forward $25 $-1 #
-43 coedge $-1 -1 -1 $-1 $71 $26 $72 $73 forward $15 $-1 #
-44 coedge $-1 -1 -1 $-1 $26 $71 $74 $75 forward $15 $-1 #
-45 coedge $-1 -1 -1 $-1 $76 $77 $68 $46 forward $78 $-1 #
-46 edge $-1 -1 -1 $-1 $79 -5.0000000000000009 $80 5 $45 $81 forward @7 unknown F #
-47 integer_attrib-name_attrib-gen-attrib $-1 -1 $82 $27 $2 2 1 1 1 1 1 1 1 1 1 1 1 1 1 0 1 1 1 @18 ATTRIB_XACIS_LAYER -1 #
-48 cface $-1 -1 $83 $29 $84 0 #
-49 cface $-1 -1 $85 $19 $24 0 #
-50 face $86 -1 -1 $-1 $52 $87 $5 $-1 $64 forward single F F #
-51 cface $-1 -1 $37 $12 $39 0 #
-52 face $88 -1 -1 $-1 $32 $89 $5 $-1 $41 forward single F F #
-53 cface_ptr-ct-attrib $-1 -1 $90 $-1 $32 1 1 1 1 1 1 1 1 1 1 1 1 0 1 0 1 1 1 $-1 $20 #
-54 face $91 -1 -1 $-1 $92 $93 $5 $-1 $64 forward single F F #
-55 loop $-1 -1 -1 $-1 $-1 $94 $32 F unknown #
-56 plane-surface $-1 -1 -1 $-1 10 5 10 0 6.123233995736766e-17 1 1 0 0 forward_v I I I I #
-57 face $95 -1 -1 $-1 $96 $97 $5 $-1 $64 forward single F F #
-58 cface $-1 -1 $98 $34 $99 0 #
-59 cface $-1 -1 $-1 $19 $100 1 #
-60 cface $-1 -1 $-1 $12 $96 1 #
-61 cface_ptr-ct-attrib $-1 -1 $-1 $-1 $39 1 1 1 1 1 1 1 1 1 1 1 1 0 1 0 1 1 1 $-1 $51 #
-62 face $101 -1 -1 $-1 $84 $102 $5 $-1 $103 forward single F F #
-63 loop $104 -1 -1 $-1 $-1 $105 $39 F unknown #
-64 plane-surface $-1 -1 -1 $-1 7.5 5 -8.8817841970012523e-16 0 -6.123233995736766e-17 -1 0 1 -6.123233995736766e-17 forward_v I I I I #
-65 string_attrib-name_attrib-gen-attrib $-1 -1 $-1 $-1 $40 2 1 1 1 1 1 1 1 1 1 1 1 1 1 0 1 1 1 @15 ATTRIB_XACIS_ID @2 -1 #
-66 coedge $-1 -1 -1 $-1 $106 $107 $108 $109 forward $40 $-1 #
-67 coedge $-1 -1 -1 $-1 $110 $42 $66 $109 forward $25 $-1 #
-68 coedge $-1 -1 -1 $-1 $42 $110 $111 $46 reversed $25 $-1 #
-69 coedge $-1 -1 -1 $-1 $112 $113 $105 $70 forward $87 $-1 #
-70 edge $-1 -1 -1 $-1 $79 -1.2500000000000002 $114 1.2500000000000002 $69 $115 forward @7 unknown F #
-71 coedge $-1 -1 -1 $-1 $44 $43 $116 $117 forward $15 $-1 #
-72 coedge $-1 -1 -1 $-1 $118 $119 $120 $73 forward $121 $-1 #
-73 edge $-1 -1 -1 $-1 $80 2.5 $122 7.5 $72 $123 forward @7 unknown F #
-74 coedge $-1 -1 -1 $-1 $124 $125 $126 $75 forward $97 $-1 #
-75 edge $-1 -1 -1 $-1 $127 -3.7500000000000009 $79 -1.2500000000000002 $74 $128 forward @7 unknown F #
-76 coedge $-1 -1 -1 $-1 $129 $45 $130 $131 forward $78 $-1 #
-77 coedge $-1 -1 -1 $-1 $45 $129 $113 $132 forward $78 $-1 #
-78 loop $-1 -1 -1 $-1 $-1 $45 $100 F unknown #
-79 vertex $-1 -1 -1 $-1 $133 $134 #
-80 vertex $-1 -1 -1 $-1 $131 $135 #
-81 straight-curve $-1 -1 -1 $-1 5 5 5 0 6.123233995736766e-17 1 I I #
-82 rgb_color-st-attrib $-1 -1 $-1 $47 $2 2 1 2 1 1 1 1 1 1 1 1 1 1 1 0 1 1 1 0.7921568751335144 0.81960785388946533 0.93333333730697632 #
-83 cface $-1 -1 $136 $29 $96 0 #
-84 face $137 -1 -1 $-1 $138 $139 $5 $-1 $56 forward single F F #
-85 cface $-1 -1 $36 $19 $138 0 #
-86 cface_ptr-ct-attrib $-1 -1 $-1 $-1 $50 1 1 1 1 1 1 1 1 1 1 1 1 0 1 0 1 1 1 $-1 $30 #
-87 loop $-1 -1 -1 $-1 $-1 $69 $50 F unknown #
-88 cface_ptr-ct-attrib $-1 -1 $140 $-1 $52 1 1 1 1 1 1 1 1 1 1 1 1 0 1 0 1 1 1 $-1 $31 #
-89 loop $-1 -1 -1 $-1 $-1 $108 $52 F unknown #
-90 string_attrib-name_attrib-gen-attrib $-1 -1 $-1 $53 $32 2 1 1 1 1 1 1 1 1 1 1 1 1 1 0 1 1 1 @15 ATTRIB_XACIS_ID @2 71 #
-91 cface_ptr-ct-attrib $-1 -1 $141 $-1 $54 1 1 1 1 1 1 1 1 1 1 1 1 0 1 0 1 1 1 $-1 $35 #
-92 face $142 -1 -1 $-1 $-1 $143 $5 $-1 $103 forward single F F #
-93 loop $-1 -1 -1 $-1 $-1 $126 $54 F unknown #
-94 coedge $-1 -1 -1 $-1 $144 $145 $110 $146 reversed $55 $-1 #
-95 cface_ptr-ct-attrib $-1 -1 $-1 $-1 $57 1 1 1 1 1 1 1 1 1 1 1 1 0 1 0 1 1 1 $-1 $33 #
-96 face $147 -1 -1 $-1 $100 $148 $5 $-1 $149 forward double in F F #
-97 loop $-1 -1 -1 $-1 $-1 $74 $57 F unknown #
-98 cface $-1 -1 $150 $34 $62 0 #
-99 face $151 -1 -1 $-1 $50 $121 $5 $-1 $56 forward single F F #
-100 face $152 -1 -1 $-1 $99 $78 $5 $-1 $149 forward double in F F #
-101 cface_ptr-ct-attrib $-1 -1 $-1 $-1 $62 1 1 1 1 1 1 1 1 1 1 1 1 0 1 0 1 1 1 $-1 $98 #
-102 loop $153 -1 -1 $-1 $-1 $116 $62 F unknown #
-103 cone-surface $-1 -1 -1 $-1 5 5 -1.7763568394002505e-15 0 -6.123233995736766e-17 -1 0 -2.5000000000000004 1.5308084989341918e-16 1 I I -0.24253562503633305 0.97014250014533188 2.5000000000000004 reversed I I I I #
-104 string_attrib-name_attrib-gen-attrib $-1 -1 $-1 $-1 $63 2 1 1 1 1 1 1 1 1 1 1 1 1 1 0 1 1 1 @15 ATTRIB_XACIS_ID @2 -1 #
-105 coedge $-1 -1 -1 $-1 $154 $155 $42 $70 reversed $63 $-1 #
-106 coedge $-1 -1 -1 $-1 $156 $66 $157 $158 forward $40 $-1 #
-107 coedge $-1 -1 -1 $-1 $66 $156 $112 $159 reversed $40 $-1 #
-108 coedge $-1 -1 -1 $-1 $160 $161 $67 $109 reversed $89 $-1 #
-109 edge $-1 -1 -1 $-1 $114 0 $162 10.307764064044152 $66 $163 forward @7 unknown F #
-110 coedge $-1 -1 -1 $-1 $68 $67 $164 $146 forward $25 $-1 #
-111 coedge $-1 -1 -1 $-1 $165 $166 $26 $46 reversed $148 $-1 #
-112 coedge $-1 -1 -1 $-1 $113 $69 $107 $159 forward $87 $-1 #
-113 coedge $-1 -1 -1 $-1 $69 $112 $124 $132 forward $87 $-1 #
-114 vertex $-1 -1 -1 $-1 $159 $167 #
-115 straight-curve $-1 -1 -1 $-1 6.25 5 -8.8817841970012523e-16 1 0 0 I I #
-116 coedge $-1 -1 -1 $-1 $168 $169 $170 $117 forward $102 $-1 #
-117 edge $-1 -1 -1 $-1 $122 -10.307764064044152 $127 0 $116 $171 forward @7 unknown F #
-118 coedge $-1 -1 -1 $-1 $119 $72 $169 $172 reversed $121 $-1 #
-119 coedge $-1 -1 -1 $-1 $72 $118 $76 $131 reversed $121 $-1 #
-120 coedge $-1 -1 -1 $-1 $173 $174 $43 $73 reversed $139 $-1 #
-121 loop $-1 -1 -1 $-1 $-1 $72 $99 F unknown #
-122 vertex $-1 -1 -1 $-1 $175 $176 #
-123 straight-curve $-1 -1 -1 $-1 7.5 5 10 -1 -0 0 I I #
-124 coedge $-1 -1 -1 $-1 $125 $74 $77 $132 reversed $97 $-1 #
-125 coedge $-1 -1 -1 $-1 $74 $124 $168 $177 forward $97 $-1 #
-126 coedge $-1 -1 -1 $-1 $178 $179 $44 $75 reversed $93 $-1 #
-127 vertex $-1 -1 -1 $-1 $180 $181 #
-128 straight-curve $-1 -1 -1 $-1 6.25 5 -8.8817841970012523e-16 1 0 0 I I #
-129 coedge $-1 -1 -1 $-1 $77 $76 $182 $183 reversed $78 $-1 #
-130 coedge $-1 -1 -1 $-1 $157 $164 $119 $131 forward $184 $-1 #
-131 edge $-1 -1 -1 $-1 $80 0 $185 5 $130 $186 forward @7 unknown F #
-132 edge $-1 -1 -1 $-1 $187 -2.5000000000000004 $79 0 $113 $188 forward @7 unknown F #
-133 edge $-1 -1 -1 $-1 $79 0 $189 2.5000000000000004 $154 $188 forward @7 unknown F #
-134 point $-1 -1 -1 $-1 5 5 -8.8817841970012523e-16 #
-135 point $-1 -1 -1 $-1 5 5 10 #
-136 cface $-1 -1 $22 $29 $92 0 #
-137 cface_ptr-ct-attrib $-1 -1 $-1 $-1 $84 1 1 1 1 1 1 1 1 1 1 1 1 0 1 0 1 1 1 $-1 $48 #
-138 face $190 -1 -1 $-1 $57 $184 $5 $-1 $56 forward single F F #
-139 loop $191 -1 -1 $-1 $-1 $120 $84 F unknown #
-140 string_attrib-name_attrib-gen-attrib $-1 -1 $-1 $88 $52 2 1 1 1 1 1 1 1 1 1 1 1 1 1 0 1 1 1 @15 ATTRIB_XACIS_ID @2 44 #
-141 string_attrib-name_attrib-gen-attrib $-1 -1 $-1 $91 $54 2 1 1 1 1 1 1 1 1 1 1 1 1 1 0 1 1 1 @15 ATTRIB_XACIS_ID @2 29 #
-142 cface_ptr-ct-attrib $-1 -1 $192 $-1 $92 1 1 1 1 1 1 1 1 1 1 1 1 0 1 0 1 1 1 $-1 $136 #
-143 loop $-1 -1 -1 $-1 $-1 $170 $92 F unknown #
-144 coedge $-1 -1 -1 $-1 $145 $94 $161 $193 reversed $55 $-1 #
-145 coedge $-1 -1 -1 $-1 $94 $144 $173 $194 forward $55 $-1 #
-146 edge $-1 -1 -1 $-1 $162 -2.5 $80 2.5 $164 $195 forward @7 unknown F #
-147 cface_ptr-ct-attrib $-1 -1 $-1 $-1 $96 1 1 1 1 1 1 1 1 1 1 1 1 0 1 0 1 1 1 $60 $83 #
-148 loop $-1 -1 -1 $-1 $-1 $111 $96 F unknown #
-149 plane-surface $-1 -1 -1 $-1 5 5 5 1 0 0 0 1 -6.123233995736766e-17 forward_v I I I I #
-150 cface $-1 -1 $21 $34 $100 0 #
-151 cface_ptr-ct-attrib $-1 -1 $-1 $-1 $99 1 1 1 1 1 1 1 1 1 1 1 1 0 1 0 1 1 1 $-1 $58 #
-152 cface_ptr-ct-attrib $-1 -1 $-1 $-1 $100 1 1 1 1 1 1 1 1 1 1 1 1 0 1 0 1 1 1 $59 $150 #
-153 string_attrib-name_attrib-gen-attrib $-1 -1 $-1 $-1 $102 2 1 1 1 1 1 1 1 1 1 1 1 1 1 0 1 1 1 @15 ATTRIB_XACIS_ID @2 -1 #
-154 coedge $-1 -1 -1 $-1 $155 $105 $179 $133 forward $63 $-1 #
-155 coedge $-1 -1 -1 $-1 $105 $154 $160 $196 forward $63 $-1 #
-156 coedge $-1 -1 -1 $-1 $107 $106 $129 $183 reversed $40 $-1 #
-157 coedge $-1 -1 -1 $-1 $164 $130 $106 $158 reversed $184 $-1 #
-158 edge $-1 -1 -1 $-1 $162 1.5707963267948966 $185 3.1415926535897931 $106 $197 forward @7 unknown F #
-159 edge $-1 -1 -1 $-1 $114 1.5707963267948966 $187 3.1415926535897931 $107 $198 forward @7 unknown F #
-160 coedge $-1 -1 -1 $-1 $199 $108 $155 $196 reversed $89 $-1 #
-161 coedge $-1 -1 -1 $-1 $108 $199 $144 $193 forward $89 $-1 #
-162 vertex $-1 -1 -1 $-1 $158 $200 #
-163 straight-curve $-1 -1 -1 $-1 7.5 5 -1.7763568394002505e-15 0.242535625036333 5.9404095375989551e-17 0.97014250014533165 I I #
-164 coedge $-1 -1 -1 $-1 $130 $157 $94 $146 forward $184 $-1 #
-165 coedge $-1 -1 -1 $-1 $201 $111 $154 $133 forward $148 $-1 #
-166 coedge $-1 -1 -1 $-1 $111 $201 $145 $194 forward $148 $-1 #
-167 point $-1 -1 -1 $-1 7.5 5 -1.7763568394002505e-15 #
-168 coedge $-1 -1 -1 $-1 $182 $116 $125 $177 reversed $102 $-1 #
-169 coedge $-1 -1 -1 $-1 $116 $182 $118 $172 forward $102 $-1 #
-170 coedge $-1 -1 -1 $-1 $202 $203 $71 $117 reversed $143 $-1 #
-171 straight-curve $-1 -1 -1 $-1 2.4999999999999996 5 -1.7763568394002505e-15 0.242535625036333 -5.9404095375989551e-17 -0.97014250014533165 I I #
-172 edge $204 -1 -1 $-1 $185 3.1415926535897931 $122 4.7123889803846897 $118 $205 forward @7 unknown F #
-173 coedge $-1 -1 -1 $-1 $174 $120 $166 $194 reversed $139 $-1 #
-174 coedge $-1 -1 -1 $-1 $120 $173 $202 $175 reversed $139 $-1 #
-175 edge $-1 -1 -1 $-1 $122 4.7123889803846897 $206 6.2831853071795862 $174 $205 forward @7 unknown F #
-176 point $-1 -1 -1 $-1 0 5 10 #
-177 edge $207 -1 -1 $-1 $187 3.1415926535897931 $127 4.7123889803846897 $125 $208 forward @7 unknown F #
-178 coedge $-1 -1 -1 $-1 $179 $126 $203 $180 forward $93 $-1 #
-179 coedge $-1 -1 -1 $-1 $126 $178 $165 $133 reversed $93 $-1 #
-180 edge $-1 -1 -1 $-1 $127 4.7123889803846897 $189 6.2831853071795862 $178 $208 forward @7 unknown F #
-181 point $-1 -1 -1 $-1 2.4999999999999996 5 -1.7763568394002505e-15 #
-182 coedge $-1 -1 -1 $-1 $169 $168 $156 $183 forward $102 $-1 #
-183 edge $209 -1 -1 $-1 $187 0 $185 0.010307764064044154 $156 $210 forward @7 unknown F #
-184 loop $-1 -1 -1 $-1 $-1 $164 $138 F unknown #
-185 vertex $211 -1 -1 $-1 $172 $212 #
-186 straight-curve $-1 -1 -1 $-1 5 5 10 0 -1 6.123233995736766e-17 I I #
-187 vertex $213 -1 -1 $-1 $159 $214 #
-188 straight-curve $-1 -1 -1 $-1 5 5 -8.8817841970012523e-16 0 1 -6.123233995736766e-17 I I #
-189 vertex $215 -1 -1 $-1 $196 $216 #
-190 cface_ptr-ct-attrib $-1 -1 $-1 $-1 $138 1 1 1 1 1 1 1 1 1 1 1 1 0 1 0 1 1 1 $-1 $85 #
-191 string_attrib-name_attrib-gen-attrib $-1 -1 $-1 $-1 $139 2 1 1 1 1 1 1 1 1 1 1 1 1 1 0 1 1 1 @15 ATTRIB_XACIS_ID @2 -1 #
-192 string_attrib-name_attrib-gen-attrib $-1 -1 $-1 $142 $92 2 1 1 1 1 1 1 1 1 1 1 1 1 1 0 1 1 1 @15 ATTRIB_XACIS_ID @3 121 #
-193 edge $217 -1 -1 $-1 $206 0 $162 1.5707963267948966 $161 $197 forward @7 unknown F #
-194 edge $-1 -1 -1 $-1 $206 -5 $80 0 $145 $186 forward @7 unknown F #
-195 straight-curve $-1 -1 -1 $-1 7.5 5 10 -1 -0 0 I I #
-196 edge $218 -1 -1 $-1 $189 0 $114 1.5707963267948966 $160 $198 forward @7 unknown F #
-197 ellipse-curve $-1 -1 -1 $-1 5 5 10 0 -6.123233995736766e-17 -1 0 5 -3.0616169978683831e-16 1 F 0 F 3.1415926535897931 #
-198 ellipse-curve $-1 -1 -1 $-1 5 5 -1.7763568394002505e-15 0 -6.123233995736766e-17 -1 0 2.5000000000000004 -1.5308084989341918e-16 1 F 0 F 3.1415926535897931 #
-199 coedge $-1 -1 -1 $-1 $161 $160 $219 $220 forward $89 $-1 #
-200 point $-1 -1 -1 $-1 10 5 10 #
-201 coedge $-1 -1 -1 $-1 $166 $165 $199 $220 forward $148 $-1 #
-202 coedge $-1 -1 -1 $-1 $219 $170 $174 $175 forward $143 $-1 #
-203 coedge $-1 -1 -1 $-1 $170 $219 $178 $180 reversed $143 $-1 #
-204 string_attrib-name_attrib-gen-attrib $-1 -1 $-1 $-1 $172 2 1 1 1 1 1 1 1 1 1 1 1 1 1 0 1 1 1 @15 ATTRIB_XACIS_ID @2 21 #
-205 ellipse-curve $-1 -1 -1 $-1 5 5 10 0 -6.123233995736766e-17 -1 0 5 -3.0616169978683831e-16 1 F 3.1415926535897931 F 6.2831853071795862 #
-206 vertex $221 -1 -1 $-1 $175 $222 #
-207 string_attrib-name_attrib-gen-attrib $-1 -1 $-1 $-1 $177 2 1 1 1 1 1 1 1 1 1 1 1 1 1 0 1 1 1 @15 ATTRIB_XACIS_ID @2 98 #
-208 ellipse-curve $-1 -1 -1 $-1 5 5 -1.7763568394002505e-15 0 -6.123233995736766e-17 -1 0 2.5000000000000004 -1.5308084989341918e-16 1 F 3.1415926535897931 F 6.2831853071795862 #
-209 string_attrib-name_attrib-gen-attrib $-1 -1 $-1 $-1 $183 2 1 1 1 1 1 1 1 1 1 1 1 1 1 0 1 1 1 @15 ATTRIB_XACIS_ID @3 110 #
-210 straight-curve $-1 -1 -1 $-1 5 2.4999999999999991 -1.7763568394002505e-15 0 -242.53562503633276 970.14250014533172 F 0 F 0.010307764064044154 #
-211 string_attrib-name_attrib-gen-attrib $-1 -1 $-1 $-1 $185 2 1 1 1 1 1 1 1 1 1 1 1 1 1 0 1 1 1 @15 ATTRIB_XACIS_ID @3 101 #
-212 point $-1 -1 -1 $-1 5 0 10 #
-213 string_attrib-name_attrib-gen-attrib $-1 -1 $-1 $-1 $187 2 1 1 1 1 1 1 1 1 1 1 1 1 1 0 1 1 1 @15 ATTRIB_XACIS_ID @2 32 #
-214 point $-1 -1 -1 $-1 5 2.4999999999999991 -1.7763568394002505e-15 #
-215 string_attrib-name_attrib-gen-attrib $-1 -1 $-1 $-1 $189 2 1 1 1 1 1 1 1 1 1 1 1 1 1 0 1 1 1 @15 ATTRIB_XACIS_ID @2 24 #
-216 point $-1 -1 -1 $-1 5.0000000000000009 7.5 -1.7763568394002505e-15 #
-217 string_attrib-name_attrib-gen-attrib $-1 -1 $-1 $-1 $193 2 1 1 1 1 1 1 1 1 1 1 1 1 1 0 1 1 1 @15 ATTRIB_XACIS_ID @2 93 #
-218 string_attrib-name_attrib-gen-attrib $-1 -1 $-1 $-1 $196 2 1 1 1 1 1 1 1 1 1 1 1 1 1 0 1 1 1 @15 ATTRIB_XACIS_ID @2 31 #
-219 coedge $-1 -1 -1 $-1 $203 $202 $201 $220 reversed $143 $-1 #
-220 edge $223 -1 -1 $-1 $189 4.5468147036531051e-36 $206 0.010307764064044154 $199 $224 forward @7 unknown F #
-221 string_attrib-name_attrib-gen-attrib $-1 -1 $-1 $-1 $206 2 1 1 1 1 1 1 1 1 1 1 1 1 1 0 1 1 1 @15 ATTRIB_XACIS_ID @2 89 #
-222 point $-1 -1 -1 $-1 5.0000000000000009 10 10 #
-223 string_attrib-name_attrib-gen-attrib $-1 -1 $-1 $-1 $220 2 1 1 1 1 1 1 1 1 1 1 1 1 1 0 1 1 1 @15 ATTRIB_XACIS_ID @2 80 #
-224 straight-curve $-1 -1 -1 $-1 5 7.5 -1.7763568394002505e-15 2.970204768799477e-14 242.53562503633287 970.14250014533172 F 4.5468147036531051e-36 F 0.010307764064044154 #
End-of-ACIS-data 
