2600 0 1 0           
17 Abaqus 2022 - 310 12 ACIS 31.0 NT 24 Tue Apr  9 16:33:44 2024 
1 9.9999999999999995e-07 1e-10 
T @77 BVPM_C5CDQAK2P97AX672EYJQ74M75QA_D5CF8647C3VM65A79SBJJ7WX8MBKM777CSKJE7AQB_VJ 
-0 body $1 -1 -1 $-1 $2 $-1 $-1 F #
-1 string_attrib-name_attrib-gen-attrib $-1 -1 $3 $-1 $0 2 1 1 1 1 1 1 1 1 1 1 1 1 1 0 1 1 1 @18 HKS_ATTRIB_BODY_ID @1 1 #
-2 lump $4 -1 -1 $-1 $-1 $5 $0 F #
-3 string_attrib-name_attrib-gen-attrib $-1 -1 $6 $1 $0 2 1 1 1 1 1 1 1 1 1 1 1 1 1 0 1 1 1 @15 ATTRIB_XACIS_ID @2 33 #
-4 cell_ptr-ct-attrib $-1 -1 $7 $-1 $2 1 1 1 1 1 1 1 1 1 1 1 1 0 1 0 1 1 1 $8 $-1 auto #
-5 shell $-1 -1 -1 $-1 $-1 $-1 $9 $-1 $2 F #
-6 rgb_color-st-attrib $-1 -1 $-1 $3 $0 2 1 2 1 1 1 1 1 1 1 1 1 1 1 0 1 1 1 0.7921568751335144 0.81960785388946533 0.93333333730697632 #
-7 string_attrib-name_attrib-gen-attrib $-1 -1 $10 $4 $2 2 1 1 1 1 1 1 1 1 1 1 1 1 1 0 1 1 1 @15 ATTRIB_XACIS_ID @2 33 #
-8 cell3d-cell $-1 -1 $11 $2 $-1 1 $12 #
-9 face $13 -1 -1 $-1 $14 $15 $5 $-1 $16 forward double in F F #
-10 string_attrib-name_attrib-gen-attrib $-1 -1 $17 $7 $2 2 1 1 1 1 1 1 1 1 1 1 1 1 1 0 1 1 1 @23 ATTRIB_XSTEP_PRODUCT_ID @17 reverse_hourglass #
-11 cell3d-cell $-1 -1 $18 $2 $-1 1 $19 #
-12 cshell $-1 -1 $-1 $20 $8 #
-13 cface_ptr-ct-attrib $-1 -1 $-1 $-1 $9 1 1 1 1 1 1 1 1 1 1 1 1 0 1 0 1 1 1 $21 $22 #
-14 face $23 -1 -1 $-1 $24 $25 $5 $-1 $16 forward double in F F #
-15 loop $-1 -1 -1 $-1 $-1 $26 $9 F unknown #
-16 plane-surface $-1 -1 -1 $-1 6.75 6.75 5 0 -1 6.123233995736766e-17 1 0 0 forward_v I I I I #
-17 string_attrib-name_attrib-gen-attrib $-1 -1 $27 $10 $2 2 1 1 1 1 1 1 1 1 1 1 1 1 1 0 1 1 1 @17 ATTRIB_XACIS_NAME @8 Revolve1 #
-18 cell3d-cell $-1 -1 $28 $2 $-1 1 $29 #
-19 cshell $-1 -1 $-1 $30 $11 #
-20 cface $-1 -1 $31 $12 $32 1 #
-21 cface $-1 -1 $33 $34 $9 1 #
-22 cface $-1 -1 $35 $36 $9 0 #
-23 cface_ptr-ct-attrib $-1 -1 $-1 $-1 $14 1 1 1 1 1 1 1 1 1 1 1 1 0 1 0 1 1 1 $37 $38 #
-24 face $39 -1 -1 $-1 $40 $41 $5 $-1 $16 forward double in F F #
-25 loop $-1 -1 -1 $-1 $-1 $42 $14 F unknown #
-26 coedge $-1 -1 -1 $-1 $43 $44 $45 $46 forward $15 $-1 #
-27 string_attrib-name_attrib-gen-attrib $-1 -1 $47 $17 $2 2 1 1 1 1 1 1 1 1 1 1 1 1 1 0 1 1 1 @23 ATTRIB_XACIS_LAYER_NAME @4 NONE #
-28 cell3d-cell $-1 -1 $48 $2 $-1 1 $49 #
-29 cshell $-1 -1 $-1 $50 $18 #
-30 cface $-1 -1 $51 $19 $52 1 #
-31 cface $-1 -1 $53 $12 $54 1 #
-32 face $55 -1 -1 $-1 $56 $57 $5 $-1 $58 forward double in F F #
-33 cface $-1 -1 $-1 $34 $59 0 #
-34 cshell $-1 -1 $-1 $60 $61 #
-35 cface $-1 -1 $-1 $36 $62 0 #
-36 cshell $-1 -1 $-1 $63 $64 #
-37 cface $-1 -1 $65 $49 $14 1 #
-38 cface $-1 -1 $66 $12 $14 0 #
-39 cface_ptr-ct-attrib $-1 -1 $-1 $-1 $24 1 1 1 1 1 1 1 1 1 1 1 1 0 1 0 1 1 1 $67 $68 #
-40 face $69 -1 -1 $-1 $70 $71 $5 $-1 $16 forward double in F F #
-41 loop $-1 -1 -1 $-1 $-1 $72 $24 F unknown #
-42 coedge $-1 -1 -1 $-1 $73 $74 $75 $76 reversed $25 $-1 #
-43 coedge $-1 -1 -1 $-1 $77 $26 $78 $79 reversed $15 $-1 #
-44 coedge $-1 -1 -1 $-1 $26 $77 $80 $81 forward $15 $-1 #
-45 coedge $-1 -1 -1 $-1 $82 $83 $73 $46 forward $84 $-1 #
-46 edge $-1 -1 -1 $-1 $85 -6.7500000000000009 $86 0 $45 $87 forward @7 unknown F #
-47 integer_attrib-name_attrib-gen-attrib $-1 -1 $88 $27 $2 2 1 1 1 1 1 1 1 1 1 1 1 1 1 0 1 1 1 @18 ATTRIB_XACIS_LAYER -1 #
-48 cell3d-cell $-1 -1 $89 $2 $-1 1 $90 #
-49 cshell $-1 -1 $-1 $91 $28 #
-50 cface $-1 -1 $92 $29 $93 0 #
-51 cface $-1 -1 $94 $19 $54 0 #
-52 face $95 -1 -1 $-1 $96 $97 $5 $-1 $58 forward double in F F #
-53 cface $-1 -1 $38 $12 $98 0 #
-54 face $99 -1 -1 $-1 $100 $101 $5 $-1 $102 forward double in F F #
-55 cface_ptr-ct-attrib $-1 -1 $-1 $-1 $32 1 1 1 1 1 1 1 1 1 1 1 1 0 1 0 1 1 1 $20 $63 #
-56 face $103 -1 -1 $-1 $104 $105 $5 $-1 $58 forward double in F F #
-57 loop $-1 -1 -1 $-1 $-1 $106 $32 F unknown #
-58 plane-surface $-1 -1 -1 $-1 6.75 6.75 5 0 6.123233995736766e-17 1 0 -1 6.123233995736766e-17 forward_v I I I I #
-59 face $107 -1 -1 $-1 $108 $109 $5 $-1 $110 forward single F F #
-60 cface $-1 -1 $111 $34 $104 0 #
-61 cell3d-cell $-1 -1 $-1 $2 $-1 1 $34 #
-62 face $112 -1 -1 $-1 $113 $114 $5 $-1 $110 forward single F F #
-63 cface $-1 -1 $115 $36 $32 0 #
-64 cell3d-cell $-1 -1 $61 $2 $-1 1 $36 #
-65 cface $-1 -1 $-1 $49 $116 0 #
-66 cface $-1 -1 $-1 $12 $70 0 #
-67 cface $-1 -1 $117 $90 $24 1 #
-68 cface $-1 -1 $118 $19 $24 0 #
-69 cface_ptr-ct-attrib $-1 -1 $-1 $-1 $40 1 1 1 1 1 1 1 1 1 1 1 1 0 1 0 1 1 1 $119 $120 #
-70 face $121 -1 -1 $-1 $122 $123 $5 $-1 $124 forward single F F #
-71 loop $-1 -1 -1 $-1 $-1 $125 $40 F unknown #
-72 coedge $-1 -1 -1 $-1 $126 $127 $128 $129 reversed $41 $-1 #
-73 coedge $-1 -1 -1 $-1 $130 $42 $106 $46 reversed $25 $-1 #
-74 coedge $-1 -1 -1 $-1 $42 $130 $131 $132 forward $25 $-1 #
-75 coedge $-1 -1 -1 $-1 $133 $134 $126 $76 reversed $101 $-1 #
-76 edge $-1 -1 -1 $-1 $86 0 $135 5 $136 $137 forward @7 unknown F #
-77 coedge $-1 -1 -1 $-1 $44 $43 $138 $139 forward $15 $-1 #
-78 coedge $-1 -1 -1 $-1 $140 $141 $142 $79 reversed $143 $-1 #
-79 edge $-1 -1 -1 $-1 $144 -5.0000000000000009 $86 0 $145 $146 forward @7 unknown F #
-80 coedge $-1 -1 -1 $-1 $147 $148 $149 $81 forward $150 $-1 #
-81 edge $-1 -1 -1 $-1 $151 0 $85 6.5622023742033448 $80 $152 forward @7 unknown F #
-82 coedge $-1 -1 -1 $-1 $83 $45 $153 $154 reversed $84 $-1 #
-83 coedge $-1 -1 -1 $-1 $45 $82 $147 $155 reversed $84 $-1 #
-84 loop $-1 -1 -1 $-1 $-1 $45 $104 F unknown #
-85 vertex $-1 -1 -1 $-1 $155 $156 #
-86 vertex $-1 -1 -1 $-1 $157 $158 #
-87 straight-curve $-1 -1 -1 $-1 6.75 6.75 5 -1 0 0 I I #
-88 rgb_color-st-attrib $-1 -1 $-1 $47 $2 2 1 2 1 1 1 1 1 1 1 1 1 1 1 0 1 1 1 0.7921568751335144 0.81960785388946533 0.93333333730697632 #
-89 cell3d-cell $-1 -1 $64 $2 $-1 1 $159 #
-90 cshell $-1 -1 $-1 $160 $48 #
-91 cface $-1 -1 $161 $49 $104 1 #
-92 cface $-1 -1 $162 $29 $163 0 #
-93 face $164 -1 -1 $-1 $116 $165 $5 $-1 $110 forward single F F #
-94 cface $-1 -1 $68 $19 $113 0 #
-95 cface_ptr-ct-attrib $-1 -1 $-1 $-1 $52 1 1 1 1 1 1 1 1 1 1 1 1 0 1 0 1 1 1 $30 $166 #
-96 face $167 -1 -1 $-1 $32 $150 $5 $-1 $168 forward single F F #
-97 loop $-1 -1 -1 $-1 $-1 $128 $52 F unknown #
-98 face $169 -1 -1 $-1 $59 $170 $5 $-1 $171 forward single F F #
-99 cface_ptr-ct-attrib $-1 -1 $-1 $-1 $54 1 1 1 1 1 1 1 1 1 1 1 1 0 1 0 1 1 1 $31 $51 #
-100 face $172 -1 -1 $-1 $163 $173 $5 $-1 $174 forward single F F #
-101 loop $-1 -1 -1 $-1 $-1 $75 $54 F unknown #
-102 plane-surface $-1 -1 -1 $-1 6.75 6.75 5 1 0 0 0 1 -6.123233995736766e-17 forward_v I I I I #
-103 cface_ptr-ct-attrib $-1 -1 $-1 $-1 $56 1 1 1 1 1 1 1 1 1 1 1 1 0 1 0 1 1 1 $175 $176 #
-104 face $177 -1 -1 $-1 $178 $84 $5 $-1 $58 forward double in F F #
-105 loop $-1 -1 -1 $-1 $-1 $179 $56 F unknown #
-106 coedge $-1 -1 -1 $-1 $180 $181 $26 $46 reversed $57 $-1 #
-107 cface_ptr-ct-attrib $-1 -1 $-1 $-1 $59 1 1 1 1 1 1 1 1 1 1 1 1 0 1 0 1 1 1 $-1 $33 #
-108 face $182 -1 -1 $-1 $52 $183 $5 $-1 $102 forward double in F F #
-109 loop $-1 -1 -1 $-1 $-1 $138 $59 F unknown #
-110 plane-surface $-1 -1 -1 $-1 9.25 6.75 -8.8817841970012523e-16 0 -6.123233995736766e-17 -1 0 1 -6.123233995736766e-17 forward_v I I I I #
-111 cface $-1 -1 $184 $34 $108 1 #
-112 cface_ptr-ct-attrib $-1 -1 $185 $-1 $62 1 1 1 1 1 1 1 1 1 1 1 1 0 1 0 1 1 1 $-1 $35 #
-113 face $186 -1 -1 $-1 $187 $188 $5 $-1 $124 forward single F F #
-114 loop $-1 -1 -1 $-1 $-1 $189 $62 F unknown #
-115 cface $-1 -1 $190 $36 $191 0 #
-116 face $192 -1 -1 $-1 $193 $194 $5 $-1 $124 forward single F F #
-117 cface $-1 -1 $-1 $90 $100 0 #
-118 cface $-1 -1 $-1 $19 $187 0 #
-119 cface $-1 -1 $176 $159 $40 1 #
-120 cface $-1 -1 $166 $29 $40 0 #
-121 cface_ptr-ct-attrib $-1 -1 $-1 $-1 $70 1 1 1 1 1 1 1 1 1 1 1 1 0 1 0 1 1 1 $-1 $66 #
-122 face $195 -1 -1 $-1 $54 $196 $5 $-1 $124 forward single F F #
-123 loop $197 -1 -1 $-1 $-1 $198 $70 F unknown #
-124 plane-surface $-1 -1 -1 $-1 9.25 6.75 10 0 6.123233995736766e-17 1 1 0 0 forward_v I I I I #
-125 coedge $-1 -1 -1 $-1 $199 $200 $201 $202 forward $71 $-1 #
-126 coedge $-1 -1 -1 $-1 $203 $72 $136 $76 forward $41 $-1 #
-127 coedge $-1 -1 -1 $-1 $72 $203 $204 $205 forward $41 $-1 #
-128 coedge $-1 -1 -1 $-1 $206 $207 $200 $129 reversed $97 $-1 #
-129 edge $-1 -1 -1 $-1 $86 0 $208 6.7500000000000009 $179 $209 forward @7 unknown F #
-130 coedge $-1 -1 -1 $-1 $74 $73 $210 $211 forward $25 $-1 #
-131 coedge $-1 -1 -1 $-1 $212 $213 $198 $132 forward $194 $-1 #
-132 edge $-1 -1 -1 $-1 $214 -1.2500000000000002 $135 1.2500000000000002 $131 $215 forward @7 unknown F #
-133 coedge $-1 -1 -1 $-1 $216 $75 $181 $157 forward $101 $-1 #
-134 coedge $-1 -1 -1 $-1 $75 $216 $217 $218 forward $101 $-1 #
-135 vertex $-1 -1 -1 $-1 $219 $220 #
-136 coedge $-1 -1 -1 $-1 $221 $222 $42 $76 forward $223 $-1 #
-137 straight-curve $-1 -1 -1 $-1 6.75 6.75 5 0 6.123233995736766e-17 1 I I #
-138 coedge $-1 -1 -1 $-1 $224 $225 $189 $139 forward $109 $-1 #
-139 edge $-1 -1 -1 $-1 $144 -1.2500000000000002 $151 1.2500000000000002 $138 $226 forward @7 unknown F #
-140 coedge $-1 -1 -1 $-1 $227 $78 $228 $229 forward $143 $-1 #
-141 coedge $-1 -1 -1 $-1 $78 $227 $206 $157 reversed $143 $-1 #
-142 coedge $-1 -1 -1 $-1 $200 $199 $145 $79 forward $71 $-1 #
-143 loop $-1 -1 -1 $-1 $-1 $78 $178 F unknown #
-144 vertex $-1 -1 -1 $-1 $229 $230 #
-145 coedge $-1 -1 -1 $-1 $153 $231 $43 $79 forward $183 $-1 #
-146 straight-curve $-1 -1 -1 $-1 6.75 6.75 5 0 6.123233995736766e-17 1 I I #
-147 coedge $-1 -1 -1 $-1 $232 $80 $233 $155 forward $150 $-1 #
-148 coedge $-1 -1 -1 $-1 $80 $232 $224 $234 reversed $150 $-1 #
-149 coedge $-1 -1 -1 $-1 $235 $236 $44 $81 reversed $237 $-1 #
-150 loop $238 -1 -1 $-1 $-1 $80 $96 F unknown #
-151 vertex $-1 -1 -1 $-1 $234 $239 #
-152 straight-curve $-1 -1 -1 $-1 9.25 6.75 -1.7763568394002505e-15 0.64764842009554036 4.6655327331932001e-17 0.76193931775945944 I I #
-153 coedge $-1 -1 -1 $-1 $240 $145 $241 $154 reversed $183 $-1 #
-154 edge $-1 -1 -1 $-1 $242 -6.7500000000000009 $86 0 $222 $243 forward @7 unknown F #
-155 edge $-1 -1 -1 $-1 $85 1.5707963267948966 $242 3.1415926535897931 $233 $244 forward @7 unknown F #
-156 point $-1 -1 -1 $-1 13.5 6.75 5 #
-157 edge $-1 -1 -1 $-1 $86 0 $245 6.7500000000000009 $133 $243 forward @7 unknown F #
-158 point $-1 -1 -1 $-1 6.75 6.75 5 #
-159 cshell $-1 -1 $-1 $246 $89 #
-160 cface $-1 -1 $247 $90 $122 0 #
-161 cface $-1 -1 $248 $49 $193 0 #
-162 cface $-1 -1 $120 $29 $178 0 #
-163 face $249 -1 -1 $-1 $250 $251 $5 $-1 $252 forward single F F #
-164 cface_ptr-ct-attrib $-1 -1 $-1 $-1 $93 1 1 1 1 1 1 1 1 1 1 1 1 0 1 0 1 1 1 $-1 $50 #
-165 loop $-1 -1 -1 $-1 $-1 $253 $93 F unknown #
-166 cface $-1 -1 $-1 $29 $52 0 #
-167 cface_ptr-ct-attrib $-1 -1 $-1 $-1 $96 1 1 1 1 1 1 1 1 1 1 1 1 0 1 0 1 1 1 $-1 $184 #
-168 cone-surface $-1 -1 -1 $-1 6.75 6.75 -1.7763568394002505e-15 0 -6.123233995736766e-17 -1 0 -2.5000000000000004 1.5308084989341918e-16 1 I I -0.64764842009554036 0.76193931775945944 2.5000000000000004 reversed I I I I #
-169 cface_ptr-ct-attrib $-1 -1 $-1 $-1 $98 1 1 1 1 1 1 1 1 1 1 1 1 0 1 0 1 1 1 $-1 $53 #
-170 loop $254 -1 -1 $-1 $-1 $255 $98 F unknown #
-171 cone-surface $-1 -1 -1 $-1 6.75 6.75 5 0 6.123233995736766e-17 1 0 6.7500000000000009 -4.1331829471223177e-16 1 I I -0.64764842009554047 0.76193931775945933 6.7500000000000009 reversed I I I I #
-172 cface_ptr-ct-attrib $-1 -1 $-1 $-1 $100 1 1 1 1 1 1 1 1 1 1 1 1 0 1 0 1 1 1 $-1 $117 #
-173 loop $256 -1 -1 $-1 $-1 $204 $100 F unknown #
-174 cone-surface $-1 -1 -1 $-1 6.75 6.75 5 0 6.123233995736766e-17 1 0 6.7500000000000009 -4.1331829471223177e-16 1 I I -0.64764842009554047 0.76193931775945933 6.7500000000000009 reversed I I I I #
-175 cface $-1 -1 $67 $90 $56 1 #
-176 cface $-1 -1 $-1 $159 $56 0 #
-177 cface_ptr-ct-attrib $-1 -1 $-1 $-1 $104 1 1 1 1 1 1 1 1 1 1 1 1 0 1 0 1 1 1 $91 $60 #
-178 face $257 -1 -1 $-1 $258 $143 $5 $-1 $102 forward double in F F #
-179 coedge $-1 -1 -1 $-1 $259 $241 $72 $129 forward $105 $-1 #
-180 coedge $-1 -1 -1 $-1 $181 $106 $236 $260 reversed $57 $-1 #
-181 coedge $-1 -1 -1 $-1 $106 $180 $141 $157 reversed $57 $-1 #
-182 cface_ptr-ct-attrib $-1 -1 $-1 $-1 $108 1 1 1 1 1 1 1 1 1 1 1 1 0 1 0 1 1 1 $111 $261 #
-183 loop $-1 -1 -1 $-1 $-1 $145 $108 F unknown #
-184 cface $-1 -1 $21 $34 $96 0 #
-185 string_attrib-name_attrib-gen-attrib $-1 -1 $-1 $112 $62 2 1 1 1 1 1 1 1 1 1 1 1 1 1 0 1 1 1 @15 ATTRIB_XACIS_ID @2 57 #
-186 cface_ptr-ct-attrib $-1 -1 $262 $-1 $113 1 1 1 1 1 1 1 1 1 1 1 1 0 1 0 1 1 1 $-1 $94 #
-187 face $263 -1 -1 $-1 $-1 $264 $5 $-1 $174 forward single F F #
-188 loop $-1 -1 -1 $-1 $-1 $265 $113 F unknown #
-189 coedge $-1 -1 -1 $-1 $228 $266 $77 $139 reversed $114 $-1 #
-190 cface $-1 -1 $22 $36 $178 1 #
-191 face $267 -1 -1 $-1 $268 $237 $5 $-1 $168 forward single F F #
-192 cface_ptr-ct-attrib $-1 -1 $-1 $-1 $116 1 1 1 1 1 1 1 1 1 1 1 1 0 1 0 1 1 1 $-1 $65 #
-193 face $269 -1 -1 $-1 $191 $270 $5 $-1 $171 forward single F F #
-194 loop $-1 -1 -1 $-1 $-1 $131 $116 F unknown #
-195 cface_ptr-ct-attrib $-1 -1 $-1 $-1 $122 1 1 1 1 1 1 1 1 1 1 1 1 0 1 0 1 1 1 $-1 $160 #
-196 loop $-1 -1 -1 $-1 $-1 $271 $122 F unknown #
-197 string_attrib-name_attrib-gen-attrib $-1 -1 $-1 $-1 $123 2 1 1 1 1 1 1 1 1 1 1 1 1 1 0 1 1 1 @15 ATTRIB_XACIS_ID @2 -1 #
-198 coedge $-1 -1 -1 $-1 $272 $217 $74 $132 reversed $123 $-1 #
-199 coedge $-1 -1 -1 $-1 $142 $125 $273 $274 forward $71 $-1 #
-200 coedge $-1 -1 -1 $-1 $125 $142 $179 $129 forward $71 $-1 #
-201 coedge $-1 -1 -1 $-1 $275 $276 $277 $202 forward $278 $-1 #
-202 edge $-1 -1 -1 $-1 $208 -6.5622023742033448 $279 0 $201 $280 forward @7 unknown F #
-203 coedge $-1 -1 -1 $-1 $127 $126 $271 $281 forward $41 $-1 #
-204 coedge $-1 -1 -1 $-1 $282 $283 $284 $205 forward $173 $-1 #
-205 edge $-1 -1 -1 $-1 $285 -6.562202374203344 $208 -0 $204 $286 forward @7 unknown F #
-206 coedge $-1 -1 -1 $-1 $207 $128 $133 $157 forward $97 $-1 #
-207 coedge $-1 -1 -1 $-1 $128 $206 $287 $288 reversed $97 $-1 #
-208 vertex $-1 -1 -1 $-1 $288 $289 #
-209 straight-curve $-1 -1 -1 $-1 6.75 6.75 5 -1 0 0 I I #
-210 coedge $-1 -1 -1 $-1 $290 $233 $255 $211 forward $270 $-1 #
-211 edge $-1 -1 -1 $-1 $85 0 $214 6.562202374203344 $210 $291 forward @7 unknown F #
-212 coedge $-1 -1 -1 $-1 $213 $131 $292 $219 forward $194 $-1 #
-213 coedge $-1 -1 -1 $-1 $131 $212 $290 $293 reversed $194 $-1 #
-214 vertex $-1 -1 -1 $-1 $293 $294 #
-215 straight-curve $-1 -1 -1 $-1 8 6.75 10 -1 -0 0 I I #
-216 coedge $-1 -1 -1 $-1 $134 $133 $295 $296 reversed $101 $-1 #
-217 coedge $-1 -1 -1 $-1 $198 $272 $297 $218 forward $123 $-1 #
-218 edge $-1 -1 -1 $-1 $298 -2.5000000000000004 $135 0 $217 $299 forward @7 unknown F #
-219 edge $-1 -1 -1 $-1 $135 0 $300 2.5000000000000004 $212 $299 forward @7 unknown F #
-220 point $-1 -1 -1 $-1 6.75 6.75 10 #
-221 coedge $-1 -1 -1 $-1 $301 $136 $212 $219 forward $223 $-1 #
-222 coedge $-1 -1 -1 $-1 $136 $301 $82 $154 forward $223 $-1 #
-223 loop $-1 -1 -1 $-1 $-1 $136 $258 F unknown #
-224 coedge $-1 -1 -1 $-1 $225 $138 $148 $234 forward $109 $-1 #
-225 coedge $-1 -1 -1 $-1 $138 $224 $302 $303 forward $109 $-1 #
-226 straight-curve $-1 -1 -1 $-1 8 6.75 -8.8817841970012523e-16 1 0 0 I I #
-227 coedge $-1 -1 -1 $-1 $141 $140 $304 $305 forward $143 $-1 #
-228 coedge $-1 -1 -1 $-1 $266 $189 $306 $229 forward $114 $-1 #
-229 edge $-1 -1 -1 $-1 $144 0 $307 2.5000000000000004 $228 $308 forward @7 unknown F #
-230 point $-1 -1 -1 $-1 6.75 6.75 -8.8817841970012523e-16 #
-231 coedge $-1 -1 -1 $-1 $145 $240 $225 $303 forward $183 $-1 #
-232 coedge $-1 -1 -1 $-1 $148 $147 $240 $309 reversed $150 $-1 #
-233 coedge $-1 -1 -1 $-1 $210 $310 $83 $155 reversed $270 $-1 #
-234 edge $-1 -1 -1 $-1 $151 1.5707963267948966 $311 3.1415926535897931 $148 $312 forward @7 unknown F #
-235 coedge $-1 -1 -1 $-1 $304 $149 $266 $313 reversed $237 $-1 #
-236 coedge $-1 -1 -1 $-1 $149 $304 $314 $260 forward $237 $-1 #
-237 loop $-1 -1 -1 $-1 $-1 $149 $191 F unknown #
-238 string_attrib-name_attrib-gen-attrib $-1 -1 $-1 $-1 $150 2 1 1 1 1 1 1 1 1 1 1 1 1 1 0 1 1 1 @15 ATTRIB_XACIS_ID @2 -1 #
-239 point $-1 -1 -1 $-1 9.25 6.75 -1.7763568394002505e-15 #
-240 coedge $-1 -1 -1 $-1 $231 $153 $315 $309 reversed $183 $-1 #
-241 coedge $-1 -1 -1 $-1 $179 $259 $222 $154 forward $105 $-1 #
-242 vertex $316 -1 -1 $-1 $317 $318 #
-243 straight-curve $-1 -1 -1 $-1 6.75 6.75 5 0 1 -6.123233995736766e-17 I I #
-244 ellipse-curve $-1 -1 -1 $-1 6.75 6.75 5 0 -6.123233995736766e-17 -1 0 6.7500000000000009 -4.1331829471223177e-16 1 F 0 F 3.1415926535897931 #
-245 vertex $319 -1 -1 $-1 $296 $320 #
-246 cface $-1 -1 $261 $159 $250 0 #
-247 cface $-1 -1 $175 $90 $258 0 #
-248 cface $-1 -1 $37 $49 $258 1 #
-249 cface_ptr-ct-attrib $-1 -1 $-1 $-1 $163 1 1 1 1 1 1 1 1 1 1 1 1 0 1 0 1 1 1 $-1 $92 #
-250 face $321 -1 -1 $-1 $98 $322 $5 $-1 $110 forward single F F #
-251 loop $323 -1 -1 $-1 $-1 $277 $163 F unknown #
-252 cone-surface $-1 -1 -1 $-1 6.75 6.75 -1.7763568394002505e-15 0 -6.123233995736766e-17 -1 0 -2.5000000000000004 1.5308084989341918e-16 1 I I -0.64764842009554036 0.76193931775945944 2.5000000000000004 reversed I I I I #
-253 coedge $-1 -1 -1 $-1 $324 $306 $199 $274 reversed $165 $-1 #
-254 string_attrib-name_attrib-gen-attrib $-1 -1 $-1 $-1 $170 2 1 1 1 1 1 1 1 1 1 1 1 1 1 0 1 1 1 @15 ATTRIB_XACIS_ID @2 -1 #
-255 coedge $-1 -1 -1 $-1 $314 $325 $130 $211 reversed $170 $-1 #
-256 string_attrib-name_attrib-gen-attrib $-1 -1 $-1 $-1 $173 2 1 1 1 1 1 1 1 1 1 1 1 1 1 0 1 1 1 @15 ATTRIB_XACIS_ID @2 -1 #
-257 cface_ptr-ct-attrib $-1 -1 $-1 $-1 $178 1 1 1 1 1 1 1 1 1 1 1 1 0 1 0 1 1 1 $190 $162 #
-258 face $326 -1 -1 $-1 $93 $223 $5 $-1 $102 forward double in F F #
-259 coedge $-1 -1 -1 $-1 $241 $179 $276 $327 reversed $105 $-1 #
-260 edge $328 -1 -1 $-1 $245 0 $85 1.5707963267948966 $314 $244 forward @7 unknown F #
-261 cface $-1 -1 $329 $159 $108 0 #
-262 string_attrib-name_attrib-gen-attrib $-1 -1 $-1 $186 $113 2 1 1 1 1 1 1 1 1 1 1 1 1 1 0 1 1 1 @15 ATTRIB_XACIS_ID @3 162 #
-263 cface_ptr-ct-attrib $-1 -1 $330 $-1 $187 1 1 1 1 1 1 1 1 1 1 1 1 0 1 0 1 1 1 $-1 $118 #
-264 loop $-1 -1 -1 $-1 $-1 $284 $187 F unknown #
-265 coedge $-1 -1 -1 $-1 $297 $331 $203 $281 reversed $188 $-1 #
-266 coedge $-1 -1 -1 $-1 $189 $228 $235 $313 forward $114 $-1 #
-267 cface_ptr-ct-attrib $-1 -1 $332 $-1 $191 1 1 1 1 1 1 1 1 1 1 1 1 0 1 0 1 1 1 $-1 $115 #
-268 face $333 -1 -1 $-1 $62 $278 $5 $-1 $252 forward single F F #
-269 cface_ptr-ct-attrib $-1 -1 $334 $-1 $193 1 1 1 1 1 1 1 1 1 1 1 1 0 1 0 1 1 1 $-1 $161 #
-270 loop $-1 -1 -1 $-1 $-1 $210 $193 F unknown #
-271 coedge $-1 -1 -1 $-1 $335 $292 $265 $281 forward $196 $-1 #
-272 coedge $-1 -1 -1 $-1 $217 $198 $325 $336 reversed $123 $-1 #
-273 coedge $-1 -1 -1 $-1 $302 $337 $253 $274 forward $322 $-1 #
-274 edge $-1 -1 -1 $-1 $279 -3.7500000000000009 $144 -1.2500000000000002 $273 $338 forward @7 unknown F #
-275 coedge $-1 -1 -1 $-1 $315 $201 $337 $339 reversed $278 $-1 #
-276 coedge $-1 -1 -1 $-1 $201 $315 $282 $327 forward $278 $-1 #
-277 coedge $-1 -1 -1 $-1 $287 $340 $125 $202 reversed $251 $-1 #
-278 loop $-1 -1 -1 $-1 $-1 $201 $268 F unknown #
-279 vertex $-1 -1 -1 $-1 $341 $342 #
-280 straight-curve $-1 -1 -1 $-1 4.25 6.75 -1.7763568394002505e-15 0.64764842009554036 -4.6655327331932001e-17 -0.76193931775945944 I I #
-281 edge $-1 -1 -1 $-1 $135 1.2500000000000002 $285 3.7500000000000009 $271 $343 forward @7 unknown F #
-282 coedge $-1 -1 -1 $-1 $344 $204 $259 $327 reversed $173 $-1 #
-283 coedge $-1 -1 -1 $-1 $204 $344 $335 $345 forward $173 $-1 #
-284 coedge $-1 -1 -1 $-1 $346 $347 $127 $205 reversed $264 $-1 #
-285 vertex $-1 -1 -1 $-1 $348 $349 #
-286 straight-curve $-1 -1 -1 $-1 -8.8817841970012523e-16 6.75 5 -0.64764842009554047 -4.6655327331931994e-17 -0.76193931775945933 I I #
-287 coedge $-1 -1 -1 $-1 $350 $277 $347 $288 forward $251 $-1 #
-288 edge $-1 -1 -1 $-1 $208 4.7123889803846897 $245 6.2831853071795862 $287 $351 forward @7 unknown F #
-289 point $-1 -1 -1 $-1 -8.8817841970012523e-16 6.75 5 #
-290 coedge $-1 -1 -1 $-1 $310 $210 $213 $293 forward $270 $-1 #
-291 straight-curve $-1 -1 -1 $-1 13.5 6.75 5 -0.64764842009554047 4.6655327331931994e-17 0.76193931775945933 I I #
-292 coedge $-1 -1 -1 $-1 $271 $335 $221 $219 reversed $196 $-1 #
-293 edge $-1 -1 -1 $-1 $214 1.5707963267948966 $300 3.1415926535897931 $290 $352 forward @7 unknown F #
-294 point $-1 -1 -1 $-1 9.25 6.75 10 #
-295 coedge $-1 -1 -1 $-1 $347 $346 $353 $296 forward $264 $-1 #
-296 edge $354 -1 -1 $-1 $298 -0.0065622023742033441 $245 0 $353 $355 forward @7 unknown F #
-297 coedge $-1 -1 -1 $-1 $331 $265 $134 $218 reversed $188 $-1 #
-298 vertex $356 -1 -1 $-1 $296 $357 #
-299 straight-curve $-1 -1 -1 $-1 6.75 6.75 10 0 -1 6.123233995736766e-17 I I #
-300 vertex $358 -1 -1 $-1 $345 $359 #
-301 coedge $-1 -1 -1 $-1 $222 $221 $310 $317 forward $223 $-1 #
-302 coedge $-1 -1 -1 $-1 $337 $273 $231 $303 reversed $322 $-1 #
-303 edge $-1 -1 -1 $-1 $311 -2.5000000000000004 $144 0 $225 $308 forward @7 unknown F #
-304 coedge $-1 -1 -1 $-1 $236 $235 $350 $305 forward $237 $-1 #
-305 edge $360 -1 -1 $-1 $307 2.0640487392480387e-35 $245 0.0065622023742033459 $304 $361 forward @7 unknown F #
-306 coedge $-1 -1 -1 $-1 $253 $324 $140 $229 reversed $165 $-1 #
-307 vertex $362 -1 -1 $-1 $313 $363 #
-308 straight-curve $-1 -1 -1 $-1 6.75 6.75 -8.8817841970012523e-16 0 1 -6.123233995736766e-17 I I #
-309 edge $364 -1 -1 $-1 $311 0 $242 0.0065622023742033459 $232 $365 forward @7 unknown F #
-310 coedge $-1 -1 -1 $-1 $233 $290 $344 $317 forward $270 $-1 #
-311 vertex $366 -1 -1 $-1 $234 $367 #
-312 ellipse-curve $-1 -1 -1 $-1 6.75 6.75 -1.7763568394002505e-15 0 -6.123233995736766e-17 -1 0 2.5000000000000004 -1.5308084989341918e-16 1 F 0 F 3.1415926535897931 #
-313 edge $368 -1 -1 $-1 $307 0 $151 1.5707963267948966 $235 $312 forward @7 unknown F #
-314 coedge $-1 -1 -1 $-1 $353 $255 $180 $260 reversed $170 $-1 #
-315 coedge $-1 -1 -1 $-1 $276 $275 $232 $309 forward $278 $-1 #
-316 string_attrib-name_attrib-gen-attrib $-1 -1 $-1 $-1 $242 2 1 1 1 1 1 1 1 1 1 1 1 1 1 0 1 1 1 @15 ATTRIB_XACIS_ID @3 122 #
-317 edge $369 -1 -1 $-1 $300 -0.0065622023742033441 $242 -6.556390112905536e-35 $310 $370 forward @7 unknown F #
-318 point $-1 -1 -1 $-1 6.75 -8.8817841970012523e-16 5 #
-319 string_attrib-name_attrib-gen-attrib $-1 -1 $-1 $-1 $245 2 1 1 1 1 1 1 1 1 1 1 1 1 1 0 1 1 1 @15 ATTRIB_XACIS_ID @2 56 #
-320 point $-1 -1 -1 $-1 6.7500000000000009 13.5 5 #
-321 cface_ptr-ct-attrib $-1 -1 $-1 $-1 $250 1 1 1 1 1 1 1 1 1 1 1 1 0 1 0 1 1 1 $-1 $246 #
-322 loop $371 -1 -1 $-1 $-1 $273 $250 F unknown #
-323 string_attrib-name_attrib-gen-attrib $-1 -1 $-1 $-1 $251 2 1 1 1 1 1 1 1 1 1 1 1 1 1 0 1 1 1 @15 ATTRIB_XACIS_ID @2 -1 #
-324 coedge $-1 -1 -1 $-1 $306 $253 $340 $341 forward $165 $-1 #
-325 coedge $-1 -1 -1 $-1 $255 $353 $272 $336 forward $170 $-1 #
-326 cface_ptr-ct-attrib $-1 -1 $-1 $-1 $258 1 1 1 1 1 1 1 1 1 1 1 1 0 1 0 1 1 1 $248 $247 #
-327 edge $372 -1 -1 $-1 $242 3.1415926535897931 $208 4.7123889803846897 $276 $351 forward @7 unknown F #
-328 string_attrib-name_attrib-gen-attrib $-1 -1 $-1 $-1 $260 2 1 1 1 1 1 1 1 1 1 1 1 1 1 0 1 1 1 @15 ATTRIB_XACIS_ID @3 116 #
-329 cface $-1 -1 $119 $159 $268 0 #
-330 string_attrib-name_attrib-gen-attrib $-1 -1 $-1 $263 $187 2 1 1 1 1 1 1 1 1 1 1 1 1 1 0 1 1 1 @15 ATTRIB_XACIS_ID @1 1 #
-331 coedge $-1 -1 -1 $-1 $265 $297 $346 $348 reversed $188 $-1 #
-332 string_attrib-name_attrib-gen-attrib $-1 -1 $-1 $267 $191 2 1 1 1 1 1 1 1 1 1 1 1 1 1 0 1 1 1 @15 ATTRIB_XACIS_ID @2 53 #
-333 cface_ptr-ct-attrib $-1 -1 $373 $-1 $268 1 1 1 1 1 1 1 1 1 1 1 1 0 1 0 1 1 1 $-1 $329 #
-334 string_attrib-name_attrib-gen-attrib $-1 -1 $-1 $269 $193 2 1 1 1 1 1 1 1 1 1 1 1 1 1 0 1 1 1 @15 ATTRIB_XACIS_ID @2 13 #
-335 coedge $-1 -1 -1 $-1 $292 $271 $283 $345 reversed $196 $-1 #
-336 edge $374 -1 -1 $-1 $298 0 $214 1.5707963267948966 $325 $352 forward @7 unknown F #
-337 coedge $-1 -1 -1 $-1 $273 $302 $275 $339 forward $322 $-1 #
-338 straight-curve $-1 -1 -1 $-1 8 6.75 -8.8817841970012523e-16 1 0 0 I I #
-339 edge $375 -1 -1 $-1 $311 3.1415926535897931 $279 4.7123889803846897 $275 $376 forward @7 unknown F #
-340 coedge $-1 -1 -1 $-1 $277 $350 $324 $341 reversed $251 $-1 #
-341 edge $-1 -1 -1 $-1 $279 4.7123889803846897 $307 6.2831853071795862 $340 $376 forward @7 unknown F #
-342 point $-1 -1 -1 $-1 4.25 6.75 -1.7763568394002505e-15 #
-343 straight-curve $-1 -1 -1 $-1 8 6.75 10 -1 -0 0 I I #
-344 coedge $-1 -1 -1 $-1 $283 $282 $301 $317 reversed $173 $-1 #
-345 edge $377 -1 -1 $-1 $300 3.1415926535897931 $285 4.7123889803846897 $335 $378 forward @7 unknown F #
-346 coedge $-1 -1 -1 $-1 $295 $284 $331 $348 forward $264 $-1 #
-347 coedge $-1 -1 -1 $-1 $284 $295 $207 $288 reversed $264 $-1 #
-348 edge $-1 -1 -1 $-1 $285 4.7123889803846897 $298 6.2831853071795862 $331 $378 forward @7 unknown F #
-349 point $-1 -1 -1 $-1 4.25 6.75 10 #
-350 coedge $-1 -1 -1 $-1 $340 $287 $227 $305 reversed $251 $-1 #
-351 ellipse-curve $-1 -1 -1 $-1 6.75 6.75 5 0 -6.123233995736766e-17 -1 0 6.7500000000000009 -4.1331829471223177e-16 1 F 3.1415926535897931 F 6.2831853071795862 #
-352 ellipse-curve $-1 -1 -1 $-1 6.75 6.75 10 0 -6.123233995736766e-17 -1 0 2.5000000000000004 -1.5308084989341918e-16 1 F 0 F 3.1415926535897931 #
-353 coedge $-1 -1 -1 $-1 $325 $314 $216 $296 reversed $170 $-1 #
-354 string_attrib-name_attrib-gen-attrib $-1 -1 $-1 $-1 $296 2 1 1 1 1 1 1 1 1 1 1 1 1 1 0 1 1 1 @15 ATTRIB_XACIS_ID @2 66 #
-355 straight-curve $-1 -1 -1 $-1 6.75 13.5 5 0 647.64842009554047 -761.9393177594593 F -0.0065622023742033441 F 0 #
-356 string_attrib-name_attrib-gen-attrib $-1 -1 $-1 $-1 $298 2 1 1 1 1 1 1 1 1 1 1 1 1 1 0 1 1 1 @15 ATTRIB_XACIS_ID @3 104 #
-357 point $-1 -1 -1 $-1 6.75 9.25 10 #
-358 string_attrib-name_attrib-gen-attrib $-1 -1 $-1 $-1 $300 2 1 1 1 1 1 1 1 1 1 1 1 1 1 0 1 1 1 @15 ATTRIB_XACIS_ID @3 123 #
-359 point $-1 -1 -1 $-1 6.7500000000000009 4.25 10 #
-360 string_attrib-name_attrib-gen-attrib $-1 -1 $-1 $-1 $305 2 1 1 1 1 1 1 1 1 1 1 1 1 1 0 1 1 1 @15 ATTRIB_XACIS_ID @3 117 #
-361 straight-curve $-1 -1 -1 $-1 6.75 9.25 -1.7763568394002505e-15 7.931405646428437e-14 647.64842009554036 761.9393177594593 F 2.0640487392480387e-35 F 0.0065622023742033459 #
-362 string_attrib-name_attrib-gen-attrib $-1 -1 $-1 $-1 $307 2 1 1 1 1 1 1 1 1 1 1 1 1 1 0 1 1 1 @15 ATTRIB_XACIS_ID @2 87 #
-363 point $-1 -1 -1 $-1 6.7500000000000009 9.25 -1.7763568394002505e-15 #
-364 string_attrib-name_attrib-gen-attrib $-1 -1 $-1 $-1 $309 2 1 1 1 1 1 1 1 1 1 1 1 1 1 0 1 1 1 @15 ATTRIB_XACIS_ID @3 134 #
-365 straight-curve $-1 -1 -1 $-1 6.75 4.2499999999999991 -1.7763568394002505e-15 0 -647.64842009554036 761.9393177594593 F 0 F 0.0065622023742033459 #
-366 string_attrib-name_attrib-gen-attrib $-1 -1 $-1 $-1 $311 2 1 1 1 1 1 1 1 1 1 1 1 1 1 0 1 1 1 @15 ATTRIB_XACIS_ID @2 23 #
-367 point $-1 -1 -1 $-1 6.75 4.2499999999999991 -1.7763568394002505e-15 #
-368 string_attrib-name_attrib-gen-attrib $-1 -1 $-1 $-1 $313 2 1 1 1 1 1 1 1 1 1 1 1 1 1 0 1 1 1 @15 ATTRIB_XACIS_ID @2 64 #
-369 string_attrib-name_attrib-gen-attrib $-1 -1 $-1 $-1 $317 2 1 1 1 1 1 1 1 1 1 1 1 1 1 0 1 1 1 @15 ATTRIB_XACIS_ID @2 97 #
-370 straight-curve $-1 -1 -1 $-1 6.7500000000000009 -8.8817841970012523e-16 5 7.9314056464284383e-14 -647.64842009554047 -761.9393177594593 F -0.0065622023742033441 F -6.556390112905536e-35 #
-371 string_attrib-name_attrib-gen-attrib $-1 -1 $-1 $-1 $322 2 1 1 1 1 1 1 1 1 1 1 1 1 1 0 1 1 1 @15 ATTRIB_XACIS_ID @2 -1 #
-372 string_attrib-name_attrib-gen-attrib $-1 -1 $-1 $-1 $327 2 1 1 1 1 1 1 1 1 1 1 1 1 1 0 1 1 1 @15 ATTRIB_XACIS_ID @3 143 #
-373 string_attrib-name_attrib-gen-attrib $-1 -1 $-1 $333 $268 2 1 1 1 1 1 1 1 1 1 1 1 1 1 0 1 1 1 @15 ATTRIB_XACIS_ID @2 50 #
-374 string_attrib-name_attrib-gen-attrib $-1 -1 $-1 $-1 $336 2 1 1 1 1 1 1 1 1 1 1 1 1 1 0 1 1 1 @15 ATTRIB_XACIS_ID @2 76 #
-375 string_attrib-name_attrib-gen-attrib $-1 -1 $-1 $-1 $339 2 1 1 1 1 1 1 1 1 1 1 1 1 1 0 1 1 1 @15 ATTRIB_XACIS_ID @3 129 #
-376 ellipse-curve $-1 -1 -1 $-1 6.75 6.75 -1.7763568394002505e-15 0 -6.123233995736766e-17 -1 0 2.5000000000000004 -1.5308084989341918e-16 1 F 3.1415926535897931 F 6.2831853071795862 #
-377 string_attrib-name_attrib-gen-attrib $-1 -1 $-1 $-1 $345 2 1 1 1 1 1 1 1 1 1 1 1 1 1 0 1 1 1 @15 ATTRIB_XACIS_ID @2 69 #
-378 ellipse-curve $-1 -1 -1 $-1 6.75 6.75 10 0 -6.123233995736766e-17 -1 0 2.5000000000000004 -1.5308084989341918e-16 1 F 3.1415926535897931 F 6.2831853071795862 #
End-of-ACIS-data 
