2400 0 1 0           
22 Abaqus 2020.HF6 - 2601 17 ACIS 26.0.1 Linux 24 Tue Nov 21 19:53:51 2023 
1 9.9999999999999995e-07 1e-10 
-0 body $1 -1 -1 $-1 $2 $-1 $3 T 0 0 0 45.119999999999997 10.56 9.5999999999999996 #
-1 string_attrib-name_attrib-gen-attrib $-1 -1 $4 $-1 $0 2 1 1 1 1 1 1 1 1 1 1 1 1 1 0 1 1 1 @13 HKS_PART_NAME @6 Part-3 #
-2 lump $5 -1 -1 $-1 $-1 $6 $0 T 0 0 0 45.119999999999997 10.56 9.5999999999999996 #
-3 transform $-1 -1 1 0 0 0 1 0 0 0 1 0 0 0 1 no_rotate no_reflect no_shear #
-4 string_attrib-name_attrib-gen-attrib $-1 -1 $-1 $1 $0 2 1 1 1 1 1 1 1 1 1 1 1 1 1 0 1 1 1 @18 HKS_ATTRIB_BODY_ID @1 1 #
-5 cell_ptr-ct-attrib $-1 -1 $-1 $-1 $2 1 1 1 1 1 1 1 1 1 1 1 1 0 1 0 1 1 1 $7 $-1 auto #
-6 shell $-1 -1 -1 $-1 $-1 $-1 $8 $-1 $2 T 0 0 0 45.119999999999997 10.56 9.5999999999999996 #
-7 cell3d-cell $-1 -1 $-1 $2 $-1 1 $9 #
-8 face $10 -1 -1 $-1 $11 $12 $6 $-1 $13 forward single T 45.119999999999997 0 0 45.119999999999997 10.56 9.5999999999999996 F #
-9 cshell $-1 -1 $-1 $14 $7 #
-10 cface_ptr-ct-attrib $-1 -1 $-1 $-1 $8 1 1 1 1 1 1 1 1 1 1 1 1 0 1 0 1 1 1 $-1 $15 #
-11 face $16 -1 -1 $-1 $17 $18 $6 $-1 $19 forward single T 0 0 0 45.119999999999997 0 9.5999999999999996 F #
-12 loop $-1 -1 -1 $-1 $-1 $20 $8 T 45.119999999999997 0 0 45.119999999999997 10.56 9.5999999999999996 periphery $13 F #
-13 plane-surface $-1 -1 -1 $-1 45.119999999999997 5.2800000000000002 0 1 0 -0 -0 1 -0 forward_v I I I I #
-14 cface $-1 -1 $21 $9 $17 0 #
-15 cface $-1 -1 $-1 $9 $8 0 #
-16 cface_ptr-ct-attrib $-1 -1 $-1 $-1 $11 1 1 1 1 1 1 1 1 1 1 1 1 0 1 0 1 1 1 $-1 $22 #
-17 face $23 -1 -1 $-1 $24 $25 $6 $-1 $26 forward single T 0 0 0 0 10.56 9.5999999999999996 F #
-18 loop $-1 -1 -1 $-1 $-1 $27 $11 T 0 0 0 45.119999999999997 0 9.5999999999999996 periphery $19 F #
-19 plane-surface $-1 -1 -1 $-1 22.559999999999999 0 0 0 -1 0 1 -0 -0 forward_v I I I I #
-20 coedge $-1 -1 -1 $-1 $28 $29 $30 $31 forward $12 $-1 #
-21 cface $-1 -1 $32 $9 $24 0 #
-22 cface $-1 -1 $33 $9 $11 0 #
-23 cface_ptr-ct-attrib $-1 -1 $-1 $-1 $17 1 1 1 1 1 1 1 1 1 1 1 1 0 1 0 1 1 1 $-1 $14 #
-24 face $34 -1 -1 $-1 $35 $36 $6 $-1 $37 forward single T 0 10.56 0 45.119999999999997 10.56 9.5999999999999996 F #
-25 loop $-1 -1 -1 $-1 $-1 $38 $17 T 0 0 0 0 10.56 9.5999999999999996 periphery $26 F #
-26 plane-surface $-1 -1 -1 $-1 0 5.2800000000000002 0 -1 0 0 -0 -1 -0 forward_v I I I I #
-27 coedge $-1 -1 -1 $-1 $39 $40 $41 $42 forward $18 $-1 #
-28 coedge $-1 -1 -1 $-1 $43 $20 $40 $44 reversed $12 $-1 #
-29 coedge $-1 -1 -1 $-1 $20 $43 $45 $46 forward $12 $-1 #
-30 coedge $-1 -1 -1 $-1 $47 $41 $20 $31 reversed $48 $-1 #
-31 edge $-1 -1 -1 $-1 $49 0 $50 10.56 $20 $51 forward @7 unknown T 45.119999999999997 0 9.5999999999999996 45.119999999999997 10.56 9.5999999999999996 #
-32 cface $-1 -1 $22 $9 $52 0 #
-33 cface $-1 -1 $15 $9 $35 0 #
-34 cface_ptr-ct-attrib $-1 -1 $-1 $-1 $24 1 1 1 1 1 1 1 1 1 1 1 1 0 1 0 1 1 1 $-1 $21 #
-35 face $53 -1 -1 $-1 $52 $48 $6 $-1 $54 forward single T 0 0 9.5999999999999996 45.119999999999997 10.56 9.5999999999999996 F #
-36 loop $-1 -1 -1 $-1 $-1 $55 $24 T 0 10.56 0 45.119999999999997 10.56 9.5999999999999996 periphery $37 F #
-37 plane-surface $-1 -1 -1 $-1 22.559999999999999 10.56 0 0 1 0 -1 -0 -0 forward_v I I I I #
-38 coedge $-1 -1 -1 $-1 $56 $57 $58 $59 forward $25 $-1 #
-39 coedge $-1 -1 -1 $-1 $60 $27 $57 $61 reversed $18 $-1 #
-40 coedge $-1 -1 -1 $-1 $27 $60 $28 $44 forward $18 $-1 #
-41 coedge $-1 -1 -1 $-1 $30 $58 $27 $42 reversed $48 $-1 #
-42 edge $-1 -1 -1 $-1 $50 0 $62 45.119999999999997 $27 $63 forward @7 unknown T 0 0 9.5999999999999996 45.119999999999997 0 9.5999999999999996 #
-43 coedge $-1 -1 -1 $-1 $29 $28 $64 $65 reversed $12 $-1 #
-44 edge $-1 -1 -1 $-1 $66 0 $50 9.5999999999999996 $40 $67 forward @7 unknown T 45.119999999999997 0 0 45.119999999999997 0 9.5999999999999996 #
-45 coedge $-1 -1 -1 $-1 $68 $55 $29 $46 reversed $36 $-1 #
-46 edge $-1 -1 -1 $-1 $69 0 $49 9.5999999999999996 $29 $70 forward @7 unknown T 45.119999999999997 10.56 0 45.119999999999997 10.56 9.5999999999999996 #
-47 coedge $-1 -1 -1 $-1 $58 $30 $55 $71 reversed $48 $-1 #
-48 loop $-1 -1 -1 $-1 $-1 $30 $35 T 0 0 9.5999999999999996 45.119999999999997 10.56 9.5999999999999996 periphery $54 F #
-49 vertex $-1 -1 -1 $-1 $46 $72 #
-50 vertex $-1 -1 -1 $-1 $44 $73 #
-51 straight-curve $-1 -1 -1 $-1 45.119999999999997 10.56 9.5999999999999996 0 -1 0 I I #
-52 face $74 -1 -1 $-1 $-1 $75 $6 $-1 $76 reversed single T 0 0 0 45.119999999999997 10.56 0 F #
-53 cface_ptr-ct-attrib $-1 -1 $-1 $-1 $35 1 1 1 1 1 1 1 1 1 1 1 1 0 1 0 1 1 1 $-1 $33 #
-54 plane-surface $-1 -1 -1 $-1 22.559999999999995 5.2799999999999994 9.5999999999999996 0 0 1 1 0 0 forward_v I I I I #
-55 coedge $-1 -1 -1 $-1 $45 $77 $47 $71 forward $36 $-1 #
-56 coedge $-1 -1 -1 $-1 $78 $38 $77 $79 reversed $25 $-1 #
-57 coedge $-1 -1 -1 $-1 $38 $78 $39 $61 forward $25 $-1 #
-58 coedge $-1 -1 -1 $-1 $41 $47 $38 $59 reversed $48 $-1 #
-59 edge $-1 -1 -1 $-1 $62 0 $80 10.56 $38 $81 forward @7 unknown T 0 0 9.5999999999999996 0 10.56 9.5999999999999996 #
-60 coedge $-1 -1 -1 $-1 $40 $39 $82 $83 reversed $18 $-1 #
-61 edge $-1 -1 -1 $-1 $84 0 $62 9.5999999999999996 $57 $85 forward @7 unknown T 0 0 0 0 0 9.5999999999999996 #
-62 vertex $-1 -1 -1 $-1 $61 $86 #
-63 straight-curve $-1 -1 -1 $-1 45.119999999999997 0 9.5999999999999996 -1 0 0 I I #
-64 coedge $-1 -1 -1 $-1 $82 $87 $43 $65 forward $75 $-1 #
-65 edge $-1 -1 -1 $-1 $69 0 $66 10.56 $43 $88 forward @7 unknown T 45.119999999999997 0 0 45.119999999999997 10.56 0 #
-66 vertex $-1 -1 -1 $-1 $83 $89 #
-67 straight-curve $-1 -1 -1 $-1 45.119999999999997 0 0 0 0 1 I I #
-68 coedge $-1 -1 -1 $-1 $77 $45 $87 $90 reversed $36 $-1 #
-69 vertex $-1 -1 -1 $-1 $90 $91 #
-70 straight-curve $-1 -1 -1 $-1 45.119999999999997 10.56 0 0 0 1 I I #
-71 edge $-1 -1 -1 $-1 $80 0 $49 45.119999999999997 $55 $92 forward @7 unknown T 0 10.56 9.5999999999999996 45.119999999999997 10.56 9.5999999999999996 #
-72 point $-1 -1 -1 $-1 45.119999999999997 10.56 9.5999999999999996 #
-73 point $-1 -1 -1 $-1 45.119999999999997 0 9.5999999999999996 #
-74 cface_ptr-ct-attrib $-1 -1 $-1 $-1 $52 1 1 1 1 1 1 1 1 1 1 1 1 0 1 0 1 1 1 $-1 $32 #
-75 loop $-1 -1 -1 $-1 $-1 $87 $52 T 0 0 0 45.119999999999997 10.56 0 periphery $76 T #
-76 plane-surface $-1 -1 -1 $-1 22.559999999999995 5.2799999999999994 0 0 0 1 1 0 0 forward_v I I I I #
-77 coedge $-1 -1 -1 $-1 $55 $68 $56 $79 forward $36 $-1 #
-78 coedge $-1 -1 -1 $-1 $57 $56 $93 $94 reversed $25 $-1 #
-79 edge $-1 -1 -1 $-1 $95 0 $80 9.5999999999999996 $77 $96 forward @7 unknown T 0 10.56 0 0 10.56 9.5999999999999996 #
-80 vertex $-1 -1 -1 $-1 $79 $97 #
-81 straight-curve $-1 -1 -1 $-1 0 0 9.5999999999999996 0 1 0 I I #
-82 coedge $-1 -1 -1 $-1 $93 $64 $60 $83 forward $75 $-1 #
-83 edge $-1 -1 -1 $-1 $66 0 $84 45.119999999999997 $60 $98 forward @7 unknown T 0 0 0 45.119999999999997 0 0 #
-84 vertex $-1 -1 -1 $-1 $94 $99 #
-85 straight-curve $-1 -1 -1 $-1 0 0 0 0 0 1 I I #
-86 point $-1 -1 -1 $-1 0 0 9.5999999999999996 #
-87 coedge $-1 -1 -1 $-1 $64 $93 $68 $90 forward $75 $-1 #
-88 straight-curve $-1 -1 -1 $-1 45.119999999999997 10.56 0 0 -1 0 I I #
-89 point $-1 -1 -1 $-1 45.119999999999997 0 0 #
-90 edge $-1 -1 -1 $-1 $95 0 $69 45.119999999999997 $68 $100 forward @7 unknown T 0 10.56 0 45.119999999999997 10.56 0 #
-91 point $-1 -1 -1 $-1 45.119999999999997 10.56 0 #
-92 straight-curve $-1 -1 -1 $-1 0 10.56 9.5999999999999996 1 0 0 I I #
-93 coedge $-1 -1 -1 $-1 $87 $82 $78 $94 forward $75 $-1 #
-94 edge $-1 -1 -1 $-1 $84 0 $95 10.56 $78 $101 forward @7 unknown T 0 0 0 0 10.56 0 #
-95 vertex $-1 -1 -1 $-1 $90 $102 #
-96 straight-curve $-1 -1 -1 $-1 0 10.56 0 0 0 1 I I #
-97 point $-1 -1 -1 $-1 0 10.56 9.5999999999999996 #
-98 straight-curve $-1 -1 -1 $-1 45.119999999999997 0 0 -1 0 0 I I #
-99 point $-1 -1 -1 $-1 0 0 0 #
-100 straight-curve $-1 -1 -1 $-1 0 10.56 0 1 0 0 I I #
-101 straight-curve $-1 -1 -1 $-1 0 0 0 0 1 0 I I #
-102 point $-1 -1 -1 $-1 0 10.56 0 #
End-of-ACIS-data 
