2600 0 1 0           
17 Abaqus 2022 - 310 12 ACIS 31.0 NT 24 Tue Apr  9 16:39:51 2024 
1 9.9999999999999995e-07 1e-10 
T @77 _N7QQBQCPW2HPAYXJZ8MGM3SU9_M5KNC9C4CP86AYCM3M2Q27DTMMP7XPB9CN8NBQCUUSXPW6CKMJ 
-0 body $1 -1 -1 $-1 $2 $-1 $-1 F #
-1 string_attrib-name_attrib-gen-attrib $-1 -1 $3 $-1 $0 2 1 1 1 1 1 1 1 1 1 1 1 1 1 0 1 1 1 @18 HKS_ATTRIB_BODY_ID @1 1 #
-2 lump $4 -1 -1 $-1 $-1 $5 $0 F #
-3 string_attrib-name_attrib-gen-attrib $-1 -1 $6 $1 $0 2 1 1 1 1 1 1 1 1 1 1 1 1 1 0 1 1 1 @15 ATTRIB_XACIS_ID @2 88 #
-4 cell_ptr-ct-attrib $-1 -1 $7 $-1 $2 1 1 1 1 1 1 1 1 1 1 1 1 0 1 0 1 1 1 $8 $-1 auto #
-5 shell $-1 -1 -1 $-1 $-1 $-1 $9 $-1 $2 F #
-6 rgb_color-st-attrib $-1 -1 $-1 $3 $0 2 1 2 1 1 1 1 1 1 1 1 1 1 1 0 1 1 1 0.7921568751335144 0.81960785388946533 0.93333333730697632 #
-7 string_attrib-name_attrib-gen-attrib $-1 -1 $10 $4 $2 2 1 1 1 1 1 1 1 1 1 1 1 1 1 0 1 1 1 @15 ATTRIB_XACIS_ID @2 88 #
-8 cell3d-cell $-1 -1 $11 $2 $-1 1 $12 #
-9 face $13 -1 -1 $-1 $14 $15 $5 $-1 $16 forward double in F F #
-10 string_attrib-name_attrib-gen-attrib $-1 -1 $17 $7 $2 2 1 1 1 1 1 1 1 1 1 1 1 1 1 0 1 1 1 @23 ATTRIB_XSTEP_PRODUCT_ID @9 hourglass #
-11 cell3d-cell $-1 -1 $18 $2 $-1 1 $19 #
-12 cshell $-1 -1 $-1 $20 $8 #
-13 cface_ptr-ct-attrib $-1 -1 $-1 $-1 $9 1 1 1 1 1 1 1 1 1 1 1 1 0 1 0 1 1 1 $21 $22 #
-14 face $23 -1 -1 $-1 $24 $25 $5 $-1 $16 forward double in F F #
-15 loop $-1 -1 -1 $-1 $-1 $26 $9 F unknown #
-16 plane-surface $-1 -1 -1 $-1 6.75 6.75 5 0 -1 6.123233995736766e-17 1 0 0 forward_v I I I I #
-17 string_attrib-name_attrib-gen-attrib $-1 -1 $27 $10 $2 2 1 1 1 1 1 1 1 1 1 1 1 1 1 0 1 1 1 @17 ATTRIB_XACIS_NAME @8 Revolve1 #
-18 cell3d-cell $-1 -1 $28 $2 $-1 1 $29 #
-19 cshell $-1 -1 $-1 $30 $11 #
-20 cface $-1 -1 $31 $12 $32 0 #
-21 cface $-1 -1 $33 $34 $9 1 #
-22 cface $-1 -1 $35 $36 $9 0 #
-23 cface_ptr-ct-attrib $-1 -1 $-1 $-1 $14 1 1 1 1 1 1 1 1 1 1 1 1 0 1 0 1 1 1 $37 $38 #
-24 face $39 -1 -1 $-1 $40 $41 $5 $-1 $16 forward double in F F #
-25 loop $-1 -1 -1 $-1 $-1 $42 $14 F unknown #
-26 coedge $-1 -1 -1 $-1 $43 $44 $45 $46 forward $15 $-1 #
-27 string_attrib-name_attrib-gen-attrib $-1 -1 $47 $17 $2 2 1 1 1 1 1 1 1 1 1 1 1 1 1 0 1 1 1 @23 ATTRIB_XACIS_LAYER_NAME @4 NONE #
-28 cell3d-cell $-1 -1 $48 $2 $-1 1 $49 #
-29 cshell $-1 -1 $-1 $50 $18 #
-30 cface $-1 -1 $51 $19 $32 1 #
-31 cface $-1 -1 $52 $12 $53 1 #
-32 face $54 -1 -1 $-1 $55 $56 $5 $-1 $57 forward double in F F #
-33 cface $-1 -1 $-1 $34 $58 0 #
-34 cshell $-1 -1 $-1 $59 $60 #
-35 cface $-1 -1 $-1 $36 $61 0 #
-36 cshell $-1 -1 $-1 $62 $63 #
-37 cface $-1 -1 $64 $49 $14 1 #
-38 cface $-1 -1 $65 $12 $14 0 #
-39 cface_ptr-ct-attrib $-1 -1 $-1 $-1 $24 1 1 1 1 1 1 1 1 1 1 1 1 0 1 0 1 1 1 $66 $67 #
-40 face $68 -1 -1 $-1 $69 $70 $5 $-1 $16 forward double in F F #
-41 loop $-1 -1 -1 $-1 $-1 $71 $24 F unknown #
-42 coedge $-1 -1 -1 $-1 $72 $73 $74 $75 forward $25 $-1 #
-43 coedge $-1 -1 -1 $-1 $76 $26 $77 $78 forward $15 $-1 #
-44 coedge $-1 -1 -1 $-1 $26 $76 $79 $80 forward $15 $-1 #
-45 coedge $-1 -1 -1 $-1 $81 $82 $72 $46 forward $83 $-1 #
-46 edge $-1 -1 -1 $-1 $84 -5 $85 0 $45 $86 forward @7 unknown F #
-47 integer_attrib-name_attrib-gen-attrib $-1 -1 $87 $27 $2 2 1 1 1 1 1 1 1 1 1 1 1 1 1 0 1 1 1 @18 ATTRIB_XACIS_LAYER -1 #
-48 cell3d-cell $-1 -1 $88 $2 $-1 1 $89 #
-49 cshell $-1 -1 $-1 $90 $28 #
-50 cface $-1 -1 $91 $29 $61 1 #
-51 cface $-1 -1 $92 $19 $93 1 #
-52 cface $-1 -1 $38 $12 $94 0 #
-53 face $95 -1 -1 $-1 $96 $97 $5 $-1 $98 forward double in F F #
-54 cface_ptr-ct-attrib $-1 -1 $-1 $-1 $32 1 1 1 1 1 1 1 1 1 1 1 1 0 1 0 1 1 1 $30 $20 #
-55 face $99 -1 -1 $-1 $100 $101 $5 $-1 $102 forward single F F #
-56 loop $-1 -1 -1 $-1 $-1 $103 $32 F unknown #
-57 plane-surface $-1 -1 -1 $-1 6.75 6.75 5 0 6.123233995736766e-17 1 0 -1 6.123233995736766e-17 forward_v I I I I #
-58 face $104 -1 -1 $-1 $32 $105 $5 $-1 $57 forward double in F F #
-59 cface $-1 -1 $106 $34 $107 0 #
-60 cell3d-cell $-1 -1 $63 $2 $-1 1 $34 #
-61 face $108 -1 -1 $-1 $93 $109 $5 $-1 $57 forward double in F F #
-62 cface $-1 -1 $110 $36 $111 0 #
-63 cell3d-cell $-1 -1 $-1 $2 $-1 1 $36 #
-64 cface $-1 -1 $-1 $49 $100 0 #
-65 cface $-1 -1 $-1 $12 $69 0 #
-66 cface $-1 -1 $112 $89 $24 1 #
-67 cface $-1 -1 $113 $19 $24 0 #
-68 cface_ptr-ct-attrib $-1 -1 $-1 $-1 $40 1 1 1 1 1 1 1 1 1 1 1 1 0 1 0 1 1 1 $114 $115 #
-69 face $116 -1 -1 $-1 $117 $118 $5 $-1 $119 forward single F F #
-70 loop $-1 -1 -1 $-1 $-1 $120 $40 F unknown #
-71 coedge $-1 -1 -1 $-1 $121 $122 $123 $124 reversed $41 $-1 #
-72 coedge $-1 -1 -1 $-1 $125 $42 $126 $46 reversed $25 $-1 #
-73 coedge $-1 -1 -1 $-1 $42 $125 $127 $128 forward $25 $-1 #
-74 coedge $-1 -1 -1 $-1 $129 $130 $121 $75 forward $131 $-1 #
-75 edge $-1 -1 -1 $-1 $132 -2.5 $85 0 $74 $133 forward @7 unknown F #
-76 coedge $-1 -1 -1 $-1 $44 $43 $134 $135 forward $15 $-1 #
-77 coedge $-1 -1 -1 $-1 $136 $137 $138 $78 forward $105 $-1 #
-78 edge $-1 -1 -1 $-1 $85 0 $139 2.5 $77 $140 forward @7 unknown F #
-79 coedge $-1 -1 -1 $-1 $141 $142 $143 $80 forward $144 $-1 #
-80 edge $-1 -1 -1 $-1 $145 -10.125000000000002 $84 -3.3750000000000004 $79 $146 forward @7 unknown F #
-81 coedge $-1 -1 -1 $-1 $147 $45 $129 $148 forward $83 $-1 #
-82 coedge $-1 -1 -1 $-1 $45 $147 $149 $150 forward $83 $-1 #
-83 loop $-1 -1 -1 $-1 $-1 $45 $151 F unknown #
-84 vertex $-1 -1 -1 $-1 $152 $153 #
-85 vertex $-1 -1 -1 $-1 $148 $154 #
-86 straight-curve $-1 -1 -1 $-1 6.75 6.75 5 0 6.123233995736766e-17 1 I I #
-87 rgb_color-st-attrib $-1 -1 $-1 $47 $2 2 1 2 1 1 1 1 1 1 1 1 1 1 1 0 1 1 1 0.7921568751335144 0.81960785388946533 0.93333333730697632 #
-88 cell3d-cell $-1 -1 $60 $2 $-1 1 $155 #
-89 cshell $-1 -1 $-1 $156 $48 #
-90 cface $-1 -1 $157 $49 $158 0 #
-91 cface $-1 -1 $159 $29 $160 0 #
-92 cface $-1 -1 $67 $19 $55 0 #
-93 face $161 -1 -1 $-1 $107 $162 $5 $-1 $98 forward double in F F #
-94 face $163 -1 -1 $-1 $164 $165 $5 $-1 $166 forward single F F #
-95 cface_ptr-ct-attrib $-1 -1 $-1 $-1 $53 1 1 1 1 1 1 1 1 1 1 1 1 0 1 0 1 1 1 $31 $167 #
-96 face $168 -1 -1 $-1 $151 $169 $5 $-1 $98 forward double in F F #
-97 loop $-1 -1 -1 $-1 $-1 $126 $53 F unknown #
-98 plane-surface $-1 -1 -1 $-1 6.75 6.75 5 1 0 0 0 1 -6.123233995736766e-17 forward_v I I I I #
-99 cface_ptr-ct-attrib $-1 -1 $170 $-1 $55 1 1 1 1 1 1 1 1 1 1 1 1 0 1 0 1 1 1 $-1 $92 #
-100 face $171 -1 -1 $-1 $172 $173 $5 $-1 $119 forward single F F #
-101 loop $-1 -1 -1 $-1 $-1 $174 $55 F unknown #
-102 cone-surface $-1 -1 -1 $-1 6.75 6.75 5 0 -6.123233995736766e-17 -1 0 -2.5 1.5308084989341916e-16 1 I I -0.64764842009554047 0.76193931775945933 2.5 reversed I I I I #
-103 coedge $-1 -1 -1 $-1 $175 $176 $42 $75 reversed $56 $-1 #
-104 cface_ptr-ct-attrib $-1 -1 $-1 $-1 $58 1 1 1 1 1 1 1 1 1 1 1 1 0 1 0 1 1 1 $177 $33 #
-105 loop $-1 -1 -1 $-1 $-1 $77 $58 F unknown #
-106 cface $-1 -1 $178 $34 $151 0 #
-107 face $179 -1 -1 $-1 $53 $144 $5 $-1 $166 forward single F F #
-108 cface_ptr-ct-attrib $-1 -1 $-1 $-1 $61 1 1 1 1 1 1 1 1 1 1 1 1 0 1 0 1 1 1 $50 $35 #
-109 loop $-1 -1 -1 $-1 $-1 $180 $61 F unknown #
-110 cface $-1 -1 $167 $36 $172 0 #
-111 face $181 -1 -1 $-1 $182 $183 $5 $-1 $166 forward single F F #
-112 cface $-1 -1 $-1 $89 $184 0 #
-113 cface $-1 -1 $-1 $19 $185 0 #
-114 cface $-1 -1 $186 $155 $40 1 #
-115 cface $-1 -1 $187 $29 $40 0 #
-116 cface_ptr-ct-attrib $-1 -1 $-1 $-1 $69 1 1 1 1 1 1 1 1 1 1 1 1 0 1 0 1 1 1 $-1 $65 #
-117 face $188 -1 -1 $-1 $189 $190 $5 $-1 $102 forward single F F #
-118 loop $191 -1 -1 $-1 $-1 $192 $69 F unknown #
-119 cone-surface $-1 -1 -1 $-1 6.75 6.75 0 0 6.123233995736766e-17 1 0 6.7500000000000009 -4.1331829471223177e-16 1 I I -0.64764842009554047 0.76193931775945933 6.7500000000000009 reversed I I I I #
-120 coedge $-1 -1 -1 $-1 $138 $193 $194 $195 forward $70 $-1 #
-121 coedge $-1 -1 -1 $-1 $196 $71 $103 $75 reversed $41 $-1 #
-122 coedge $-1 -1 -1 $-1 $71 $196 $197 $198 forward $41 $-1 #
-123 coedge $-1 -1 -1 $-1 $199 $200 $201 $124 reversed $162 $-1 #
-124 edge $-1 -1 -1 $-1 $85 0 $202 5 $203 $204 forward @7 unknown F #
-125 coedge $-1 -1 -1 $-1 $73 $72 $205 $206 forward $25 $-1 #
-126 coedge $-1 -1 -1 $-1 $207 $208 $26 $46 reversed $97 $-1 #
-127 coedge $-1 -1 -1 $-1 $209 $210 $192 $128 forward $173 $-1 #
-128 edge $-1 -1 -1 $-1 $211 0 $132 6.5622023742033448 $127 $212 forward @7 unknown F #
-129 coedge $-1 -1 -1 $-1 $130 $74 $213 $148 forward $131 $-1 #
-130 coedge $-1 -1 -1 $-1 $74 $129 $209 $214 reversed $131 $-1 #
-131 loop $-1 -1 -1 $-1 $-1 $74 $189 F unknown #
-132 vertex $-1 -1 -1 $-1 $214 $215 #
-133 straight-curve $-1 -1 -1 $-1 6.75 6.75 5 -1 0 0 I I #
-134 coedge $-1 -1 -1 $-1 $216 $217 $218 $135 forward $219 $-1 #
-135 edge $-1 -1 -1 $-1 $139 -6.5622023742033448 $145 -0 $134 $220 forward @7 unknown F #
-136 coedge $-1 -1 -1 $-1 $137 $77 $217 $221 reversed $105 $-1 #
-137 coedge $-1 -1 -1 $-1 $77 $136 $81 $148 reversed $105 $-1 #
-138 coedge $-1 -1 -1 $-1 $201 $120 $180 $78 reversed $70 $-1 #
-139 vertex $-1 -1 -1 $-1 $222 $223 #
-140 straight-curve $-1 -1 -1 $-1 6.75 6.75 5 -1 0 0 I I #
-141 coedge $-1 -1 -1 $-1 $142 $79 $82 $150 reversed $144 $-1 #
-142 coedge $-1 -1 -1 $-1 $79 $141 $216 $224 forward $144 $-1 #
-143 coedge $-1 -1 -1 $-1 $225 $226 $44 $80 reversed $183 $-1 #
-144 loop $227 -1 -1 $-1 $-1 $79 $107 F unknown #
-145 vertex $-1 -1 -1 $-1 $228 $229 #
-146 straight-curve $-1 -1 -1 $-1 10.125 6.75 0 1 0 0 I I #
-147 coedge $-1 -1 -1 $-1 $82 $81 $230 $231 forward $83 $-1 #
-148 edge $-1 -1 -1 $-1 $85 0 $232 2.5 $129 $233 forward @7 unknown F #
-149 coedge $-1 -1 -1 $-1 $205 $234 $141 $150 forward $235 $-1 #
-150 edge $-1 -1 -1 $-1 $236 -6.7500000000000009 $84 0 $149 $237 forward @7 unknown F #
-151 face $238 -1 -1 $-1 $111 $83 $5 $-1 $98 forward double in F F #
-152 edge $-1 -1 -1 $-1 $84 0 $239 6.7500000000000009 $240 $237 forward @7 unknown F #
-153 point $-1 -1 -1 $-1 6.75 6.75 0 #
-154 point $-1 -1 -1 $-1 6.75 6.75 5 #
-155 cshell $-1 -1 $-1 $177 $88 #
-156 cface $-1 -1 $241 $89 $189 1 #
-157 cface $-1 -1 $242 $49 $151 1 #
-158 face $243 -1 -1 $-1 $-1 $235 $5 $-1 $166 forward single F F #
-159 cface $-1 -1 $115 $29 $93 0 #
-160 face $244 -1 -1 $-1 $185 $245 $5 $-1 $246 forward single F F #
-161 cface_ptr-ct-attrib $-1 -1 $-1 $-1 $93 1 1 1 1 1 1 1 1 1 1 1 1 0 1 0 1 1 1 $51 $159 #
-162 loop $-1 -1 -1 $-1 $-1 $123 $93 F unknown #
-163 cface_ptr-ct-attrib $-1 -1 $-1 $-1 $94 1 1 1 1 1 1 1 1 1 1 1 1 0 1 0 1 1 1 $-1 $52 #
-164 face $247 -1 -1 $-1 $61 $219 $5 $-1 $248 forward single F F #
-165 loop $-1 -1 -1 $-1 $-1 $249 $94 F unknown #
-166 plane-surface $-1 -1 -1 $-1 13.5 6.75 0 0 -6.123233995736766e-17 -1 0 1 -6.123233995736766e-17 forward_v I I I I #
-167 cface $-1 -1 $22 $36 $53 0 #
-168 cface_ptr-ct-attrib $-1 -1 $-1 $-1 $96 1 1 1 1 1 1 1 1 1 1 1 1 0 1 0 1 1 1 $250 $251 #
-169 loop $-1 -1 -1 $-1 $-1 $203 $96 F unknown #
-170 string_attrib-name_attrib-gen-attrib $-1 -1 $-1 $99 $55 2 1 1 1 1 1 1 1 1 1 1 1 1 1 0 1 1 1 @15 ATTRIB_XACIS_ID @3 166 #
-171 cface_ptr-ct-attrib $-1 -1 $252 $-1 $100 1 1 1 1 1 1 1 1 1 1 1 1 0 1 0 1 1 1 $-1 $64 #
-172 face $253 -1 -1 $-1 $160 $254 $5 $-1 $248 forward single F F #
-173 loop $-1 -1 -1 $-1 $-1 $127 $100 F unknown #
-174 coedge $-1 -1 -1 $-1 $255 $256 $196 $257 reversed $101 $-1 #
-175 coedge $-1 -1 -1 $-1 $176 $103 $258 $259 reversed $56 $-1 #
-176 coedge $-1 -1 -1 $-1 $103 $175 $199 $260 forward $56 $-1 #
-177 cface $-1 -1 $251 $155 $58 1 #
-178 cface $-1 -1 $21 $34 $164 0 #
-179 cface_ptr-ct-attrib $-1 -1 $-1 $-1 $107 1 1 1 1 1 1 1 1 1 1 1 1 0 1 0 1 1 1 $-1 $59 #
-180 coedge $-1 -1 -1 $-1 $261 $262 $43 $78 reversed $109 $-1 #
-181 cface_ptr-ct-attrib $-1 -1 $-1 $-1 $111 1 1 1 1 1 1 1 1 1 1 1 1 0 1 0 1 1 1 $-1 $62 #
-182 face $263 -1 -1 $-1 $58 $264 $5 $-1 $265 forward single F F #
-183 loop $-1 -1 -1 $-1 $-1 $143 $111 F unknown #
-184 face $266 -1 -1 $-1 $267 $268 $5 $-1 $265 forward single F F #
-185 face $269 -1 -1 $-1 $158 $270 $5 $-1 $265 forward single F F #
-186 cface $-1 -1 $-1 $155 $182 0 #
-187 cface $-1 -1 $-1 $29 $271 0 #
-188 cface_ptr-ct-attrib $-1 -1 $-1 $-1 $117 1 1 1 1 1 1 1 1 1 1 1 1 0 1 0 1 1 1 $-1 $241 #
-189 face $272 -1 -1 $-1 $184 $131 $5 $-1 $57 forward double in F F #
-190 loop $273 -1 -1 $-1 $-1 $274 $117 F unknown #
-191 string_attrib-name_attrib-gen-attrib $-1 -1 $-1 $-1 $118 2 1 1 1 1 1 1 1 1 1 1 1 1 1 0 1 1 1 @15 ATTRIB_XACIS_ID @2 -1 #
-192 coedge $-1 -1 -1 $-1 $275 $258 $73 $128 reversed $118 $-1 #
-193 coedge $-1 -1 -1 $-1 $120 $201 $276 $277 forward $70 $-1 #
-194 coedge $-1 -1 -1 $-1 $278 $279 $280 $195 forward $281 $-1 #
-195 edge $-1 -1 -1 $-1 $282 -6.5622023742033448 $139 0 $194 $283 forward @7 unknown F #
-196 coedge $-1 -1 -1 $-1 $122 $121 $274 $257 forward $41 $-1 #
-197 coedge $-1 -1 -1 $-1 $284 $285 $286 $198 forward $268 $-1 #
-198 edge $-1 -1 -1 $-1 $287 -3.3750000000000004 $202 3.3750000000000004 $197 $288 forward @7 unknown F #
-199 coedge $-1 -1 -1 $-1 $289 $123 $261 $260 reversed $162 $-1 #
-200 coedge $-1 -1 -1 $-1 $123 $289 $290 $291 forward $162 $-1 #
-201 coedge $-1 -1 -1 $-1 $193 $138 $203 $124 forward $70 $-1 #
-202 vertex $-1 -1 -1 $-1 $292 $293 #
-203 coedge $-1 -1 -1 $-1 $294 $213 $71 $124 forward $169 $-1 #
-204 straight-curve $-1 -1 -1 $-1 6.75 6.75 5 0 6.123233995736766e-17 1 I I #
-205 coedge $-1 -1 -1 $-1 $234 $149 $249 $206 forward $235 $-1 #
-206 edge $-1 -1 -1 $-1 $84 -3.3750000000000004 $211 3.3750000000000004 $205 $295 forward @7 unknown F #
-207 coedge $-1 -1 -1 $-1 $296 $126 $240 $152 forward $97 $-1 #
-208 coedge $-1 -1 -1 $-1 $126 $296 $176 $260 forward $97 $-1 #
-209 coedge $-1 -1 -1 $-1 $230 $127 $297 $214 forward $173 $-1 #
-210 coedge $-1 -1 -1 $-1 $127 $230 $234 $298 reversed $173 $-1 #
-211 vertex $-1 -1 -1 $-1 $298 $299 #
-212 straight-curve $-1 -1 -1 $-1 13.5 6.75 0 -0.64764842009554047 4.6655327331931994e-17 0.76193931775945933 I I #
-213 coedge $-1 -1 -1 $-1 $203 $300 $137 $148 reversed $169 $-1 #
-214 edge $-1 -1 -1 $-1 $132 1.5707963267948966 $232 3.1415926535897931 $297 $301 forward @7 unknown F #
-215 point $-1 -1 -1 $-1 9.25 6.75 5 #
-216 coedge $-1 -1 -1 $-1 $302 $134 $142 $224 reversed $219 $-1 #
-217 coedge $-1 -1 -1 $-1 $134 $302 $278 $221 forward $219 $-1 #
-218 coedge $-1 -1 -1 $-1 $303 $304 $76 $135 reversed $254 $-1 #
-219 loop $305 -1 -1 $-1 $-1 $134 $164 F unknown #
-220 straight-curve $-1 -1 -1 $-1 -8.8817841970012523e-16 6.75 0 -0.64764842009554047 -4.6655327331931994e-17 -0.76193931775945933 I I #
-221 edge $306 -1 -1 $-1 $232 3.1415926535897931 $139 4.7123889803846897 $217 $307 forward @7 unknown F #
-222 edge $-1 -1 -1 $-1 $139 4.7123889803846897 $308 6.2831853071795862 $303 $307 forward @7 unknown F #
-223 point $-1 -1 -1 $-1 4.25 6.75 5 #
-224 edge $309 -1 -1 $-1 $236 3.1415926535897931 $145 4.7123889803846897 $216 $310 forward @7 unknown F #
-225 coedge $-1 -1 -1 $-1 $226 $143 $304 $228 forward $183 $-1 #
-226 coedge $-1 -1 -1 $-1 $143 $225 $207 $152 reversed $183 $-1 #
-227 string_attrib-name_attrib-gen-attrib $-1 -1 $-1 $-1 $144 2 1 1 1 1 1 1 1 1 1 1 1 1 1 0 1 1 1 @15 ATTRIB_XACIS_ID @2 -1 #
-228 edge $-1 -1 -1 $-1 $145 4.7123889803846897 $239 6.2831853071795862 $304 $310 forward @7 unknown F #
-229 point $-1 -1 -1 $-1 -8.8817841970012523e-16 6.75 0 #
-230 coedge $-1 -1 -1 $-1 $210 $209 $302 $231 forward $173 $-1 #
-231 edge $311 -1 -1 $-1 $232 -0.006562202374203345 $236 0 $230 $312 forward @7 unknown F #
-232 vertex $313 -1 -1 $-1 $214 $314 #
-233 straight-curve $-1 -1 -1 $-1 6.75 6.75 5 0 -1 6.123233995736766e-17 I I #
-234 coedge $-1 -1 -1 $-1 $149 $205 $210 $298 forward $235 $-1 #
-235 loop $-1 -1 -1 $-1 $-1 $205 $158 F unknown #
-236 vertex $315 -1 -1 $-1 $224 $316 #
-237 straight-curve $-1 -1 -1 $-1 6.75 6.75 0 0 1 -6.123233995736766e-17 I I #
-238 cface_ptr-ct-attrib $-1 -1 $-1 $-1 $151 1 1 1 1 1 1 1 1 1 1 1 1 0 1 0 1 1 1 $157 $106 #
-239 vertex $317 -1 -1 $-1 $228 $318 #
-240 coedge $-1 -1 -1 $-1 $319 $249 $226 $152 forward $165 $-1 #
-241 cface $-1 -1 $250 $89 $117 0 #
-242 cface $-1 -1 $37 $49 $189 0 #
-243 cface_ptr-ct-attrib $-1 -1 $320 $-1 $158 1 1 1 1 1 1 1 1 1 1 1 1 0 1 0 1 1 1 $-1 $90 #
-244 cface_ptr-ct-attrib $-1 -1 $321 $-1 $160 1 1 1 1 1 1 1 1 1 1 1 1 0 1 0 1 1 1 $-1 $91 #
-245 loop $-1 -1 -1 $-1 $-1 $280 $160 F unknown #
-246 cone-surface $-1 -1 -1 $-1 6.75 6.75 5 0 -6.123233995736766e-17 -1 0 -2.5 1.5308084989341916e-16 1 I I -0.64764842009554047 0.76193931775945933 2.5 reversed I I I I #
-247 cface_ptr-ct-attrib $-1 -1 $-1 $-1 $164 1 1 1 1 1 1 1 1 1 1 1 1 0 1 0 1 1 1 $-1 $178 #
-248 cone-surface $-1 -1 -1 $-1 6.75 6.75 0 0 6.123233995736766e-17 1 0 6.7500000000000009 -4.1331829471223177e-16 1 I I -0.64764842009554047 0.76193931775945933 6.7500000000000009 reversed I I I I #
-249 coedge $-1 -1 -1 $-1 $240 $319 $125 $206 reversed $165 $-1 #
-250 cface $-1 -1 $66 $89 $96 1 #
-251 cface $-1 -1 $322 $155 $96 0 #
-252 string_attrib-name_attrib-gen-attrib $-1 -1 $-1 $171 $100 2 1 1 1 1 1 1 1 1 1 1 1 1 1 0 1 1 1 @15 ATTRIB_XACIS_ID @3 174 #
-253 cface_ptr-ct-attrib $-1 -1 $323 $-1 $172 1 1 1 1 1 1 1 1 1 1 1 1 0 1 0 1 1 1 $-1 $110 #
-254 loop $-1 -1 -1 $-1 $-1 $218 $172 F unknown #
-255 coedge $-1 -1 -1 $-1 $324 $174 $175 $259 reversed $101 $-1 #
-256 coedge $-1 -1 -1 $-1 $174 $324 $325 $326 forward $101 $-1 #
-257 edge $-1 -1 -1 $-1 $132 0 $287 6.5622023742033448 $274 $327 forward @7 unknown F #
-258 coedge $-1 -1 -1 $-1 $192 $328 $255 $259 forward $118 $-1 #
-259 edge $329 -1 -1 $-1 $308 0 $132 1.5707963267948966 $255 $301 forward @7 unknown F #
-260 edge $-1 -1 -1 $-1 $308 -2.5 $85 0 $176 $233 forward @7 unknown F #
-261 coedge $-1 -1 -1 $-1 $262 $180 $208 $260 reversed $109 $-1 #
-262 coedge $-1 -1 -1 $-1 $180 $261 $303 $222 reversed $109 $-1 #
-263 cface_ptr-ct-attrib $-1 -1 $-1 $-1 $182 1 1 1 1 1 1 1 1 1 1 1 1 0 1 0 1 1 1 $-1 $186 #
-264 loop $-1 -1 -1 $-1 $-1 $276 $182 F unknown #
-265 plane-surface $-1 -1 -1 $-1 13.5 6.75 10 0 6.123233995736766e-17 1 1 0 0 forward_v I I I I #
-266 cface_ptr-ct-attrib $-1 -1 $-1 $-1 $184 1 1 1 1 1 1 1 1 1 1 1 1 0 1 0 1 1 1 $-1 $112 #
-267 face $330 -1 -1 $-1 $271 $281 $5 $-1 $246 forward single F F #
-268 loop $-1 -1 -1 $-1 $-1 $197 $184 F unknown #
-269 cface_ptr-ct-attrib $-1 -1 $331 $-1 $185 1 1 1 1 1 1 1 1 1 1 1 1 0 1 0 1 1 1 $-1 $113 #
-270 loop $-1 -1 -1 $-1 $-1 $286 $185 F unknown #
-271 face $332 -1 -1 $-1 $94 $333 $5 $-1 $265 forward single F F #
-272 cface_ptr-ct-attrib $-1 -1 $-1 $-1 $189 1 1 1 1 1 1 1 1 1 1 1 1 0 1 0 1 1 1 $156 $242 #
-273 string_attrib-name_attrib-gen-attrib $-1 -1 $-1 $-1 $190 2 1 1 1 1 1 1 1 1 1 1 1 1 1 0 1 1 1 @15 ATTRIB_XACIS_ID @2 -1 #
-274 coedge $-1 -1 -1 $-1 $334 $297 $174 $257 forward $190 $-1 #
-275 coedge $-1 -1 -1 $-1 $328 $192 $319 $335 reversed $118 $-1 #
-276 coedge $-1 -1 -1 $-1 $336 $337 $338 $277 forward $264 $-1 #
-277 edge $-1 -1 -1 $-1 $202 3.3750000000000004 $282 10.125000000000002 $276 $339 forward @7 unknown F #
-278 coedge $-1 -1 -1 $-1 $340 $194 $136 $221 reversed $281 $-1 #
-279 coedge $-1 -1 -1 $-1 $194 $340 $336 $341 forward $281 $-1 #
-280 coedge $-1 -1 -1 $-1 $342 $343 $120 $195 reversed $245 $-1 #
-281 loop $344 -1 -1 $-1 $-1 $194 $267 F unknown #
-282 vertex $-1 -1 -1 $-1 $345 $346 #
-283 straight-curve $-1 -1 -1 $-1 4.25 6.75 5 0.64764842009554047 -4.6655327331931994e-17 -0.76193931775945933 I I #
-284 coedge $-1 -1 -1 $-1 $285 $197 $337 $292 forward $268 $-1 #
-285 coedge $-1 -1 -1 $-1 $197 $284 $334 $347 reversed $268 $-1 #
-286 coedge $-1 -1 -1 $-1 $325 $290 $122 $198 reversed $270 $-1 #
-287 vertex $-1 -1 -1 $-1 $347 $348 #
-288 straight-curve $-1 -1 -1 $-1 10.125 6.75 10 -1 -0 0 I I #
-289 coedge $-1 -1 -1 $-1 $200 $199 $324 $349 forward $162 $-1 #
-290 coedge $-1 -1 -1 $-1 $286 $325 $350 $291 forward $270 $-1 #
-291 edge $-1 -1 -1 $-1 $351 -6.7500000000000009 $202 0 $290 $352 forward @7 unknown F #
-292 edge $-1 -1 -1 $-1 $202 0 $353 6.7500000000000009 $284 $352 forward @7 unknown F #
-293 point $-1 -1 -1 $-1 6.75 6.75 10 #
-294 coedge $-1 -1 -1 $-1 $300 $203 $284 $292 forward $169 $-1 #
-295 straight-curve $-1 -1 -1 $-1 10.125 6.75 0 1 0 0 I I #
-296 coedge $-1 -1 -1 $-1 $208 $207 $354 $355 reversed $97 $-1 #
-297 coedge $-1 -1 -1 $-1 $274 $356 $130 $214 reversed $190 $-1 #
-298 edge $-1 -1 -1 $-1 $211 1.5707963267948966 $236 3.1415926535897931 $210 $357 forward @7 unknown F #
-299 point $-1 -1 -1 $-1 13.5 6.75 0 #
-300 coedge $-1 -1 -1 $-1 $213 $294 $340 $358 reversed $169 $-1 #
-301 ellipse-curve $-1 -1 -1 $-1 6.75 6.75 5 0 -6.123233995736766e-17 -1 0 2.5 -1.5308084989341916e-16 1 F 0 F 3.1415926535897931 #
-302 coedge $-1 -1 -1 $-1 $217 $216 $147 $231 reversed $219 $-1 #
-303 coedge $-1 -1 -1 $-1 $354 $218 $343 $222 forward $254 $-1 #
-304 coedge $-1 -1 -1 $-1 $218 $354 $225 $228 reversed $254 $-1 #
-305 string_attrib-name_attrib-gen-attrib $-1 -1 $-1 $-1 $219 2 1 1 1 1 1 1 1 1 1 1 1 1 1 0 1 1 1 @15 ATTRIB_XACIS_ID @2 -1 #
-306 string_attrib-name_attrib-gen-attrib $-1 -1 $-1 $-1 $221 2 1 1 1 1 1 1 1 1 1 1 1 1 1 0 1 1 1 @15 ATTRIB_XACIS_ID @3 135 #
-307 ellipse-curve $-1 -1 -1 $-1 6.75 6.75 5 0 -6.123233995736766e-17 -1 0 2.5 -1.5308084989341916e-16 1 F 3.1415926535897931 F 6.2831853071795862 #
-308 vertex $359 -1 -1 $-1 $259 $360 #
-309 string_attrib-name_attrib-gen-attrib $-1 -1 $-1 $-1 $224 2 1 1 1 1 1 1 1 1 1 1 1 1 1 0 1 1 1 @15 ATTRIB_XACIS_ID @2 15 #
-310 ellipse-curve $-1 -1 -1 $-1 6.75 6.75 0 0 -6.123233995736766e-17 -1 0 6.7500000000000009 -4.1331829471223177e-16 1 F 3.1415926535897931 F 6.2831853071795862 #
-311 string_attrib-name_attrib-gen-attrib $-1 -1 $-1 $-1 $231 2 1 1 1 1 1 1 1 1 1 1 1 1 1 0 1 1 1 @15 ATTRIB_XACIS_ID @2 85 #
-312 straight-curve $-1 -1 -1 $-1 6.7500000000000009 -8.8817841970012523e-16 0 7.9314056464284383e-14 -647.64842009554047 -761.9393177594593 F -0.006562202374203345 F 0 #
-313 string_attrib-name_attrib-gen-attrib $-1 -1 $-1 $-1 $232 2 1 1 1 1 1 1 1 1 1 1 1 1 1 0 1 1 1 @15 ATTRIB_XACIS_ID @3 118 #
-314 point $-1 -1 -1 $-1 6.7500000000000009 4.25 5 #
-315 string_attrib-name_attrib-gen-attrib $-1 -1 $-1 $-1 $236 2 1 1 1 1 1 1 1 1 1 1 1 1 1 0 1 1 1 @15 ATTRIB_XACIS_ID @3 147 #
-316 point $-1 -1 -1 $-1 6.7500000000000009 -8.8817841970012523e-16 0 #
-317 string_attrib-name_attrib-gen-attrib $-1 -1 $-1 $-1 $239 2 1 1 1 1 1 1 1 1 1 1 1 1 1 0 1 1 1 @15 ATTRIB_XACIS_ID @2 29 #
-318 point $-1 -1 -1 $-1 6.75 13.5 0 #
-319 coedge $-1 -1 -1 $-1 $249 $240 $275 $335 forward $165 $-1 #
-320 string_attrib-name_attrib-gen-attrib $-1 -1 $-1 $243 $158 2 1 1 1 1 1 1 1 1 1 1 1 1 1 0 1 1 1 @15 ATTRIB_XACIS_ID @3 148 #
-321 string_attrib-name_attrib-gen-attrib $-1 -1 $-1 $244 $160 2 1 1 1 1 1 1 1 1 1 1 1 1 1 0 1 1 1 @15 ATTRIB_XACIS_ID @2 27 #
-322 cface $-1 -1 $114 $155 $267 0 #
-323 string_attrib-name_attrib-gen-attrib $-1 -1 $-1 $253 $172 2 1 1 1 1 1 1 1 1 1 1 1 1 1 0 1 1 1 @15 ATTRIB_XACIS_ID @3 138 #
-324 coedge $-1 -1 -1 $-1 $256 $255 $361 $349 forward $101 $-1 #
-325 coedge $-1 -1 -1 $-1 $290 $286 $256 $326 reversed $270 $-1 #
-326 edge $362 -1 -1 $-1 $351 0 $287 1.5707963267948966 $256 $363 forward @7 unknown F #
-327 straight-curve $-1 -1 -1 $-1 9.25 6.75 5 0.64764842009554047 4.6655327331931994e-17 0.76193931775945933 I I #
-328 coedge $-1 -1 -1 $-1 $258 $275 $296 $355 reversed $118 $-1 #
-329 string_attrib-name_attrib-gen-attrib $-1 -1 $-1 $-1 $259 2 1 1 1 1 1 1 1 1 1 1 1 1 1 0 1 1 1 @15 ATTRIB_XACIS_ID @2 11 #
-330 cface_ptr-ct-attrib $-1 -1 $-1 $-1 $267 1 1 1 1 1 1 1 1 1 1 1 1 0 1 0 1 1 1 $-1 $322 #
-331 string_attrib-name_attrib-gen-attrib $-1 -1 $-1 $269 $185 2 1 1 1 1 1 1 1 1 1 1 1 1 1 0 1 1 1 @15 ATTRIB_XACIS_ID @3 107 #
-332 cface_ptr-ct-attrib $-1 -1 $-1 $-1 $271 1 1 1 1 1 1 1 1 1 1 1 1 0 1 0 1 1 1 $-1 $187 #
-333 loop $364 -1 -1 $-1 $-1 $338 $271 F unknown #
-334 coedge $-1 -1 -1 $-1 $356 $274 $285 $347 forward $190 $-1 #
-335 edge $365 -1 -1 $-1 $239 0 $211 1.5707963267948966 $275 $357 forward @7 unknown F #
-336 coedge $-1 -1 -1 $-1 $337 $276 $279 $341 reversed $264 $-1 #
-337 coedge $-1 -1 -1 $-1 $276 $336 $294 $292 reversed $264 $-1 #
-338 coedge $-1 -1 -1 $-1 $350 $366 $193 $277 reversed $333 $-1 #
-339 straight-curve $-1 -1 -1 $-1 10.125 6.75 10 -1 -0 0 I I #
-340 coedge $-1 -1 -1 $-1 $279 $278 $356 $358 forward $281 $-1 #
-341 edge $367 -1 -1 $-1 $353 3.1415926535897931 $282 4.7123889803846897 $279 $368 forward @7 unknown F #
-342 coedge $-1 -1 -1 $-1 $361 $280 $366 $345 forward $245 $-1 #
-343 coedge $-1 -1 -1 $-1 $280 $361 $262 $222 reversed $245 $-1 #
-344 string_attrib-name_attrib-gen-attrib $-1 -1 $-1 $-1 $281 2 1 1 1 1 1 1 1 1 1 1 1 1 1 0 1 1 1 @15 ATTRIB_XACIS_ID @2 -1 #
-345 edge $-1 -1 -1 $-1 $282 4.7123889803846897 $351 6.2831853071795862 $342 $368 forward @7 unknown F #
-346 point $-1 -1 -1 $-1 -8.8817841970012523e-16 6.75 10 #
-347 edge $-1 -1 -1 $-1 $287 1.5707963267948966 $353 3.1415926535897931 $334 $363 forward @7 unknown F #
-348 point $-1 -1 -1 $-1 13.5 6.75 10 #
-349 edge $369 -1 -1 $-1 $308 -2.428292634409458e-35 $351 0.006562202374203345 $324 $370 forward @7 unknown F #
-350 coedge $-1 -1 -1 $-1 $366 $338 $200 $291 reversed $333 $-1 #
-351 vertex $371 -1 -1 $-1 $326 $372 #
-352 straight-curve $-1 -1 -1 $-1 6.75 6.75 10 0 -1 6.123233995736766e-17 I I #
-353 vertex $373 -1 -1 $-1 $347 $374 #
-354 coedge $-1 -1 -1 $-1 $304 $303 $328 $355 forward $254 $-1 #
-355 edge $375 -1 -1 $-1 $308 -0.006562202374203345 $239 0 $328 $376 forward @7 unknown F #
-356 coedge $-1 -1 -1 $-1 $297 $334 $300 $358 reversed $190 $-1 #
-357 ellipse-curve $-1 -1 -1 $-1 6.75 6.75 0 0 -6.123233995736766e-17 -1 0 6.7500000000000009 -4.1331829471223177e-16 1 F 0 F 3.1415926535897931 #
-358 edge $377 -1 -1 $-1 $232 0 $353 0.006562202374203345 $356 $378 forward @7 unknown F #
-359 string_attrib-name_attrib-gen-attrib $-1 -1 $-1 $-1 $308 2 1 1 1 1 1 1 1 1 1 1 1 1 1 0 1 1 1 @15 ATTRIB_XACIS_ID @2 66 #
-360 point $-1 -1 -1 $-1 6.75 9.25 5 #
-361 coedge $-1 -1 -1 $-1 $343 $342 $289 $349 reversed $245 $-1 #
-362 string_attrib-name_attrib-gen-attrib $-1 -1 $-1 $-1 $326 2 1 1 1 1 1 1 1 1 1 1 1 1 1 0 1 1 1 @15 ATTRIB_XACIS_ID @2 30 #
-363 ellipse-curve $-1 -1 -1 $-1 6.75 6.75 10 0 -6.123233995736766e-17 -1 0 6.7500000000000009 -4.1331829471223177e-16 1 F 0 F 3.1415926535897931 #
-364 string_attrib-name_attrib-gen-attrib $-1 -1 $-1 $-1 $333 2 1 1 1 1 1 1 1 1 1 1 1 1 1 0 1 1 1 @15 ATTRIB_XACIS_ID @2 -1 #
-365 string_attrib-name_attrib-gen-attrib $-1 -1 $-1 $-1 $335 2 1 1 1 1 1 1 1 1 1 1 1 1 1 0 1 1 1 @15 ATTRIB_XACIS_ID @3 172 #
-366 coedge $-1 -1 -1 $-1 $338 $350 $342 $345 reversed $333 $-1 #
-367 string_attrib-name_attrib-gen-attrib $-1 -1 $-1 $-1 $341 2 1 1 1 1 1 1 1 1 1 1 1 1 1 0 1 1 1 @15 ATTRIB_XACIS_ID @3 154 #
-368 ellipse-curve $-1 -1 -1 $-1 6.75 6.75 10 0 -6.123233995736766e-17 -1 0 6.7500000000000009 -4.1331829471223177e-16 1 F 3.1415926535897931 F 6.2831853071795862 #
-369 string_attrib-name_attrib-gen-attrib $-1 -1 $-1 $-1 $349 2 1 1 1 1 1 1 1 1 1 1 1 1 1 0 1 1 1 @15 ATTRIB_XACIS_ID @3 102 #
-370 straight-curve $-1 -1 -1 $-1 6.75 9.25 5 7.9314056464284383e-14 647.64842009554047 761.9393177594593 F -2.428292634409458e-35 F 0.006562202374203345 #
-371 string_attrib-name_attrib-gen-attrib $-1 -1 $-1 $-1 $351 2 1 1 1 1 1 1 1 1 1 1 1 1 1 0 1 1 1 @15 ATTRIB_XACIS_ID @3 110 #
-372 point $-1 -1 -1 $-1 6.7500000000000009 13.5 10 #
-373 string_attrib-name_attrib-gen-attrib $-1 -1 $-1 $-1 $353 2 1 1 1 1 1 1 1 1 1 1 1 1 1 0 1 1 1 @15 ATTRIB_XACIS_ID @2 64 #
-374 point $-1 -1 -1 $-1 6.75 -8.8817841970012523e-16 10 #
-375 string_attrib-name_attrib-gen-attrib $-1 -1 $-1 $-1 $355 2 1 1 1 1 1 1 1 1 1 1 1 1 1 0 1 1 1 @15 ATTRIB_XACIS_ID @3 143 #
-376 straight-curve $-1 -1 -1 $-1 6.75 13.5 0 0 647.64842009554047 -761.9393177594593 F -0.006562202374203345 F 0 #
-377 string_attrib-name_attrib-gen-attrib $-1 -1 $-1 $-1 $358 2 1 1 1 1 1 1 1 1 1 1 1 1 1 0 1 1 1 @15 ATTRIB_XACIS_ID @2 52 #
-378 straight-curve $-1 -1 -1 $-1 6.75 4.25 5 0 -647.64842009554047 761.9393177594593 F 0 F 0.006562202374203345 #
End-of-ACIS-data 
