2400 0 1 0           
22 Abaqus 2020.HF6 - 2601 17 ACIS 26.0.1 Linux 24 Tue Apr  2 12:29:40 2024 
1 9.9999999999999995e-07 1e-10 
-0 body $1 -1 -1 $-1 $2 $-1 $-1 F #
-1 string_attrib-name_attrib-gen-attrib $-1 -1 $-1 $-1 $0 2 1 1 1 1 1 1 1 1 1 1 1 1 1 0 1 1 1 @18 HKS_ATTRIB_BODY_ID @1 1 #
-2 lump $3 -1 -1 $-1 $-1 $4 $0 F #
-3 cell_ptr-ct-attrib $-1 -1 $-1 $-1 $2 1 1 1 1 1 1 1 1 1 1 1 1 0 1 0 1 1 1 $5 $-1 auto #
-4 shell $-1 -1 -1 $-1 $-1 $-1 $6 $-1 $2 F #
-5 cell3d-cell $-1 -1 $7 $2 $-1 1 $8 #
-6 face $9 -1 -1 $-1 $10 $11 $4 $-1 $12 forward double in F F #
-7 cell3d-cell $-1 -1 $13 $2 $-1 1 $14 #
-8 cshell $-1 -1 $-1 $15 $5 #
-9 cface_ptr-ct-attrib $-1 -1 $-1 $-1 $6 1 1 1 1 1 1 1 1 1 1 1 1 0 1 0 1 1 1 $16 $17 #
-10 face $18 -1 -1 $-1 $19 $20 $4 $-1 $12 forward double in F F #
-11 loop $-1 -1 -1 $-1 $-1 $21 $6 F unknown #
-12 plane-surface $-1 -1 -1 $-1 5 5 0 0 1 0 0 0 1 forward_v I I I I #
-13 cell3d-cell $-1 -1 $22 $2 $-1 1 $23 #
-14 cshell $-1 -1 $-1 $24 $7 #
-15 cface $-1 -1 $25 $8 $26 0 #
-16 cface $-1 -1 $27 $28 $6 1 #
-17 cface $-1 -1 $29 $23 $6 0 #
-18 cface_ptr-ct-attrib $-1 -1 $-1 $-1 $10 1 1 1 1 1 1 1 1 1 1 1 1 0 1 0 1 1 1 $30 $31 #
-19 face $32 -1 -1 $-1 $33 $34 $4 $-1 $35 forward single F F #
-20 loop $-1 -1 -1 $-1 $-1 $36 $10 F unknown #
-21 coedge $-1 -1 -1 $-1 $37 $38 $39 $40 forward $11 $-1 #
-22 cell3d-cell $-1 -1 $-1 $2 $-1 1 $28 #
-23 cshell $-1 -1 $-1 $41 $13 #
-24 cface $-1 -1 $42 $14 $43 0 #
-25 cface $-1 -1 $44 $8 $45 0 #
-26 face $46 -1 -1 $-1 $-1 $47 $4 $-1 $48 reversed single F F #
-27 cface $-1 -1 $-1 $28 $49 0 #
-28 cshell $-1 -1 $-1 $50 $22 #
-29 cface $-1 -1 $-1 $23 $51 0 #
-30 cface $-1 -1 $52 $14 $10 1 #
-31 cface $-1 -1 $53 $8 $10 0 #
-32 cface_ptr-ct-attrib $-1 -1 $-1 $-1 $19 1 1 1 1 1 1 1 1 1 1 1 1 0 1 0 1 1 1 $-1 $42 #
-33 face $54 -1 -1 $-1 $55 $56 $4 $-1 $57 forward single F F #
-34 loop $-1 -1 -1 $-1 $-1 $58 $19 F unknown #
-35 cone-surface $-1 -1 -1 $-1 5 5 0 0 0 1 5 0 0 1 I I 0 1 5 forward I I I I #
-36 coedge $-1 -1 -1 $-1 $59 $60 $61 $62 forward $20 $-1 #
-37 coedge $-1 -1 -1 $-1 $63 $21 $64 $65 forward $11 $-1 #
-38 coedge $-1 -1 -1 $-1 $21 $63 $66 $67 forward $11 $-1 #
-39 coedge $-1 -1 -1 $-1 $68 $69 $60 $40 forward $70 $-1 #
-40 edge $-1 -1 -1 $-1 $71 -10 $72 0 $39 $73 forward @7 unknown F #
-41 cface $-1 -1 $74 $23 $75 0 #
-42 cface $-1 -1 $76 $14 $19 0 #
-43 face $77 -1 -1 $-1 $45 $78 $4 $-1 $57 forward single F F #
-44 cface $-1 -1 $31 $8 $33 0 #
-45 face $79 -1 -1 $-1 $80 $81 $4 $-1 $35 forward single F F #
-46 cface_ptr-ct-attrib $-1 -1 $-1 $-1 $26 1 1 1 1 1 1 1 1 1 1 1 1 0 1 0 1 1 1 $-1 $15 #
-47 loop $-1 -1 -1 $-1 $-1 $82 $26 F unknown #
-48 plane-surface $-1 -1 -1 $-1 5 5 0 0 0 1 1 0 0 forward_v I I I I #
-49 face $83 -1 -1 $-1 $84 $85 $4 $-1 $57 forward single F F #
-50 cface $-1 -1 $86 $28 $87 0 #
-51 face $88 -1 -1 $-1 $26 $89 $4 $-1 $57 forward single F F #
-52 cface $-1 -1 $-1 $14 $90 1 #
-53 cface $-1 -1 $-1 $8 $84 1 #
-54 cface_ptr-ct-attrib $-1 -1 $-1 $-1 $33 1 1 1 1 1 1 1 1 1 1 1 1 0 1 0 1 1 1 $-1 $44 #
-55 face $91 -1 -1 $-1 $75 $92 $4 $-1 $35 forward single F F #
-56 loop $-1 -1 -1 $-1 $-1 $93 $33 F unknown #
-57 plane-surface $-1 -1 -1 $-1 5 5 10 0 0 1 1 0 0 forward_v I I I I #
-58 coedge $-1 -1 -1 $-1 $94 $95 $96 $97 forward $34 $-1 #
-59 coedge $-1 -1 -1 $-1 $98 $36 $58 $97 forward $20 $-1 #
-60 coedge $-1 -1 -1 $-1 $36 $98 $99 $40 reversed $20 $-1 #
-61 coedge $-1 -1 -1 $-1 $100 $101 $93 $62 forward $78 $-1 #
-62 edge $-1 -1 -1 $-1 $71 0 $102 5 $61 $103 forward @7 unknown F #
-63 coedge $-1 -1 -1 $-1 $38 $37 $104 $105 forward $11 $-1 #
-64 coedge $-1 -1 -1 $-1 $106 $107 $108 $65 forward $109 $-1 #
-65 edge $-1 -1 -1 $-1 $72 0 $110 5 $64 $111 forward @7 unknown F #
-66 coedge $-1 -1 -1 $-1 $112 $113 $114 $67 forward $85 $-1 #
-67 edge $-1 -1 -1 $-1 $115 -5 $71 0 $66 $116 forward @7 unknown F #
-68 coedge $-1 -1 -1 $-1 $117 $39 $118 $119 forward $70 $-1 #
-69 coedge $-1 -1 -1 $-1 $39 $117 $101 $120 forward $70 $-1 #
-70 loop $-1 -1 -1 $-1 $-1 $39 $90 F unknown #
-71 vertex $-1 -1 -1 $-1 $121 $122 #
-72 vertex $-1 -1 -1 $-1 $119 $123 #
-73 straight-curve $-1 -1 -1 $-1 5 5 0 0 0 -1 I I #
-74 cface $-1 -1 $124 $23 $84 0 #
-75 face $125 -1 -1 $-1 $126 $127 $4 $-1 $48 reversed single F F #
-76 cface $-1 -1 $30 $14 $126 0 #
-77 cface_ptr-ct-attrib $-1 -1 $-1 $-1 $43 1 1 1 1 1 1 1 1 1 1 1 1 0 1 0 1 1 1 $-1 $24 #
-78 loop $-1 -1 -1 $-1 $-1 $61 $43 F unknown #
-79 cface_ptr-ct-attrib $-1 -1 $-1 $-1 $45 1 1 1 1 1 1 1 1 1 1 1 1 0 1 0 1 1 1 $-1 $25 #
-80 face $128 -1 -1 $-1 $51 $129 $4 $-1 $35 forward single F F #
-81 loop $-1 -1 -1 $-1 $-1 $96 $45 F unknown #
-82 coedge $-1 -1 -1 $-1 $130 $131 $98 $132 reversed $47 $-1 #
-83 cface_ptr-ct-attrib $-1 -1 $-1 $-1 $49 1 1 1 1 1 1 1 1 1 1 1 1 0 1 0 1 1 1 $-1 $27 #
-84 face $133 -1 -1 $-1 $90 $134 $4 $-1 $135 forward double in F F #
-85 loop $-1 -1 -1 $-1 $-1 $66 $49 F unknown #
-86 cface $-1 -1 $136 $28 $55 0 #
-87 face $137 -1 -1 $-1 $43 $109 $4 $-1 $48 reversed single F F #
-88 cface_ptr-ct-attrib $-1 -1 $-1 $-1 $51 1 1 1 1 1 1 1 1 1 1 1 1 0 1 0 1 1 1 $-1 $29 #
-89 loop $-1 -1 -1 $-1 $-1 $114 $51 F unknown #
-90 face $138 -1 -1 $-1 $87 $70 $4 $-1 $135 forward double in F F #
-91 cface_ptr-ct-attrib $-1 -1 $-1 $-1 $55 1 1 1 1 1 1 1 1 1 1 1 1 0 1 0 1 1 1 $-1 $86 #
-92 loop $-1 -1 -1 $-1 $-1 $104 $55 F unknown #
-93 coedge $-1 -1 -1 $-1 $139 $140 $36 $62 reversed $56 $-1 #
-94 coedge $-1 -1 -1 $-1 $141 $58 $142 $143 forward $34 $-1 #
-95 coedge $-1 -1 -1 $-1 $58 $141 $100 $144 forward $34 $-1 #
-96 coedge $-1 -1 -1 $-1 $145 $146 $59 $97 reversed $81 $-1 #
-97 edge $-1 -1 -1 $-1 $102 -10 $147 -0 $58 $148 forward @7 unknown F #
-98 coedge $-1 -1 -1 $-1 $60 $59 $149 $132 forward $20 $-1 #
-99 coedge $-1 -1 -1 $-1 $150 $151 $21 $40 reversed $134 $-1 #
-100 coedge $-1 -1 -1 $-1 $101 $61 $95 $144 reversed $78 $-1 #
-101 coedge $-1 -1 -1 $-1 $61 $100 $112 $120 forward $78 $-1 #
-102 vertex $-1 -1 -1 $-1 $144 $152 #
-103 straight-curve $-1 -1 -1 $-1 5 5 10 1 0 0 I I #
-104 coedge $-1 -1 -1 $-1 $153 $154 $155 $105 forward $92 $-1 #
-105 edge $-1 -1 -1 $-1 $110 0 $115 10 $104 $156 forward @7 unknown F #
-106 coedge $-1 -1 -1 $-1 $107 $64 $154 $157 reversed $109 $-1 #
-107 coedge $-1 -1 -1 $-1 $64 $106 $68 $119 reversed $109 $-1 #
-108 coedge $-1 -1 -1 $-1 $158 $159 $37 $65 reversed $127 $-1 #
-109 loop $-1 -1 -1 $-1 $-1 $64 $87 F unknown #
-110 vertex $-1 -1 -1 $-1 $160 $161 #
-111 straight-curve $-1 -1 -1 $-1 5 5 0 -1 0 0 I I #
-112 coedge $-1 -1 -1 $-1 $113 $66 $69 $120 reversed $85 $-1 #
-113 coedge $-1 -1 -1 $-1 $66 $112 $153 $162 reversed $85 $-1 #
-114 coedge $-1 -1 -1 $-1 $163 $164 $38 $67 reversed $89 $-1 #
-115 vertex $-1 -1 -1 $-1 $162 $165 #
-116 straight-curve $-1 -1 -1 $-1 5 5 10 1 0 0 I I #
-117 coedge $-1 -1 -1 $-1 $69 $68 $141 $166 forward $70 $-1 #
-118 coedge $-1 -1 -1 $-1 $142 $149 $107 $119 forward $167 $-1 #
-119 edge $-1 -1 -1 $-1 $72 0 $168 5 $118 $169 forward @7 unknown F #
-120 edge $-1 -1 -1 $-1 $170 -5 $71 0 $101 $171 forward @7 unknown F #
-121 edge $-1 -1 -1 $-1 $71 0 $172 5 $139 $171 forward @7 unknown F #
-122 point $-1 -1 -1 $-1 5 5 10 #
-123 point $-1 -1 -1 $-1 5 5 0 #
-124 cface $-1 -1 $17 $23 $80 0 #
-125 cface_ptr-ct-attrib $-1 -1 $-1 $-1 $75 1 1 1 1 1 1 1 1 1 1 1 1 0 1 0 1 1 1 $-1 $41 #
-126 face $173 -1 -1 $-1 $49 $167 $4 $-1 $48 reversed single F F #
-127 loop $-1 -1 -1 $-1 $-1 $108 $75 F unknown #
-128 cface_ptr-ct-attrib $-1 -1 $-1 $-1 $80 1 1 1 1 1 1 1 1 1 1 1 1 0 1 0 1 1 1 $-1 $124 #
-129 loop $-1 -1 -1 $-1 $-1 $155 $80 F unknown #
-130 coedge $-1 -1 -1 $-1 $131 $82 $146 $174 reversed $47 $-1 #
-131 coedge $-1 -1 -1 $-1 $82 $130 $158 $175 forward $47 $-1 #
-132 edge $-1 -1 -1 $-1 $147 -5 $72 0 $149 $176 forward @7 unknown F #
-133 cface_ptr-ct-attrib $-1 -1 $-1 $-1 $84 1 1 1 1 1 1 1 1 1 1 1 1 0 1 0 1 1 1 $53 $74 #
-134 loop $-1 -1 -1 $-1 $-1 $99 $84 F unknown #
-135 plane-surface $-1 -1 -1 $-1 5 5 0 1 0 0 0 0 -1 forward_v I I I I #
-136 cface $-1 -1 $16 $28 $90 0 #
-137 cface_ptr-ct-attrib $-1 -1 $-1 $-1 $87 1 1 1 1 1 1 1 1 1 1 1 1 0 1 0 1 1 1 $-1 $50 #
-138 cface_ptr-ct-attrib $-1 -1 $-1 $-1 $90 1 1 1 1 1 1 1 1 1 1 1 1 0 1 0 1 1 1 $52 $136 #
-139 coedge $-1 -1 -1 $-1 $140 $93 $164 $121 forward $56 $-1 #
-140 coedge $-1 -1 -1 $-1 $93 $139 $145 $177 reversed $56 $-1 #
-141 coedge $-1 -1 -1 $-1 $95 $94 $178 $166 forward $34 $-1 #
-142 coedge $-1 -1 -1 $-1 $149 $118 $94 $143 reversed $167 $-1 #
-143 edge $-1 -1 -1 $-1 $147 0 $168 1.5707963267948966 $94 $179 forward @7 unknown F #
-144 edge $-1 -1 -1 $-1 $170 4.7123889803846897 $102 6.2831853071795862 $95 $180 forward @7 unknown F #
-145 coedge $-1 -1 -1 $-1 $181 $96 $140 $177 forward $81 $-1 #
-146 coedge $-1 -1 -1 $-1 $96 $181 $130 $174 forward $81 $-1 #
-147 vertex $-1 -1 -1 $-1 $174 $182 #
-148 straight-curve $-1 -1 -1 $-1 10 5 0 -0 -0 -1 I I #
-149 coedge $-1 -1 -1 $-1 $118 $142 $82 $132 forward $167 $-1 #
-150 coedge $-1 -1 -1 $-1 $183 $99 $139 $121 forward $134 $-1 #
-151 coedge $-1 -1 -1 $-1 $99 $183 $131 $175 forward $134 $-1 #
-152 point $-1 -1 -1 $-1 10 5 10 #
-153 coedge $-1 -1 -1 $-1 $178 $104 $113 $162 forward $92 $-1 #
-154 coedge $-1 -1 -1 $-1 $104 $178 $106 $157 forward $92 $-1 #
-155 coedge $-1 -1 -1 $-1 $184 $185 $63 $105 reversed $129 $-1 #
-156 straight-curve $-1 -1 -1 $-1 0 5 0 0 0 1 I I #
-157 edge $-1 -1 -1 $-1 $168 1.5707963267948966 $110 3.1415926535897931 $154 $179 forward @7 unknown F #
-158 coedge $-1 -1 -1 $-1 $159 $108 $151 $175 reversed $127 $-1 #
-159 coedge $-1 -1 -1 $-1 $108 $158 $184 $160 reversed $127 $-1 #
-160 edge $-1 -1 -1 $-1 $110 3.1415926535897931 $186 4.7123889803846897 $184 $179 forward @7 unknown F #
-161 point $-1 -1 -1 $-1 0 5 0 #
-162 edge $-1 -1 -1 $-1 $115 3.1415926535897931 $170 4.7123889803846897 $153 $180 forward @7 unknown F #
-163 coedge $-1 -1 -1 $-1 $164 $114 $185 $187 reversed $89 $-1 #
-164 coedge $-1 -1 -1 $-1 $114 $163 $150 $121 reversed $89 $-1 #
-165 point $-1 -1 -1 $-1 0 5 10 #
-166 edge $-1 -1 -1 $-1 $168 0 $170 10 $141 $188 forward @7 unknown F #
-167 loop $-1 -1 -1 $-1 $-1 $149 $126 F unknown #
-168 vertex $-1 -1 -1 $-1 $157 $189 #
-169 straight-curve $-1 -1 -1 $-1 5 5 0 0 1 0 I I #
-170 vertex $-1 -1 -1 $-1 $144 $190 #
-171 straight-curve $-1 -1 -1 $-1 5 5 10 0 -1 0 I I #
-172 vertex $-1 -1 -1 $-1 $187 $191 #
-173 cface_ptr-ct-attrib $-1 -1 $-1 $-1 $126 1 1 1 1 1 1 1 1 1 1 1 1 0 1 0 1 1 1 $-1 $76 #
-174 edge $-1 -1 -1 $-1 $186 4.7123889803846897 $147 6.2831853071795862 $146 $179 forward @7 unknown F #
-175 edge $-1 -1 -1 $-1 $186 -5 $72 0 $131 $169 forward @7 unknown F #
-176 straight-curve $-1 -1 -1 $-1 5 5 0 -1 0 0 I I #
-177 edge $-1 -1 -1 $-1 $102 0 $172 1.5707963267948966 $145 $180 forward @7 unknown F #
-178 coedge $-1 -1 -1 $-1 $154 $153 $117 $166 reversed $92 $-1 #
-179 ellipse-curve $-1 -1 -1 $-1 5 5 0 0 0 1 5 0 0 1 I I #
-180 ellipse-curve $-1 -1 -1 $-1 5 5 10 -0 -0 -1 5 0 0 1 I I #
-181 coedge $-1 -1 -1 $-1 $146 $145 $192 $193 forward $81 $-1 #
-182 point $-1 -1 -1 $-1 10 5 0 #
-183 coedge $-1 -1 -1 $-1 $151 $150 $181 $193 forward $134 $-1 #
-184 coedge $-1 -1 -1 $-1 $192 $155 $159 $160 forward $129 $-1 #
-185 coedge $-1 -1 -1 $-1 $155 $192 $163 $187 forward $129 $-1 #
-186 vertex $-1 -1 -1 $-1 $174 $194 #
-187 edge $-1 -1 -1 $-1 $172 1.5707963267948966 $115 3.1415926535897931 $185 $180 forward @7 unknown F #
-188 straight-curve $-1 -1 -1 $-1 5 10 0 0 0 1 I I #
-189 point $-1 -1 -1 $-1 5 10 0 #
-190 point $-1 -1 -1 $-1 5 10 10 #
-191 point $-1 -1 -1 $-1 5 0 10 #
-192 coedge $-1 -1 -1 $-1 $185 $184 $183 $193 reversed $129 $-1 #
-193 edge $-1 -1 -1 $-1 $172 -10 $186 -0 $181 $195 forward @7 unknown F #
-194 point $-1 -1 -1 $-1 5 0 0 #
-195 straight-curve $-1 -1 -1 $-1 5 0 0 -0 -0 -1 I I #
End-of-ACIS-data 
